%TF.GenerationSoftware,KiCad,Pcbnew,10.0.0*%
%TF.CreationDate,2026-09-07T11:09:40-07:00*%
%TF.ProjectId,flex-fule-can-adapter-v1,666c6578-2d66-4756-9c65-2d63616e2d61,rev?*%
%TF.SameCoordinates,Original*%
%TF.FileFunction,Paste,Top*%
%TF.FilePolarity,Positive*%
%FSLAX46Y46*%
G04 Gerber Fmt 4.6, Leading zero omitted, Abs format (unit mm)*
G04 Created by KiCad (PCBNEW 10.0.0) date 2026-09-07 11:09:40*
%MOMM*%
%LPD*%
G01*
G04 APERTURE LIST*
G04 Aperture macros list*
%AMRoundRect*
0 Rectangle with rounded corners*
0 $1 Rounding radius*
0 $2 $3 $4 $5 $6 $7 $8 $9 X,Y pos of 4 corners*
0 Add a 4 corners polygon primitive as box body*
4,1,4,$2,$3,$4,$5,$6,$7,$8,$9,$2,$3,0*
0 Add four circle primitives for the rounded corners*
1,1,$1+$1,$2,$3*
1,1,$1+$1,$4,$5*
1,1,$1+$1,$6,$7*
1,1,$1+$1,$8,$9*
0 Add four rect primitives between the rounded corners*
20,1,$1+$1,$2,$3,$4,$5,0*
20,1,$1+$1,$4,$5,$6,$7,0*
20,1,$1+$1,$6,$7,$8,$9,0*
20,1,$1+$1,$8,$9,$2,$3,0*%
G04 Aperture macros list end*
%ADD10R,0.700000X0.700000*%
%ADD11R,1.500000X0.900000*%
%ADD12RoundRect,0.237500X-0.237500X0.300000X-0.237500X-0.300000X0.237500X-0.300000X0.237500X0.300000X0*%
%ADD13RoundRect,0.237500X0.237500X-0.250000X0.237500X0.250000X-0.237500X0.250000X-0.237500X-0.250000X0*%
%ADD14RoundRect,0.237500X0.250000X0.237500X-0.250000X0.237500X-0.250000X-0.237500X0.250000X-0.237500X0*%
%ADD15RoundRect,0.237500X-0.250000X-0.237500X0.250000X-0.237500X0.250000X0.237500X-0.250000X0.237500X0*%
%ADD16R,0.500000X0.600000*%
%ADD17R,0.300000X0.600000*%
%ADD18R,0.250000X0.600000*%
%ADD19R,2.400000X0.300000*%
%ADD20R,0.350000X0.250000*%
%ADD21R,1.100000X3.700000*%
%ADD22RoundRect,0.237500X0.237500X-0.300000X0.237500X0.300000X-0.237500X0.300000X-0.237500X-0.300000X0*%
%ADD23R,0.950000X0.950000*%
%ADD24RoundRect,0.237500X-0.237500X0.250000X-0.237500X-0.250000X0.237500X-0.250000X0.237500X0.250000X0*%
%ADD25R,2.200000X2.150000*%
%ADD26RoundRect,0.237500X-0.300000X-0.237500X0.300000X-0.237500X0.300000X0.237500X-0.300000X0.237500X0*%
%ADD27RoundRect,0.237500X0.300000X0.237500X-0.300000X0.237500X-0.300000X-0.237500X0.300000X-0.237500X0*%
%ADD28R,1.050000X0.550000*%
%ADD29RoundRect,0.225000X-0.250000X0.225000X-0.250000X-0.225000X0.250000X-0.225000X0.250000X0.225000X0*%
%ADD30R,0.355600X0.457200*%
%ADD31R,1.050000X0.500000*%
%ADD32RoundRect,0.200000X-0.200000X-0.275000X0.200000X-0.275000X0.200000X0.275000X-0.200000X0.275000X0*%
%ADD33R,1.500000X1.500000*%
%ADD34R,1.528000X0.650000*%
G04 APERTURE END LIST*
D10*
%TO.C,U1*%
X126439999Y-108000000D03*
X127540000Y-107999998D03*
X128640002Y-107999999D03*
X126440000Y-109099998D03*
X127540000Y-109099998D03*
X128640000Y-109099998D03*
X126440000Y-110199999D03*
X127539999Y-110199999D03*
X128639999Y-110199997D03*
D11*
X119750000Y-115299996D03*
X119750000Y-113799998D03*
X119750000Y-112299998D03*
X119750000Y-110799998D03*
X119750000Y-109299998D03*
X119750000Y-107799998D03*
X119750000Y-106299999D03*
X119750001Y-104799999D03*
X119750002Y-103299998D03*
X137250000Y-103299998D03*
X137250002Y-104799997D03*
X137250001Y-106299997D03*
X137250000Y-107799998D03*
X137250000Y-109299998D03*
X137249999Y-110799998D03*
X137250000Y-112299998D03*
X137250000Y-113799998D03*
X137250001Y-115299998D03*
%TD*%
D12*
%TO.C,C2*%
X135890000Y-117937500D03*
X135889998Y-119662500D03*
%TD*%
D13*
%TO.C,R1*%
X137400000Y-124925000D03*
X137400000Y-123100000D03*
%TD*%
D14*
%TO.C,R19*%
X148912500Y-108500000D03*
X147087500Y-108500000D03*
%TD*%
D15*
%TO.C,R2*%
X139637500Y-106800000D03*
X141462500Y-106800000D03*
%TD*%
D14*
%TO.C,R7*%
X141512500Y-108600000D03*
X139687500Y-108600000D03*
%TD*%
D12*
%TO.C,C4*%
X115400001Y-104137500D03*
X115399999Y-105862500D03*
%TD*%
%TO.C,C1*%
X137800001Y-117937500D03*
X137799999Y-119662500D03*
%TD*%
D13*
%TO.C,R6*%
X144400000Y-108512500D03*
X144400000Y-106687500D03*
%TD*%
D16*
%TO.C,D1*%
X142999998Y-107500000D03*
X143000002Y-108500000D03*
%TD*%
D17*
%TO.C,U3*%
X121925000Y-121200000D03*
D18*
X121450000Y-121200000D03*
X121000000Y-121200000D03*
D17*
X120525000Y-121200000D03*
D19*
X121225000Y-121850000D03*
X121225000Y-122350000D03*
D17*
X120525000Y-123000000D03*
D18*
X121000000Y-123000000D03*
X121450000Y-123000000D03*
D17*
X121925000Y-123000000D03*
D20*
X122250000Y-122825000D03*
X122250000Y-121375000D03*
X120200000Y-121375000D03*
X120200000Y-122825000D03*
%TD*%
D21*
%TO.C,L1*%
X133600000Y-119800000D03*
X130600000Y-119800000D03*
%TD*%
D22*
%TO.C,C10*%
X127399999Y-119662500D03*
X127400001Y-117937500D03*
%TD*%
D23*
%TO.C,LED2*%
X153899998Y-126800000D03*
X152400000Y-126800000D03*
%TD*%
D24*
%TO.C,R12*%
X117600000Y-121787500D03*
X117600000Y-123612500D03*
%TD*%
D25*
%TO.C,D2*%
X115600000Y-127900000D03*
X111200000Y-127900000D03*
%TD*%
D12*
%TO.C,C11*%
X127400000Y-121600000D03*
X127399998Y-123325000D03*
%TD*%
D13*
%TO.C,R11*%
X121250000Y-127275000D03*
X121250000Y-125450000D03*
%TD*%
D26*
%TO.C,C9*%
X131237500Y-127262500D03*
X132962500Y-127262500D03*
%TD*%
D27*
%TO.C,C6*%
X114362500Y-131100001D03*
X112637500Y-131099999D03*
%TD*%
D24*
%TO.C,R8*%
X124700000Y-119475000D03*
X124700000Y-121300000D03*
%TD*%
D28*
%TO.C,U4*%
X130800000Y-123500000D03*
X130800000Y-124450000D03*
X130800000Y-125400000D03*
X133400000Y-125400000D03*
X133400000Y-124450000D03*
X133400000Y-123500000D03*
%TD*%
D29*
%TO.C,C23*%
X119450000Y-125462500D03*
X119450000Y-127012500D03*
%TD*%
D12*
%TO.C,C7*%
X124700002Y-122937500D03*
X124700000Y-124662500D03*
%TD*%
D30*
%TO.C,LED1*%
X154349998Y-107626099D03*
X153650001Y-107626099D03*
X153650002Y-109073899D03*
X154349999Y-109073899D03*
%TD*%
D15*
%TO.C,R9*%
X121137500Y-118300000D03*
X122962500Y-118300000D03*
%TD*%
D31*
%TO.C,D3*%
X114899999Y-108850002D03*
X114900001Y-110150003D03*
X117000000Y-109500000D03*
%TD*%
D32*
%TO.C,R18*%
X147450002Y-126800000D03*
X149100000Y-126800000D03*
%TD*%
D14*
%TO.C,R15*%
X148912500Y-106400000D03*
X147087500Y-106400000D03*
%TD*%
%TO.C,R14*%
X148912500Y-104400000D03*
X147087500Y-104400000D03*
%TD*%
D27*
%TO.C,C3*%
X137262500Y-127000001D03*
X135537500Y-126999999D03*
%TD*%
D12*
%TO.C,C8*%
X135300002Y-123137500D03*
X135300000Y-124862500D03*
%TD*%
D33*
%TO.C,SW1*%
X130200000Y-130200000D03*
X138000000Y-130200000D03*
%TD*%
D13*
%TO.C,R5*%
X106000000Y-108425000D03*
X106000000Y-106600000D03*
%TD*%
%TO.C,R3*%
X126300000Y-127912500D03*
X126300000Y-126087500D03*
%TD*%
%TO.C,R4*%
X128100000Y-127912500D03*
X128100000Y-126087500D03*
%TD*%
D29*
%TO.C,C24*%
X123000000Y-125487500D03*
X123000000Y-127037500D03*
%TD*%
D34*
%TO.C,U2*%
X113310999Y-107305000D03*
X113310998Y-106034999D03*
X113311000Y-104765000D03*
X113310999Y-103495001D03*
X107889001Y-103495000D03*
X107889002Y-104765001D03*
X107889000Y-106035000D03*
X107889001Y-107304999D03*
%TD*%
D15*
%TO.C,R10*%
X117187500Y-118300000D03*
X119012500Y-118300000D03*
%TD*%
D33*
%TO.C,SW2*%
X148100000Y-130200000D03*
X140300000Y-130200000D03*
%TD*%
D12*
%TO.C,C5*%
X116900001Y-104137500D03*
X116899999Y-105862500D03*
%TD*%
M02*
