%TF.GenerationSoftware,KiCad,Pcbnew,10.0.0*%
%TF.CreationDate,2026-09-07T11:09:40-07:00*%
%TF.ProjectId,flex-fule-can-adapter-v1,666c6578-2d66-4756-9c65-2d63616e2d61,rev?*%
%TF.SameCoordinates,Original*%
%TF.FileFunction,Copper,L1,Top*%
%TF.FilePolarity,Positive*%
%FSLAX46Y46*%
G04 Gerber Fmt 4.6, Leading zero omitted, Abs format (unit mm)*
G04 Created by KiCad (PCBNEW 10.0.0) date 2026-09-07 11:09:40*
%MOMM*%
%LPD*%
G01*
G04 APERTURE LIST*
G04 Aperture macros list*
%AMRoundRect*
0 Rectangle with rounded corners*
0 $1 Rounding radius*
0 $2 $3 $4 $5 $6 $7 $8 $9 X,Y pos of 4 corners*
0 Add a 4 corners polygon primitive as box body*
4,1,4,$2,$3,$4,$5,$6,$7,$8,$9,$2,$3,0*
0 Add four circle primitives for the rounded corners*
1,1,$1+$1,$2,$3*
1,1,$1+$1,$4,$5*
1,1,$1+$1,$6,$7*
1,1,$1+$1,$8,$9*
0 Add four rect primitives between the rounded corners*
20,1,$1+$1,$2,$3,$4,$5,0*
20,1,$1+$1,$4,$5,$6,$7,0*
20,1,$1+$1,$6,$7,$8,$9,0*
20,1,$1+$1,$8,$9,$2,$3,0*%
G04 Aperture macros list end*
%TA.AperFunction,SMDPad,CuDef*%
%ADD10C,1.000000*%
%TD*%
%TA.AperFunction,SMDPad,CuDef*%
%ADD11R,0.700000X0.700000*%
%TD*%
%TA.AperFunction,SMDPad,CuDef*%
%ADD12R,1.500000X0.900000*%
%TD*%
%TA.AperFunction,SMDPad,CuDef*%
%ADD13RoundRect,0.237500X-0.237500X0.300000X-0.237500X-0.300000X0.237500X-0.300000X0.237500X0.300000X0*%
%TD*%
%TA.AperFunction,SMDPad,CuDef*%
%ADD14RoundRect,0.237500X0.237500X-0.250000X0.237500X0.250000X-0.237500X0.250000X-0.237500X-0.250000X0*%
%TD*%
%TA.AperFunction,SMDPad,CuDef*%
%ADD15RoundRect,0.237500X0.250000X0.237500X-0.250000X0.237500X-0.250000X-0.237500X0.250000X-0.237500X0*%
%TD*%
%TA.AperFunction,SMDPad,CuDef*%
%ADD16RoundRect,0.237500X-0.250000X-0.237500X0.250000X-0.237500X0.250000X0.237500X-0.250000X0.237500X0*%
%TD*%
%TA.AperFunction,ComponentPad*%
%ADD17C,0.700000*%
%TD*%
%TA.AperFunction,ComponentPad*%
%ADD18C,4.400000*%
%TD*%
%TA.AperFunction,SMDPad,CuDef*%
%ADD19R,0.500000X0.600000*%
%TD*%
%TA.AperFunction,SMDPad,CuDef*%
%ADD20R,0.300000X0.600000*%
%TD*%
%TA.AperFunction,SMDPad,CuDef*%
%ADD21R,0.250000X0.600000*%
%TD*%
%TA.AperFunction,SMDPad,CuDef*%
%ADD22R,2.400000X0.300000*%
%TD*%
%TA.AperFunction,SMDPad,CuDef*%
%ADD23R,0.350000X0.250000*%
%TD*%
%TA.AperFunction,SMDPad,CuDef*%
%ADD24R,1.100000X3.700000*%
%TD*%
%TA.AperFunction,SMDPad,CuDef*%
%ADD25RoundRect,0.237500X0.237500X-0.300000X0.237500X0.300000X-0.237500X0.300000X-0.237500X-0.300000X0*%
%TD*%
%TA.AperFunction,ComponentPad*%
%ADD26C,1.950000*%
%TD*%
%TA.AperFunction,ComponentPad*%
%ADD27C,5.400000*%
%TD*%
%TA.AperFunction,SMDPad,CuDef*%
%ADD28R,0.950000X0.950000*%
%TD*%
%TA.AperFunction,SMDPad,CuDef*%
%ADD29RoundRect,0.237500X-0.237500X0.250000X-0.237500X-0.250000X0.237500X-0.250000X0.237500X0.250000X0*%
%TD*%
%TA.AperFunction,SMDPad,CuDef*%
%ADD30R,2.200000X2.150000*%
%TD*%
%TA.AperFunction,SMDPad,CuDef*%
%ADD31RoundRect,0.237500X-0.300000X-0.237500X0.300000X-0.237500X0.300000X0.237500X-0.300000X0.237500X0*%
%TD*%
%TA.AperFunction,SMDPad,CuDef*%
%ADD32RoundRect,0.237500X0.300000X0.237500X-0.300000X0.237500X-0.300000X-0.237500X0.300000X-0.237500X0*%
%TD*%
%TA.AperFunction,SMDPad,CuDef*%
%ADD33R,1.050000X0.550000*%
%TD*%
%TA.AperFunction,SMDPad,CuDef*%
%ADD34RoundRect,0.225000X-0.250000X0.225000X-0.250000X-0.225000X0.250000X-0.225000X0.250000X0.225000X0*%
%TD*%
%TA.AperFunction,SMDPad,CuDef*%
%ADD35R,0.355600X0.457200*%
%TD*%
%TA.AperFunction,SMDPad,CuDef*%
%ADD36R,1.050000X0.500000*%
%TD*%
%TA.AperFunction,SMDPad,CuDef*%
%ADD37RoundRect,0.200000X-0.200000X-0.275000X0.200000X-0.275000X0.200000X0.275000X-0.200000X0.275000X0*%
%TD*%
%TA.AperFunction,SMDPad,CuDef*%
%ADD38R,1.500000X1.500000*%
%TD*%
%TA.AperFunction,SMDPad,CuDef*%
%ADD39R,1.528000X0.650000*%
%TD*%
%TA.AperFunction,SMDPad,CuDef*%
%ADD40C,2.000000*%
%TD*%
%TA.AperFunction,ViaPad*%
%ADD41C,0.600000*%
%TD*%
%TA.AperFunction,Conductor*%
%ADD42C,0.300000*%
%TD*%
%TA.AperFunction,Conductor*%
%ADD43C,0.400000*%
%TD*%
%TA.AperFunction,Conductor*%
%ADD44C,0.200000*%
%TD*%
%TA.AperFunction,Conductor*%
%ADD45C,0.250000*%
%TD*%
G04 APERTURE END LIST*
D10*
%TO.P,TP3,1,1_1*%
%TO.N,Net-(U1-IO3)*%
X117400000Y-111700000D03*
%TD*%
%TO.P,TP2,1,1_1*%
%TO.N,Net-(U1-IO1)*%
X117400000Y-114000000D03*
%TD*%
%TO.P,TP1,1,1_1*%
%TO.N,Net-(U1-IO0)*%
X117400000Y-116300000D03*
%TD*%
D11*
%TO.P,U1,19_9,GND__9_19_9*%
%TO.N,GND*%
X126439999Y-108000000D03*
%TO.P,U1,19_8,GND__8_19_8*%
X127540000Y-107999998D03*
%TO.P,U1,19_7,GND__7_19_7*%
X128640002Y-107999999D03*
%TO.P,U1,19_6,GND__6_19_6*%
X126440000Y-109099998D03*
%TO.P,U1,19_5,GND__5_19_5*%
X127540000Y-109099998D03*
%TO.P,U1,19_4,GND__4_19_4*%
X128640000Y-109099998D03*
%TO.P,U1,19_3,GND__3_19_3*%
X126440000Y-110199999D03*
%TO.P,U1,19_2,GND__2_19_2*%
X127539999Y-110199999D03*
%TO.P,U1,19_1,GND__1_19_1*%
X128639999Y-110199997D03*
D12*
%TO.P,U1,18,IO0_18*%
%TO.N,Net-(U1-IO0)*%
X119750000Y-115299996D03*
%TO.P,U1,17,IO1_17*%
%TO.N,Net-(U1-IO1)*%
X119750000Y-113799998D03*
%TO.P,U1,16,IO2_16*%
%TO.N,unconnected-(U1-IO2-Pad16)*%
X119750000Y-112299998D03*
%TO.P,U1,15,IO3_15*%
%TO.N,Net-(U1-IO3)*%
X119750000Y-110799998D03*
%TO.P,U1,14,IO19_14*%
%TO.N,Net-(U1-IO19)*%
X119750000Y-109299998D03*
%TO.P,U1,13,IO18_13*%
%TO.N,Net-(U1-IO18)*%
X119750000Y-107799998D03*
%TO.P,U1,12,IO21_12*%
%TO.N,/CAN_TX*%
X119750000Y-106299999D03*
%TO.P,U1,11,IO20_11*%
%TO.N,/CAN_RX*%
X119750001Y-104799999D03*
%TO.P,U1,10,IO10_10*%
%TO.N,unconnected-(U1-IO10-Pad10)*%
X119750002Y-103299998D03*
%TO.P,U1,9,GND_9*%
%TO.N,GND*%
X137250000Y-103299998D03*
%TO.P,U1,8,IO9_8*%
%TO.N,Net-(U1-IO9)*%
X137250002Y-104799997D03*
%TO.P,U1,7,IO8_7*%
%TO.N,unconnected-(U1-IO8-Pad7)*%
X137250001Y-106299997D03*
%TO.P,U1,6,IO7_6*%
%TO.N,Net-(U1-IO7)*%
X137250000Y-107799998D03*
%TO.P,U1,5,IO6_5*%
%TO.N,Net-(U1-IO6)*%
X137250000Y-109299998D03*
%TO.P,U1,4,IO5_4*%
%TO.N,Net-(U1-IO5)*%
X137249999Y-110799998D03*
%TO.P,U1,3,IO4_3*%
%TO.N,/Eth_inp*%
X137250000Y-112299998D03*
%TO.P,U1,2,EN_2*%
%TO.N,Net-(U1-EN)*%
X137250000Y-113799998D03*
%TO.P,U1,1,3V3_1*%
%TO.N,3.3V*%
X137250001Y-115299998D03*
%TD*%
D13*
%TO.P,C2,1*%
%TO.N,3.3V*%
X135890000Y-117937500D03*
%TO.P,C2,2*%
%TO.N,GND*%
X135889998Y-119662500D03*
%TD*%
D14*
%TO.P,R1,1*%
%TO.N,Net-(U1-EN)*%
X137400000Y-124925000D03*
%TO.P,R1,2*%
%TO.N,3.3V*%
X137400000Y-123100000D03*
%TD*%
D15*
%TO.P,R19,1*%
%TO.N,Net-(LED1-B)*%
X148912500Y-108500000D03*
%TO.P,R19,2*%
%TO.N,Net-(U1-IO5)*%
X147087500Y-108500000D03*
%TD*%
D16*
%TO.P,R2,1*%
%TO.N,Net-(U1-IO9)*%
X139637500Y-106800000D03*
%TO.P,R2,2*%
%TO.N,3.3V*%
X141462500Y-106800000D03*
%TD*%
D15*
%TO.P,R7,1*%
%TO.N,Net-(D1-Pad2)*%
X141512500Y-108600000D03*
%TO.P,R7,2*%
%TO.N,/Eth_inp*%
X139687500Y-108600000D03*
%TD*%
D13*
%TO.P,C4,1*%
%TO.N,3.3V*%
X115400001Y-104137500D03*
%TO.P,C4,2*%
%TO.N,GND*%
X115399999Y-105862500D03*
%TD*%
D17*
%TO.P,H2,1,1_1*%
%TO.N,GND*%
X100850000Y-104500000D03*
X101333274Y-103333274D03*
X101333274Y-105666726D03*
X102500000Y-102850000D03*
D18*
X102500000Y-104500000D03*
D17*
X102500000Y-106150000D03*
X103666726Y-103333274D03*
X103666726Y-105666726D03*
X104150000Y-104500000D03*
%TD*%
D13*
%TO.P,C1,1*%
%TO.N,3.3V*%
X137800001Y-117937500D03*
%TO.P,C1,2*%
%TO.N,GND*%
X137799999Y-119662500D03*
%TD*%
D14*
%TO.P,R6,1*%
%TO.N,Net-(D1-Pad2)*%
X144400000Y-108512500D03*
%TO.P,R6,2*%
%TO.N,3.3V*%
X144400000Y-106687500D03*
%TD*%
D17*
%TO.P,H3,1,1_1*%
%TO.N,GND*%
X100850000Y-130500000D03*
X101333274Y-129333274D03*
X101333274Y-131666726D03*
X102500000Y-128850000D03*
D18*
X102500000Y-130500000D03*
D17*
X102500000Y-132150000D03*
X103666726Y-129333274D03*
X103666726Y-131666726D03*
X104150000Y-130500000D03*
%TD*%
D19*
%TO.P,D1,1,1_1*%
%TO.N,GND*%
X142999998Y-107500000D03*
%TO.P,D1,2,2_2*%
%TO.N,Net-(D1-Pad2)*%
X143000002Y-108500000D03*
%TD*%
D20*
%TO.P,U3,1,EN/UVLO_1*%
%TO.N,Net-(U3-EN{slash}UVLO)*%
X121925000Y-121200000D03*
D21*
%TO.P,U3,2,OVCSEL_2*%
%TO.N,Net-(U3-OVCSEL)*%
X121450000Y-121200000D03*
%TO.P,U3,3,PG_3*%
%TO.N,unconnected-(U3-PG-Pad3)*%
X121000000Y-121200000D03*
D20*
%TO.P,U3,4,PGTH_4*%
%TO.N,unconnected-(U3-PGTH-Pad4)*%
X120525000Y-121200000D03*
D22*
%TO.P,U3,5,IN_5*%
%TO.N,VBAT*%
X121225000Y-121850000D03*
%TO.P,U3,6,OUT_6*%
%TO.N,12V*%
X121225000Y-122350000D03*
D20*
%TO.P,U3,7,DVDT_1_7*%
%TO.N,Net-(U3-DVDT_1)*%
X120525000Y-123000000D03*
D21*
%TO.P,U3,8,GND_8*%
%TO.N,GND*%
X121000000Y-123000000D03*
%TO.P,U3,9,ILM_9*%
%TO.N,Net-(U3-ILM)*%
X121450000Y-123000000D03*
D20*
%TO.P,U3,10,ITIMER_1_10*%
%TO.N,Net-(U3-ITIMER_1)*%
X121925000Y-123000000D03*
D23*
%TO.P,U3,11,ITIMER_2_11*%
X122250000Y-122825000D03*
%TO.P,U3,12,EN/UVLO_2_12*%
%TO.N,Net-(U3-EN{slash}UVLO)*%
X122250000Y-121375000D03*
%TO.P,U3,13,PGTH_2_13*%
%TO.N,unconnected-(U3-PGTH-Pad4)*%
X120200000Y-121375000D03*
%TO.P,U3,14,DVDT_2_14*%
%TO.N,Net-(U3-DVDT_1)*%
X120200000Y-122825000D03*
%TD*%
D24*
%TO.P,L1,1,1_1*%
%TO.N,Net-(U4-SW)*%
X133600000Y-119800000D03*
%TO.P,L1,2,2_2*%
%TO.N,3.3V*%
X130600000Y-119800000D03*
%TD*%
D25*
%TO.P,C10,1*%
%TO.N,3.3V*%
X127399999Y-119662500D03*
%TO.P,C10,2*%
%TO.N,GND*%
X127400001Y-117937500D03*
%TD*%
D26*
%TO.P,J2,1,1_1*%
%TO.N,VBAT*%
X114000000Y-120799999D03*
%TO.P,J2,2,2_2*%
%TO.N,GND*%
X114000000Y-118600000D03*
%TO.P,J2,3,3_3*%
%TO.N,/CAN+*%
X114000000Y-116400000D03*
%TO.P,J2,4,4_4*%
%TO.N,/CAN-*%
X114000000Y-114200001D03*
D27*
%TO.P,J2,MH1,MH1_MH1*%
%TO.N,GND*%
X107900002Y-121499999D03*
%TO.P,J2,MH2,MH2_MH2*%
X107900000Y-113499999D03*
%TD*%
D26*
%TO.P,J1,1,1_1*%
%TO.N,GND*%
X141000000Y-114200001D03*
%TO.P,J1,2,2_2*%
%TO.N,Net-(D1-Pad2)*%
X141000000Y-116400000D03*
%TO.P,J1,3,3_3*%
%TO.N,GND*%
X141000000Y-118600000D03*
%TO.P,J1,4,4_4*%
%TO.N,12V*%
X141000000Y-120799999D03*
D27*
%TO.P,J1,MH1,MH1_MH1*%
%TO.N,GND*%
X147099999Y-113499997D03*
%TO.P,J1,MH2,MH2_MH2*%
X147099999Y-121500000D03*
%TD*%
D28*
%TO.P,LED2,1,K_1*%
%TO.N,GND*%
X153899998Y-126800000D03*
%TO.P,LED2,2,A_2*%
%TO.N,Net-(LED2-A)*%
X152400000Y-126800000D03*
%TD*%
D29*
%TO.P,R12,1*%
%TO.N,VBAT*%
X117600000Y-121787500D03*
%TO.P,R12,2*%
%TO.N,12V*%
X117600000Y-123612500D03*
%TD*%
D30*
%TO.P,D2,1,1_1*%
%TO.N,VBAT*%
X115600000Y-127900000D03*
%TO.P,D2,2,2_2*%
%TO.N,GND*%
X111200000Y-127900000D03*
%TD*%
D13*
%TO.P,C11,1*%
%TO.N,3.3V*%
X127400000Y-121600000D03*
%TO.P,C11,2*%
%TO.N,GND*%
X127399998Y-123325000D03*
%TD*%
D14*
%TO.P,R11,1*%
%TO.N,GND*%
X121250000Y-127275000D03*
%TO.P,R11,2*%
%TO.N,Net-(U3-ILM)*%
X121250000Y-125450000D03*
%TD*%
D31*
%TO.P,C9,1*%
%TO.N,12V*%
X131237500Y-127262500D03*
%TO.P,C9,2*%
%TO.N,GND*%
X132962500Y-127262500D03*
%TD*%
D32*
%TO.P,C6,1*%
%TO.N,VBAT*%
X114362500Y-131100001D03*
%TO.P,C6,2*%
%TO.N,GND*%
X112637500Y-131099999D03*
%TD*%
D29*
%TO.P,R8,1*%
%TO.N,Net-(U3-EN{slash}UVLO)*%
X124700000Y-119475000D03*
%TO.P,R8,2*%
%TO.N,VBAT*%
X124700000Y-121300000D03*
%TD*%
D33*
%TO.P,U4,1,FB_1*%
%TO.N,3.3V*%
X130800000Y-123500000D03*
%TO.P,U4,2,EN_2*%
%TO.N,12V*%
X130800000Y-124450000D03*
%TO.P,U4,3,VIN_3*%
X130800000Y-125400000D03*
%TO.P,U4,4,GND_4*%
%TO.N,GND*%
X133400000Y-125400000D03*
%TO.P,U4,5,SW_5*%
%TO.N,Net-(U4-SW)*%
X133400000Y-124450000D03*
%TO.P,U4,6,BST_6*%
%TO.N,Net-(U4-BST)*%
X133400000Y-123500000D03*
%TD*%
D34*
%TO.P,C23,1*%
%TO.N,Net-(U3-DVDT_1)*%
X119450000Y-125462500D03*
%TO.P,C23,2*%
%TO.N,GND*%
X119450000Y-127012500D03*
%TD*%
D13*
%TO.P,C7,1*%
%TO.N,12V*%
X124700002Y-122937500D03*
%TO.P,C7,2*%
%TO.N,GND*%
X124700000Y-124662500D03*
%TD*%
D35*
%TO.P,LED1,1,A_1*%
%TO.N,3.3V*%
X154349998Y-107626099D03*
%TO.P,LED1,2,R_2*%
%TO.N,Net-(LED1-R)*%
X153650001Y-107626099D03*
%TO.P,LED1,3,G_3*%
%TO.N,Net-(LED1-G)*%
X153650002Y-109073899D03*
%TO.P,LED1,4,B_4*%
%TO.N,Net-(LED1-B)*%
X154349999Y-109073899D03*
%TD*%
D16*
%TO.P,R9,1*%
%TO.N,Net-(U3-OVCSEL)*%
X121137500Y-118300000D03*
%TO.P,R9,2*%
%TO.N,Net-(U3-EN{slash}UVLO)*%
X122962500Y-118300000D03*
%TD*%
D36*
%TO.P,D3,1*%
%TO.N,/CAN-*%
X114899999Y-108850002D03*
%TO.P,D3,2*%
%TO.N,/CAN+*%
X114900001Y-110150003D03*
%TO.P,D3,3*%
%TO.N,GND*%
X117000000Y-109500000D03*
%TD*%
D37*
%TO.P,R18,1*%
%TO.N,3.3V*%
X147450002Y-126800000D03*
%TO.P,R18,2*%
%TO.N,Net-(LED2-A)*%
X149100000Y-126800000D03*
%TD*%
D15*
%TO.P,R15,1*%
%TO.N,Net-(LED1-G)*%
X148912500Y-106400000D03*
%TO.P,R15,2*%
%TO.N,Net-(U1-IO6)*%
X147087500Y-106400000D03*
%TD*%
D17*
%TO.P,H4,1,1_1*%
%TO.N,GND*%
X150850000Y-104500000D03*
X151333274Y-103333274D03*
X151333274Y-105666726D03*
X152500000Y-102850000D03*
D18*
X152500000Y-104500000D03*
D17*
X152500000Y-106150000D03*
X153666726Y-103333274D03*
X153666726Y-105666726D03*
X154150000Y-104500000D03*
%TD*%
D15*
%TO.P,R14,1*%
%TO.N,Net-(LED1-R)*%
X148912500Y-104400000D03*
%TO.P,R14,2*%
%TO.N,Net-(U1-IO7)*%
X147087500Y-104400000D03*
%TD*%
D32*
%TO.P,C3,1*%
%TO.N,Net-(U1-EN)*%
X137262500Y-127000001D03*
%TO.P,C3,2*%
%TO.N,GND*%
X135537500Y-126999999D03*
%TD*%
D13*
%TO.P,C8,1*%
%TO.N,Net-(U4-BST)*%
X135300002Y-123137500D03*
%TO.P,C8,2*%
%TO.N,Net-(U4-SW)*%
X135300000Y-124862500D03*
%TD*%
D38*
%TO.P,SW1,1,1_1*%
%TO.N,GND*%
X130200000Y-130200000D03*
%TO.P,SW1,2,2_2*%
%TO.N,Net-(U1-EN)*%
X138000000Y-130200000D03*
%TD*%
D14*
%TO.P,R5,1*%
%TO.N,GND*%
X106000000Y-108425000D03*
%TO.P,R5,2*%
%TO.N,Net-(U2-RS)*%
X106000000Y-106600000D03*
%TD*%
D17*
%TO.P,H1,1,1_1*%
%TO.N,GND*%
X150850000Y-130500000D03*
X151333274Y-129333274D03*
X151333274Y-131666726D03*
X152500000Y-128850000D03*
D18*
X152500000Y-130500000D03*
D17*
X152500000Y-132150000D03*
X153666726Y-129333274D03*
X153666726Y-131666726D03*
X154150000Y-130500000D03*
%TD*%
D14*
%TO.P,R3,1*%
%TO.N,/USB_D+*%
X126300000Y-127912500D03*
%TO.P,R3,2*%
%TO.N,Net-(U1-IO19)*%
X126300000Y-126087500D03*
%TD*%
%TO.P,R4,1*%
%TO.N,/USB_D-*%
X128100000Y-127912500D03*
%TO.P,R4,2*%
%TO.N,Net-(U1-IO18)*%
X128100000Y-126087500D03*
%TD*%
D34*
%TO.P,C24,1*%
%TO.N,Net-(U3-ITIMER_1)*%
X123000000Y-125487500D03*
%TO.P,C24,2*%
%TO.N,GND*%
X123000000Y-127037500D03*
%TD*%
D39*
%TO.P,U2,1,D_1*%
%TO.N,/CAN_TX*%
X113310999Y-107305000D03*
%TO.P,U2,2,GND_2*%
%TO.N,GND*%
X113310998Y-106034999D03*
%TO.P,U2,3,VCC_3*%
%TO.N,3.3V*%
X113311000Y-104765000D03*
%TO.P,U2,4,R_4*%
%TO.N,/CAN_RX*%
X113310999Y-103495001D03*
%TO.P,U2,5,VREF_5*%
%TO.N,unconnected-(U2-VREF-Pad5)*%
X107889001Y-103495000D03*
%TO.P,U2,6,CANL_6*%
%TO.N,/CAN-*%
X107889002Y-104765001D03*
%TO.P,U2,7,CANH_7*%
%TO.N,/CAN+*%
X107889000Y-106035000D03*
%TO.P,U2,8,RS_8*%
%TO.N,Net-(U2-RS)*%
X107889001Y-107304999D03*
%TD*%
D16*
%TO.P,R10,1*%
%TO.N,GND*%
X117187500Y-118300000D03*
%TO.P,R10,2*%
%TO.N,Net-(U3-OVCSEL)*%
X119012500Y-118300000D03*
%TD*%
D38*
%TO.P,SW2,1,1_1*%
%TO.N,GND*%
X148100000Y-130200000D03*
%TO.P,SW2,2,2_2*%
%TO.N,Net-(U1-IO9)*%
X140300000Y-130200000D03*
%TD*%
D13*
%TO.P,C5,1*%
%TO.N,3.3V*%
X116900001Y-104137500D03*
%TO.P,C5,2*%
%TO.N,GND*%
X116899999Y-105862500D03*
%TD*%
D40*
%TO.P,D-,1,1_1*%
%TO.N,/USB_D-*%
X126000000Y-131000000D03*
%TD*%
%TO.P,D+,1,1_1*%
%TO.N,/USB_D+*%
X122000000Y-131000000D03*
%TD*%
D41*
%TO.N,GND*%
X116100000Y-117000000D03*
X118600000Y-116800000D03*
X116800000Y-115200000D03*
X116700000Y-112800000D03*
X118200000Y-112800000D03*
X117000000Y-110400000D03*
X117000000Y-108600000D03*
X118200000Y-109500000D03*
%TO.N,3.3V*%
X130600000Y-119800000D03*
X142400000Y-106800000D03*
X152400000Y-111600000D03*
X116200000Y-104137500D03*
X152400000Y-108276099D03*
%TO.N,GND*%
X128900000Y-129000000D03*
X122400000Y-114500000D03*
X141600000Y-112200000D03*
X127500000Y-115600000D03*
X123600000Y-110100000D03*
X124000000Y-130300000D03*
X127500000Y-114700000D03*
X125000000Y-114900000D03*
X128500000Y-123400000D03*
X125100000Y-115900000D03*
X123800000Y-113500000D03*
X140700000Y-112200000D03*
X123500000Y-128700000D03*
X117187500Y-118300000D03*
X135900000Y-120700000D03*
X128100000Y-109100000D03*
X127000000Y-108000000D03*
X127000000Y-110200000D03*
X102900000Y-126600000D03*
X102300000Y-109300000D03*
X122700000Y-129100000D03*
X127500000Y-117300000D03*
X111700000Y-131100000D03*
X127500000Y-116400000D03*
X107500000Y-128100000D03*
X125100000Y-111600000D03*
X128100000Y-108000000D03*
X124300000Y-110800000D03*
X117900000Y-105800000D03*
X120725000Y-124000000D03*
X106500000Y-128100000D03*
X127800000Y-130200000D03*
X153899998Y-126800000D03*
X125200000Y-117900000D03*
X137900000Y-120500000D03*
X123000000Y-112800000D03*
X134900000Y-119600000D03*
X137900000Y-121200000D03*
X128300000Y-117000000D03*
X125200000Y-128700000D03*
X127000000Y-109100000D03*
X128100000Y-110200000D03*
X129300000Y-128200000D03*
X124300000Y-128700000D03*
X109700000Y-127900000D03*
X122300000Y-112100000D03*
X126700000Y-113200000D03*
X102800000Y-108500000D03*
X125900000Y-112400000D03*
X127300000Y-113900000D03*
X122900000Y-115400000D03*
X122900000Y-109400000D03*
X121700000Y-111500000D03*
X103400000Y-125900000D03*
X124100000Y-115400000D03*
X101700000Y-108500000D03*
X111200000Y-129500000D03*
X114500000Y-105634999D03*
X123500000Y-114500000D03*
X128300000Y-116100000D03*
X107000000Y-128800000D03*
X125100000Y-117000000D03*
X122400000Y-108900000D03*
X128400000Y-129600000D03*
X128300000Y-115200000D03*
X124400000Y-114200000D03*
X116100000Y-105862500D03*
X102400000Y-125900000D03*
%TO.N,Net-(U1-IO5)*%
X146100000Y-108500000D03*
X135500000Y-110800000D03*
%TO.N,12V*%
X130000000Y-124462500D03*
X130800000Y-124462500D03*
X129200000Y-124462500D03*
%TO.N,Net-(U1-IO6)*%
X146100000Y-106400000D03*
X135500000Y-109300000D03*
%TO.N,Net-(U1-IO7)*%
X135500000Y-107800000D03*
X146100000Y-104400000D03*
%TO.N,Net-(U1-IO18)*%
X121100000Y-107800000D03*
X128100000Y-125300000D03*
%TO.N,Net-(U1-IO19)*%
X126300000Y-125300000D03*
X121100000Y-109300000D03*
%TD*%
%TO.N,Net-(U1-IO3)*%
D42*
X118300002Y-110799998D02*
X117400000Y-111700000D01*
X119750000Y-110799998D02*
X118300002Y-110799998D01*
%TO.N,Net-(U1-IO1)*%
X119750000Y-113799998D02*
X117600002Y-113799998D01*
X117600002Y-113799998D02*
X117400000Y-114000000D01*
%TO.N,Net-(U1-IO0)*%
X118400004Y-115299996D02*
X117400000Y-116300000D01*
X119750000Y-115299996D02*
X118400004Y-115299996D01*
%TO.N,3.3V*%
D43*
X128800000Y-121600000D02*
X130600000Y-119800000D01*
X135890000Y-116659999D02*
X137250001Y-115299998D01*
D42*
X154349998Y-107626099D02*
X154349998Y-108154699D01*
D43*
X130600000Y-119800000D02*
X135100002Y-115299998D01*
D42*
X154349998Y-108154699D02*
X154228598Y-108276099D01*
D43*
X144287500Y-106800000D02*
X144400000Y-106687500D01*
D44*
X137024999Y-122724999D02*
X137024999Y-119072499D01*
D43*
X135100002Y-115299998D02*
X137250001Y-115299998D01*
D44*
X137400000Y-123100000D02*
X137024999Y-122724999D01*
X137024999Y-119072499D02*
X135890000Y-117937500D01*
D43*
X127399999Y-119662500D02*
X130462500Y-119662500D01*
X127400000Y-121600000D02*
X128800000Y-121600000D01*
D45*
X147450002Y-126549998D02*
X152400000Y-121600000D01*
X147450002Y-126800000D02*
X147450002Y-126549998D01*
D43*
X137800001Y-117937500D02*
X137800001Y-115849998D01*
X141462500Y-106800000D02*
X142400000Y-106800000D01*
X113311000Y-104765000D02*
X113711000Y-104365000D01*
X142400000Y-106800000D02*
X144287500Y-106800000D01*
X130462500Y-119662500D02*
X130600000Y-119800000D01*
X130600000Y-119800000D02*
X130600000Y-123312500D01*
X115400001Y-104137500D02*
X116200000Y-104137500D01*
X137800001Y-115849998D02*
X137250001Y-115299998D01*
X115172501Y-104365000D02*
X115400001Y-104137500D01*
X130600000Y-123312500D02*
X130800000Y-123512500D01*
X135890000Y-117937500D02*
X135890000Y-116659999D01*
D45*
X152400000Y-121600000D02*
X152400000Y-111600000D01*
D43*
X116200000Y-104137500D02*
X116900001Y-104137500D01*
D42*
X154228598Y-108276099D02*
X152400000Y-108276099D01*
D43*
X113711000Y-104365000D02*
X115172501Y-104365000D01*
%TO.N,GND*%
D42*
X121250000Y-127275000D02*
X119712500Y-127275000D01*
D43*
X132962500Y-127262500D02*
X132962500Y-125850000D01*
D42*
X124700000Y-124662500D02*
X124700000Y-125337500D01*
D45*
X121000000Y-123725000D02*
X121000000Y-123000000D01*
D44*
X135537500Y-126999999D02*
X133225001Y-126999999D01*
D43*
X116899999Y-105862500D02*
X116100000Y-105862500D01*
D45*
X120725000Y-124000000D02*
X120250000Y-124475000D01*
X120250000Y-124475000D02*
X120250000Y-126275000D01*
D43*
X113710998Y-105634999D02*
X114500000Y-105634999D01*
X117837500Y-105862500D02*
X117900000Y-105800000D01*
X116100000Y-105862500D02*
X115399999Y-105862500D01*
X116899999Y-105862500D02*
X117837500Y-105862500D01*
X113310998Y-106034999D02*
X113710998Y-105634999D01*
X108500000Y-113400000D02*
X108500000Y-115600000D01*
D44*
X133225001Y-126999999D02*
X132962500Y-127262500D01*
D42*
X119712500Y-127275000D02*
X119450000Y-127012500D01*
D43*
X115172498Y-105634999D02*
X115399999Y-105862500D01*
D45*
X120725000Y-124000000D02*
X121000000Y-123725000D01*
D43*
X132962500Y-125850000D02*
X133400000Y-125412500D01*
D45*
X120250000Y-126275000D02*
X121250000Y-127275000D01*
D42*
X123000000Y-127037500D02*
X121487500Y-127037500D01*
D43*
X109300000Y-112600000D02*
X108500000Y-113400000D01*
D42*
X124700000Y-125337500D02*
X123000000Y-127037500D01*
X121487500Y-127037500D02*
X121250000Y-127275000D01*
D43*
X114500000Y-105634999D02*
X115172498Y-105634999D01*
%TO.N,Net-(U1-EN)*%
D44*
X138800000Y-127000000D02*
X138800000Y-125200000D01*
X138800000Y-125200000D02*
X138800000Y-124900000D01*
X138775000Y-124925000D02*
X138800000Y-124900000D01*
X138800000Y-124900000D02*
X138800000Y-115000000D01*
X138800000Y-129400000D02*
X138800000Y-127000000D01*
X138800000Y-115000000D02*
X137599998Y-113799998D01*
X138000000Y-130200000D02*
X138800000Y-129400000D01*
X137600000Y-127000000D02*
X138800000Y-127000000D01*
X137400000Y-124925000D02*
X138775000Y-124925000D01*
X137599998Y-113799998D02*
X137250000Y-113799998D01*
%TO.N,Net-(LED1-B)*%
D42*
X149700000Y-108500000D02*
X151400000Y-110200000D01*
X154349999Y-109450001D02*
X154349999Y-109073899D01*
X148912500Y-108500000D02*
X149700000Y-108500000D01*
X153600000Y-110200000D02*
X154349999Y-109450001D01*
X151400000Y-110200000D02*
X153600000Y-110200000D01*
%TO.N,Net-(U1-IO5)*%
D45*
X137249997Y-110800000D02*
X137249999Y-110799998D01*
X147087500Y-108500000D02*
X146100000Y-108500000D01*
X135500000Y-110800000D02*
X137249997Y-110800000D01*
%TO.N,Net-(U1-IO9)*%
D44*
X140300000Y-130200000D02*
X139400000Y-129300000D01*
X139400000Y-112007105D02*
X140475000Y-110932105D01*
X140475000Y-107724996D02*
X137550002Y-104799997D01*
X139400000Y-129300000D02*
X139400000Y-112007105D01*
X140475000Y-110932105D02*
X140475000Y-107724996D01*
X137550002Y-104799997D02*
X137250002Y-104799997D01*
%TO.N,Net-(D1-Pad2)*%
D43*
X143000002Y-108500000D02*
X141612500Y-108500000D01*
X141612500Y-108500000D02*
X141512500Y-108600000D01*
X143000002Y-108500000D02*
X143000002Y-114399998D01*
X144400000Y-108512500D02*
X143012502Y-108512500D01*
X143000002Y-114399998D02*
X141000000Y-116400000D01*
X143012502Y-108512500D02*
X143000002Y-108500000D01*
%TO.N,/Eth_inp*%
X138400000Y-112299998D02*
X137250000Y-112299998D01*
X139687500Y-108600000D02*
X139687500Y-111012498D01*
X139687500Y-111012498D02*
X138400000Y-112299998D01*
%TO.N,Net-(U3-EN{slash}UVLO)*%
D45*
X123525000Y-118300000D02*
X122962500Y-118300000D01*
X122350000Y-121200000D02*
X121925000Y-121200000D01*
X124075000Y-119475000D02*
X122350000Y-121200000D01*
X124700000Y-119475000D02*
X123525000Y-118300000D01*
X124700000Y-119475000D02*
X124075000Y-119475000D01*
%TO.N,Net-(U3-OVCSEL)*%
X119012500Y-118300000D02*
X121137500Y-118300000D01*
X121450000Y-121200000D02*
X121450000Y-118612500D01*
X121450000Y-118612500D02*
X121137500Y-118300000D01*
%TO.N,VBAT*%
D42*
X123700000Y-121850000D02*
X124250000Y-121300000D01*
D43*
X115600000Y-129862501D02*
X114362500Y-131100001D01*
X115000001Y-121800000D02*
X117900000Y-121800000D01*
X115600000Y-127900000D02*
X115600000Y-129862501D01*
D42*
X121225000Y-121850000D02*
X123700000Y-121850000D01*
X124250000Y-121300000D02*
X124700000Y-121300000D01*
D43*
X115600000Y-122399999D02*
X115600000Y-127900000D01*
X114000000Y-120799999D02*
X115600000Y-122399999D01*
D42*
X117950000Y-121850000D02*
X117900000Y-121800000D01*
X121225000Y-121850000D02*
X117950000Y-121850000D01*
D43*
X114000000Y-120799999D02*
X115000001Y-121800000D01*
%TO.N,12V*%
X130000000Y-124462500D02*
X130800000Y-124462500D01*
D42*
X124700002Y-122937500D02*
X124250002Y-122937500D01*
D43*
X131237500Y-127262500D02*
X131237500Y-125850000D01*
D42*
X123662502Y-122350000D02*
X121225000Y-122350000D01*
D43*
X129200000Y-124462500D02*
X130000000Y-124462500D01*
X129200000Y-124462500D02*
X126225002Y-124462500D01*
D42*
X124250002Y-122937500D02*
X123662502Y-122350000D01*
D43*
X131237500Y-125850000D02*
X130800000Y-125412500D01*
X126225002Y-124462500D02*
X124700002Y-122937500D01*
D42*
X118862500Y-122350000D02*
X117600000Y-123612500D01*
D43*
X124700002Y-122937500D02*
X124737500Y-122900002D01*
X130800000Y-124462500D02*
X130800000Y-125412500D01*
D42*
X121225000Y-122350000D02*
X118862500Y-122350000D01*
%TO.N,Net-(U3-DVDT_1)*%
D45*
X119450000Y-124075000D02*
X119450000Y-125462500D01*
X120525000Y-123000000D02*
X119450000Y-124075000D01*
%TO.N,Net-(U3-ILM)*%
X121450000Y-123000000D02*
X121450000Y-125250000D01*
X121450000Y-125250000D02*
X121250000Y-125450000D01*
%TO.N,Net-(U3-ITIMER_1)*%
X121925000Y-123000000D02*
X121925000Y-124412500D01*
X121925000Y-124412500D02*
X123000000Y-125487500D01*
%TO.N,Net-(U4-SW)*%
D43*
X132200000Y-122800000D02*
X132200000Y-123800000D01*
X132200000Y-123800000D02*
X132862500Y-124462500D01*
X132862500Y-124462500D02*
X133400000Y-124462500D01*
X133600000Y-121400000D02*
X132200000Y-122800000D01*
X134600000Y-124862500D02*
X134200000Y-124462500D01*
X133600000Y-119800000D02*
X133600000Y-121400000D01*
X134200000Y-124462500D02*
X133400000Y-124462500D01*
X134600000Y-124862500D02*
X135300000Y-124862500D01*
%TO.N,/CAN+*%
D44*
X112725000Y-115125000D02*
X114000000Y-116400000D01*
X113550003Y-110150003D02*
X114900001Y-110150003D01*
X108289000Y-106035000D02*
X109435000Y-106035000D01*
X112725000Y-112325004D02*
X112725000Y-115125000D01*
X114900001Y-110150003D02*
X112725000Y-112325004D01*
X109435000Y-106035000D02*
X113550003Y-110150003D01*
%TO.N,/CAN-*%
X114499999Y-114200001D02*
X114000000Y-114200001D01*
X109065001Y-104765001D02*
X108289002Y-104765001D01*
X114899999Y-108850002D02*
X115800000Y-109750003D01*
X115352000Y-111910743D02*
X115568000Y-111910743D01*
X114899999Y-108850002D02*
X113150002Y-108850002D01*
X115800000Y-109750003D02*
X115800000Y-111098743D01*
X115800000Y-112258743D02*
X115800000Y-112806750D01*
X115800000Y-112806750D02*
X115800000Y-112900000D01*
X115800000Y-112142743D02*
X115800000Y-112258743D01*
X115120000Y-111562743D02*
X115120000Y-111678743D01*
X115800000Y-112900000D02*
X114499999Y-114200001D01*
X115568000Y-111330743D02*
X115352000Y-111330743D01*
X113150002Y-108850002D02*
X109065001Y-104765001D01*
X115352000Y-111330743D02*
G75*
G03*
X115120043Y-111562743I0J-231957D01*
G01*
X115568000Y-111910743D02*
G75*
G02*
X115799957Y-112142743I0J-231957D01*
G01*
X115120000Y-111678743D02*
G75*
G03*
X115352000Y-111910700I232000J43D01*
G01*
X115800000Y-111098743D02*
G75*
G02*
X115568000Y-111330700I-232000J43D01*
G01*
%TO.N,Net-(LED2-A)*%
D43*
X149100000Y-126800000D02*
X152400000Y-126800000D01*
%TO.N,Net-(U1-IO6)*%
D45*
X147087500Y-106400000D02*
X146100000Y-106400000D01*
X137249998Y-109300000D02*
X137250000Y-109299998D01*
X135500000Y-109300000D02*
X137249998Y-109300000D01*
%TO.N,Net-(U1-IO7)*%
X135500000Y-107800000D02*
X137249998Y-107800000D01*
X137249998Y-107800000D02*
X137250000Y-107799998D01*
X147087500Y-104400000D02*
X146100000Y-104400000D01*
%TO.N,/CAN_RX*%
D42*
X118937432Y-104799999D02*
X119750001Y-104799999D01*
X113904999Y-103495001D02*
X114400000Y-103000000D01*
X117137433Y-103000000D02*
X118937432Y-104799999D01*
X113310999Y-103495001D02*
X113904999Y-103495001D01*
X114400000Y-103000000D02*
X117137433Y-103000000D01*
%TO.N,/CAN_TX*%
X119750000Y-106299999D02*
X118700000Y-106299999D01*
X117694999Y-107305000D02*
X113710999Y-107305000D01*
X119262500Y-106250000D02*
X119212500Y-106200000D01*
X118700000Y-106299999D02*
X117694999Y-107305000D01*
%TO.N,Net-(U1-IO18)*%
D44*
X128100000Y-126087500D02*
X128100000Y-125300000D01*
X121099998Y-107799998D02*
X121100000Y-107800000D01*
X119750000Y-107799998D02*
X121099998Y-107799998D01*
%TO.N,Net-(U1-IO19)*%
X126300000Y-126087500D02*
X126300000Y-125300000D01*
X119750000Y-109299998D02*
X121099998Y-109299998D01*
X121099998Y-109299998D02*
X121100000Y-109300000D01*
%TO.N,Net-(U4-BST)*%
D43*
X133400000Y-123512500D02*
X134087500Y-123512500D01*
X134087500Y-123512500D02*
X134462500Y-123137500D01*
X134462500Y-123137500D02*
X135300002Y-123137500D01*
%TO.N,Net-(LED1-R)*%
D42*
X151663599Y-107626099D02*
X153650001Y-107626099D01*
X148912500Y-104400000D02*
X148912500Y-104875000D01*
X148912500Y-104875000D02*
X151663599Y-107626099D01*
%TO.N,Net-(LED1-G)*%
X151673899Y-109073899D02*
X149000000Y-106400000D01*
X149000000Y-106400000D02*
X148912500Y-106400000D01*
X153650002Y-109073899D02*
X151673899Y-109073899D01*
%TO.N,/USB_D+*%
D43*
X126300000Y-127912500D02*
X126287500Y-127912500D01*
D44*
X125600000Y-129500000D02*
X126300000Y-128800000D01*
X123500000Y-129500000D02*
X125600000Y-129500000D01*
X122000000Y-131000000D02*
X123500000Y-129500000D01*
X126300000Y-128800000D02*
X126300000Y-127912500D01*
%TO.N,Net-(U2-RS)*%
D42*
X107489001Y-107304999D02*
X106704999Y-107304999D01*
X106704999Y-107304999D02*
X106000000Y-106600000D01*
%TO.N,/USB_D-*%
D44*
X126000000Y-131000000D02*
X128100000Y-128900000D01*
X128100000Y-128900000D02*
X128100000Y-127912500D01*
%TD*%
%TA.AperFunction,Conductor*%
%TO.N,GND*%
G36*
X106878654Y-102520185D02*
G01*
X106924409Y-102572989D01*
X106934353Y-102642147D01*
X106905328Y-102705703D01*
X106885926Y-102723767D01*
X106882671Y-102726203D01*
X106882670Y-102726204D01*
X106767455Y-102812454D01*
X106767454Y-102812455D01*
X106767453Y-102812456D01*
X106681207Y-102927664D01*
X106681203Y-102927671D01*
X106635579Y-103049998D01*
X106630910Y-103062517D01*
X106624501Y-103122127D01*
X106624501Y-103122134D01*
X106624501Y-103122135D01*
X106624501Y-103867870D01*
X106624502Y-103867876D01*
X106630909Y-103927483D01*
X106681203Y-104062328D01*
X106685453Y-104070110D01*
X106682270Y-104071848D01*
X106700655Y-104121216D01*
X106685770Y-104189481D01*
X106685155Y-104190437D01*
X106681204Y-104197672D01*
X106630912Y-104332514D01*
X106630911Y-104332518D01*
X106624502Y-104392128D01*
X106624502Y-104392135D01*
X106624502Y-104392136D01*
X106624502Y-105137871D01*
X106624503Y-105137877D01*
X106630910Y-105197484D01*
X106681204Y-105332329D01*
X106685456Y-105340115D01*
X106684341Y-105340723D01*
X106686464Y-105342920D01*
X106690845Y-105364878D01*
X106700653Y-105391215D01*
X106698674Y-105404117D01*
X106700135Y-105411439D01*
X106694904Y-105428700D01*
X106692335Y-105445451D01*
X106686223Y-105460963D01*
X106681204Y-105467669D01*
X106638956Y-105580940D01*
X106638532Y-105582018D01*
X106617737Y-105608761D01*
X106597472Y-105635833D01*
X106596368Y-105636244D01*
X106595644Y-105637176D01*
X106563714Y-105648424D01*
X106532008Y-105660250D01*
X106530632Y-105660078D01*
X106529744Y-105660391D01*
X106525954Y-105659493D01*
X106484159Y-105654272D01*
X106387753Y-105622326D01*
X106387751Y-105622325D01*
X106286678Y-105612000D01*
X105713330Y-105612000D01*
X105713312Y-105612001D01*
X105612247Y-105622325D01*
X105448484Y-105676592D01*
X105448481Y-105676593D01*
X105301648Y-105767161D01*
X105179661Y-105889148D01*
X105089093Y-106035981D01*
X105089091Y-106035986D01*
X105070992Y-106090606D01*
X105034826Y-106199747D01*
X105034826Y-106199748D01*
X105034825Y-106199748D01*
X105024500Y-106300815D01*
X105024500Y-106899169D01*
X105024501Y-106899187D01*
X105034825Y-107000252D01*
X105051309Y-107049996D01*
X105086569Y-107156403D01*
X105089092Y-107164015D01*
X105089093Y-107164018D01*
X105115385Y-107206644D01*
X105168533Y-107292811D01*
X105179661Y-107310851D01*
X105293982Y-107425172D01*
X105327467Y-107486495D01*
X105322483Y-107556187D01*
X105293983Y-107600534D01*
X105180052Y-107714465D01*
X105089551Y-107861188D01*
X105089546Y-107861199D01*
X105035319Y-108024847D01*
X105025000Y-108125845D01*
X105025000Y-108175000D01*
X106974998Y-108175000D01*
X106983330Y-108166668D01*
X107044653Y-108133182D01*
X107073807Y-108130841D01*
X107073807Y-108130499D01*
X107077127Y-108130498D01*
X107077128Y-108130499D01*
X108700873Y-108130498D01*
X108760484Y-108124090D01*
X108895332Y-108073795D01*
X109010547Y-107987545D01*
X109096797Y-107872330D01*
X109147092Y-107737482D01*
X109153501Y-107677872D01*
X109153500Y-106932127D01*
X109153007Y-106927545D01*
X109151394Y-106912538D01*
X109163798Y-106843778D01*
X109211407Y-106792640D01*
X109279106Y-106775359D01*
X109345401Y-106797422D01*
X109362364Y-106811599D01*
X113065142Y-110514377D01*
X113065152Y-110514388D01*
X113069482Y-110518718D01*
X113069483Y-110518719D01*
X113181287Y-110630523D01*
X113237854Y-110663181D01*
X113268098Y-110680642D01*
X113268100Y-110680644D01*
X113287928Y-110692092D01*
X113336143Y-110742659D01*
X113349365Y-110811266D01*
X113323397Y-110876131D01*
X113313608Y-110887159D01*
X112356286Y-111844482D01*
X112244481Y-111956286D01*
X112244479Y-111956289D01*
X112194361Y-112043098D01*
X112194359Y-112043100D01*
X112165425Y-112093213D01*
X112165424Y-112093214D01*
X112165423Y-112093219D01*
X112124499Y-112245947D01*
X112124499Y-112245949D01*
X112124499Y-112414050D01*
X112124500Y-112414063D01*
X112124500Y-115038330D01*
X112124499Y-115038348D01*
X112124499Y-115204054D01*
X112124498Y-115204054D01*
X112136656Y-115249427D01*
X112165423Y-115356785D01*
X112165424Y-115356787D01*
X112165423Y-115356787D01*
X112172471Y-115368993D01*
X112172472Y-115368994D01*
X112244477Y-115493712D01*
X112244481Y-115493717D01*
X112363349Y-115612585D01*
X112363355Y-115612590D01*
X112567040Y-115816275D01*
X112600525Y-115877598D01*
X112597290Y-115942274D01*
X112560831Y-116054482D01*
X112560831Y-116054485D01*
X112524500Y-116283870D01*
X112524500Y-116516129D01*
X112560831Y-116745514D01*
X112632601Y-116966400D01*
X112697174Y-117093129D01*
X112738039Y-117173331D01*
X112874551Y-117361224D01*
X113038776Y-117525449D01*
X113226669Y-117661961D01*
X113316366Y-117707664D01*
X113433603Y-117767400D01*
X113433609Y-117767402D01*
X113491591Y-117786241D01*
X113534682Y-117800242D01*
X113584046Y-117830492D01*
X113752512Y-117998958D01*
X113692110Y-118023978D01*
X113585649Y-118095112D01*
X113495112Y-118185649D01*
X113423978Y-118292110D01*
X113398958Y-118352511D01*
X112795238Y-117748791D01*
X112795237Y-117748791D01*
X112738470Y-117826925D01*
X112633065Y-118033794D01*
X112561318Y-118254606D01*
X112525000Y-118483909D01*
X112525000Y-118716090D01*
X112561318Y-118945393D01*
X112633065Y-119166205D01*
X112738465Y-119373064D01*
X112795238Y-119451207D01*
X113398958Y-118847487D01*
X113423978Y-118907890D01*
X113495112Y-119014351D01*
X113585649Y-119104888D01*
X113692110Y-119176022D01*
X113752510Y-119201041D01*
X113584046Y-119369505D01*
X113534685Y-119399754D01*
X113433609Y-119432597D01*
X113433606Y-119432598D01*
X113433604Y-119432599D01*
X113339197Y-119480702D01*
X113226668Y-119538038D01*
X113038773Y-119674552D01*
X112874553Y-119838772D01*
X112738039Y-120026667D01*
X112632601Y-120233598D01*
X112560831Y-120454484D01*
X112524500Y-120683869D01*
X112524500Y-120916128D01*
X112560831Y-121145513D01*
X112632601Y-121366399D01*
X112700675Y-121500000D01*
X112738039Y-121573330D01*
X112874551Y-121761223D01*
X113038776Y-121925448D01*
X113226669Y-122061960D01*
X113297317Y-122097957D01*
X113433599Y-122167397D01*
X113433601Y-122167397D01*
X113433604Y-122167399D01*
X113654486Y-122239168D01*
X113772668Y-122257885D01*
X113883871Y-122275499D01*
X113883876Y-122275499D01*
X114116129Y-122275499D01*
X114247699Y-122254660D01*
X114345514Y-122239168D01*
X114350977Y-122237392D01*
X114420815Y-122235392D01*
X114476984Y-122267640D01*
X114863181Y-122653837D01*
X114896666Y-122715160D01*
X114899500Y-122741518D01*
X114899500Y-126200500D01*
X114879815Y-126267539D01*
X114827011Y-126313294D01*
X114775500Y-126324500D01*
X114452130Y-126324500D01*
X114452123Y-126324501D01*
X114392516Y-126330908D01*
X114257671Y-126381202D01*
X114257664Y-126381206D01*
X114142455Y-126467452D01*
X114142452Y-126467455D01*
X114056206Y-126582664D01*
X114056202Y-126582671D01*
X114005908Y-126717517D01*
X114000300Y-126769684D01*
X113999501Y-126777123D01*
X113999500Y-126777135D01*
X113999500Y-129022870D01*
X113999501Y-129022876D01*
X114005908Y-129082483D01*
X114056202Y-129217328D01*
X114056206Y-129217335D01*
X114142452Y-129332544D01*
X114142455Y-129332547D01*
X114257664Y-129418793D01*
X114257671Y-129418797D01*
X114302618Y-129435561D01*
X114392517Y-129469091D01*
X114452127Y-129475500D01*
X114696983Y-129475499D01*
X114764021Y-129495183D01*
X114809776Y-129547987D01*
X114819720Y-129617146D01*
X114790695Y-129680701D01*
X114784663Y-129687180D01*
X114383660Y-130088182D01*
X114322337Y-130121667D01*
X114295979Y-130124501D01*
X114013331Y-130124501D01*
X114013312Y-130124502D01*
X113912247Y-130134826D01*
X113748484Y-130189093D01*
X113748481Y-130189094D01*
X113601648Y-130279662D01*
X113587326Y-130293984D01*
X113526002Y-130327468D01*
X113456310Y-130322482D01*
X113411966Y-130293982D01*
X113398038Y-130280054D01*
X113398034Y-130280051D01*
X113251311Y-130189550D01*
X113251300Y-130189545D01*
X113087652Y-130135318D01*
X112986654Y-130124999D01*
X112887500Y-130124999D01*
X112887500Y-132074998D01*
X112986640Y-132074998D01*
X112986654Y-132074997D01*
X113087652Y-132064679D01*
X113251300Y-132010452D01*
X113251311Y-132010447D01*
X113398035Y-131919946D01*
X113411959Y-131906021D01*
X113473281Y-131872533D01*
X113542972Y-131877514D01*
X113587326Y-131906017D01*
X113601650Y-131920341D01*
X113748484Y-132010909D01*
X113912247Y-132065175D01*
X114013323Y-132075501D01*
X114711676Y-132075500D01*
X114711684Y-132075499D01*
X114711687Y-132075499D01*
X114767030Y-132069845D01*
X114812753Y-132065175D01*
X114976516Y-132010909D01*
X115123350Y-131920341D01*
X115245340Y-131798351D01*
X115335908Y-131651517D01*
X115390174Y-131487754D01*
X115400500Y-131386678D01*
X115400499Y-131104018D01*
X115420183Y-131036980D01*
X115436813Y-131016343D01*
X116144114Y-130309044D01*
X116174819Y-130263088D01*
X116220775Y-130194312D01*
X116273580Y-130066829D01*
X116300500Y-129931494D01*
X116300500Y-129599499D01*
X116320185Y-129532460D01*
X116372989Y-129486705D01*
X116424500Y-129475499D01*
X116747871Y-129475499D01*
X116747872Y-129475499D01*
X116807483Y-129469091D01*
X116942331Y-129418796D01*
X117057546Y-129332546D01*
X117143796Y-129217331D01*
X117194091Y-129082483D01*
X117200500Y-129022873D01*
X117200499Y-127285822D01*
X118475001Y-127285822D01*
X118485144Y-127385107D01*
X118538452Y-127545981D01*
X118538457Y-127545992D01*
X118627424Y-127690228D01*
X118627427Y-127690232D01*
X118747267Y-127810072D01*
X118747271Y-127810075D01*
X118891507Y-127899042D01*
X118891518Y-127899047D01*
X119052393Y-127952355D01*
X119151683Y-127962499D01*
X119199999Y-127962498D01*
X119200000Y-127962498D01*
X119200000Y-127262500D01*
X118475001Y-127262500D01*
X118475001Y-127285822D01*
X117200499Y-127285822D01*
X117200499Y-126777128D01*
X117194091Y-126717517D01*
X117191730Y-126711188D01*
X117143797Y-126582671D01*
X117143793Y-126582664D01*
X117057547Y-126467455D01*
X117057544Y-126467452D01*
X116942335Y-126381206D01*
X116942328Y-126381202D01*
X116807482Y-126330908D01*
X116807483Y-126330908D01*
X116747883Y-126324501D01*
X116747881Y-126324500D01*
X116747873Y-126324500D01*
X116747865Y-126324500D01*
X116424500Y-126324500D01*
X116357461Y-126304815D01*
X116311706Y-126252011D01*
X116300500Y-126200500D01*
X116300500Y-122624500D01*
X116320185Y-122557461D01*
X116372989Y-122511706D01*
X116424500Y-122500500D01*
X116730448Y-122500500D01*
X116797487Y-122520185D01*
X116818129Y-122536819D01*
X116893629Y-122612319D01*
X116927114Y-122673642D01*
X116922130Y-122743334D01*
X116893629Y-122787681D01*
X116779661Y-122901648D01*
X116689093Y-123048481D01*
X116689091Y-123048486D01*
X116666111Y-123117835D01*
X116634826Y-123212247D01*
X116634826Y-123212248D01*
X116634825Y-123212248D01*
X116624500Y-123313315D01*
X116624500Y-123911669D01*
X116624501Y-123911687D01*
X116634825Y-124012752D01*
X116689092Y-124176515D01*
X116689093Y-124176518D01*
X116711193Y-124212347D01*
X116779660Y-124323350D01*
X116901650Y-124445340D01*
X117048484Y-124535908D01*
X117212247Y-124590174D01*
X117313323Y-124600500D01*
X117886676Y-124600499D01*
X117886684Y-124600498D01*
X117886687Y-124600498D01*
X117962241Y-124592780D01*
X117987753Y-124590174D01*
X118151516Y-124535908D01*
X118298350Y-124445340D01*
X118420340Y-124323350D01*
X118510908Y-124176516D01*
X118565174Y-124012753D01*
X118575500Y-123911677D01*
X118575499Y-123608306D01*
X118595183Y-123541268D01*
X118611813Y-123520631D01*
X119095627Y-123036819D01*
X119156950Y-123003334D01*
X119183308Y-123000500D01*
X119340546Y-123000500D01*
X119407585Y-123020185D01*
X119453340Y-123072989D01*
X119463284Y-123142147D01*
X119434259Y-123205703D01*
X119428227Y-123212181D01*
X119051269Y-123589140D01*
X118964144Y-123676264D01*
X118964138Y-123676272D01*
X118895692Y-123778705D01*
X118895684Y-123778720D01*
X118862346Y-123859207D01*
X118858294Y-123868994D01*
X118848537Y-123892549D01*
X118832038Y-123975499D01*
X118831377Y-123978821D01*
X118831369Y-123978853D01*
X118824500Y-124013389D01*
X118824500Y-124547495D01*
X118804815Y-124614534D01*
X118765600Y-124653032D01*
X118746954Y-124664533D01*
X118627029Y-124784459D01*
X118538001Y-124928794D01*
X118537996Y-124928805D01*
X118484651Y-125089790D01*
X118474500Y-125189147D01*
X118474500Y-125735837D01*
X118474501Y-125735855D01*
X118484650Y-125835207D01*
X118484651Y-125835210D01*
X118537996Y-125996194D01*
X118538001Y-125996205D01*
X118627029Y-126140540D01*
X118627032Y-126140544D01*
X118636660Y-126150172D01*
X118670145Y-126211495D01*
X118665161Y-126281187D01*
X118636663Y-126325531D01*
X118627428Y-126334765D01*
X118627424Y-126334771D01*
X118538457Y-126479007D01*
X118538452Y-126479018D01*
X118485144Y-126639893D01*
X118475000Y-126739177D01*
X118475000Y-126762500D01*
X119326000Y-126762500D01*
X119393039Y-126782185D01*
X119438794Y-126834989D01*
X119450000Y-126886500D01*
X119450000Y-127012500D01*
X119576000Y-127012500D01*
X119643039Y-127032185D01*
X119688794Y-127084989D01*
X119700000Y-127136500D01*
X119700000Y-127962499D01*
X119748308Y-127962499D01*
X119748322Y-127962498D01*
X119847607Y-127952355D01*
X120008481Y-127899047D01*
X120008492Y-127899042D01*
X120152729Y-127810074D01*
X120157090Y-127806627D01*
X120221885Y-127780485D01*
X120290527Y-127793523D01*
X120339541Y-127838794D01*
X120430052Y-127985534D01*
X120430055Y-127985538D01*
X120551961Y-128107444D01*
X120551965Y-128107447D01*
X120698688Y-128197948D01*
X120698699Y-128197953D01*
X120862347Y-128252180D01*
X120963352Y-128262499D01*
X121000000Y-128262499D01*
X121000000Y-127525000D01*
X121500000Y-127525000D01*
X121500000Y-128262499D01*
X121536640Y-128262499D01*
X121536654Y-128262498D01*
X121637652Y-128252180D01*
X121801300Y-128197953D01*
X121801311Y-128197948D01*
X121948034Y-128107447D01*
X121948038Y-128107444D01*
X122069944Y-127985538D01*
X122069947Y-127985534D01*
X122134729Y-127880508D01*
X122186677Y-127833783D01*
X122255639Y-127822562D01*
X122305364Y-127840067D01*
X122441507Y-127924042D01*
X122441518Y-127924047D01*
X122602393Y-127977355D01*
X122701683Y-127987499D01*
X123250000Y-127987499D01*
X123298308Y-127987499D01*
X123298322Y-127987498D01*
X123397607Y-127977355D01*
X123558481Y-127924047D01*
X123558492Y-127924042D01*
X123702728Y-127835075D01*
X123702732Y-127835072D01*
X123822572Y-127715232D01*
X123822575Y-127715228D01*
X123911542Y-127570992D01*
X123911547Y-127570981D01*
X123964855Y-127410106D01*
X123974999Y-127310822D01*
X123975000Y-127310809D01*
X123975000Y-127287500D01*
X123250000Y-127287500D01*
X123250000Y-127987499D01*
X122701683Y-127987499D01*
X122749999Y-127987498D01*
X122750000Y-127987498D01*
X122750000Y-127287500D01*
X122355000Y-127287500D01*
X122355000Y-127401000D01*
X122335315Y-127468039D01*
X122282511Y-127513794D01*
X122231000Y-127525000D01*
X121500000Y-127525000D01*
X121000000Y-127525000D01*
X121000000Y-127399000D01*
X121019685Y-127331961D01*
X121072489Y-127286206D01*
X121124000Y-127275000D01*
X121250000Y-127275000D01*
X121250000Y-127149000D01*
X121269685Y-127081961D01*
X121322489Y-127036206D01*
X121374000Y-127025000D01*
X121895000Y-127025000D01*
X121895000Y-126911500D01*
X121914685Y-126844461D01*
X121967489Y-126798706D01*
X122019000Y-126787500D01*
X123974999Y-126787500D01*
X123974999Y-126764192D01*
X123974998Y-126764177D01*
X123964855Y-126664892D01*
X123911547Y-126504018D01*
X123911542Y-126504007D01*
X123822575Y-126359771D01*
X123822572Y-126359767D01*
X123813339Y-126350534D01*
X123779854Y-126289211D01*
X123784838Y-126219519D01*
X123813343Y-126175168D01*
X123822968Y-126165544D01*
X123912003Y-126021197D01*
X123965349Y-125860208D01*
X123975500Y-125760845D01*
X123975499Y-125749334D01*
X123995179Y-125682298D01*
X124047980Y-125636539D01*
X124117138Y-125626591D01*
X124141609Y-125633881D01*
X124141842Y-125633181D01*
X124312347Y-125689680D01*
X124413352Y-125699999D01*
X124450000Y-125699999D01*
X124450000Y-124786500D01*
X124469685Y-124719461D01*
X124522489Y-124673706D01*
X124574000Y-124662500D01*
X124826000Y-124662500D01*
X124893039Y-124682185D01*
X124938794Y-124734989D01*
X124950000Y-124786500D01*
X124950000Y-125699999D01*
X124986640Y-125699999D01*
X124986654Y-125699998D01*
X125087650Y-125689681D01*
X125161611Y-125665172D01*
X125231439Y-125662770D01*
X125291481Y-125698501D01*
X125322674Y-125761021D01*
X125324204Y-125785166D01*
X125324500Y-125785166D01*
X125324500Y-126386669D01*
X125324501Y-126386687D01*
X125334825Y-126487752D01*
X125366278Y-126582669D01*
X125385240Y-126639893D01*
X125389092Y-126651515D01*
X125389093Y-126651518D01*
X125423395Y-126707129D01*
X125469689Y-126782185D01*
X125479661Y-126798351D01*
X125593629Y-126912319D01*
X125627114Y-126973642D01*
X125622130Y-127043334D01*
X125593629Y-127087681D01*
X125479661Y-127201648D01*
X125389093Y-127348481D01*
X125389091Y-127348486D01*
X125371690Y-127401000D01*
X125334826Y-127512247D01*
X125334826Y-127512248D01*
X125334825Y-127512248D01*
X125324500Y-127613315D01*
X125324500Y-128211669D01*
X125324501Y-128211687D01*
X125334825Y-128312752D01*
X125389092Y-128476515D01*
X125389093Y-128476518D01*
X125483452Y-128629497D01*
X125481144Y-128630920D01*
X125502597Y-128684086D01*
X125489561Y-128752729D01*
X125466873Y-128783890D01*
X125387585Y-128863180D01*
X125326263Y-128896666D01*
X125299903Y-128899500D01*
X123420940Y-128899500D01*
X123380019Y-128910464D01*
X123380019Y-128910465D01*
X123346394Y-128919475D01*
X123268214Y-128940423D01*
X123268209Y-128940426D01*
X123131290Y-129019475D01*
X123131282Y-129019481D01*
X123019478Y-129131286D01*
X122603563Y-129547200D01*
X122542240Y-129580685D01*
X122477564Y-129577450D01*
X122351370Y-129536447D01*
X122118097Y-129499500D01*
X122118092Y-129499500D01*
X121881908Y-129499500D01*
X121881903Y-129499500D01*
X121648631Y-129536446D01*
X121424003Y-129609433D01*
X121213566Y-129716657D01*
X121104550Y-129795862D01*
X121022490Y-129855483D01*
X121022488Y-129855485D01*
X121022487Y-129855485D01*
X120855485Y-130022487D01*
X120855485Y-130022488D01*
X120855483Y-130022490D01*
X120823273Y-130066823D01*
X120716657Y-130213566D01*
X120609433Y-130424003D01*
X120536446Y-130648631D01*
X120499500Y-130881902D01*
X120499500Y-131118097D01*
X120536446Y-131351368D01*
X120609433Y-131575996D01*
X120684504Y-131723329D01*
X120716657Y-131786433D01*
X120855483Y-131977510D01*
X121022490Y-132144517D01*
X121202335Y-132275183D01*
X121245000Y-132330512D01*
X121250979Y-132400126D01*
X121218373Y-132461920D01*
X121157534Y-132496278D01*
X121129449Y-132499500D01*
X102504067Y-132499500D01*
X102495957Y-132499235D01*
X102247116Y-132482925D01*
X102231035Y-132480807D01*
X101990464Y-132432954D01*
X101974797Y-132428756D01*
X101742520Y-132349909D01*
X101727534Y-132343702D01*
X101507539Y-132235212D01*
X101493493Y-132227102D01*
X101289539Y-132090825D01*
X101276670Y-132080951D01*
X101270454Y-132075500D01*
X101158719Y-131977510D01*
X101092250Y-131919218D01*
X101080781Y-131907749D01*
X100919048Y-131723329D01*
X100909174Y-131710460D01*
X100772897Y-131506506D01*
X100764787Y-131492460D01*
X100712621Y-131386678D01*
X100712609Y-131386653D01*
X111600001Y-131386653D01*
X111610319Y-131487651D01*
X111664546Y-131651299D01*
X111664551Y-131651310D01*
X111755052Y-131798033D01*
X111755055Y-131798037D01*
X111876961Y-131919943D01*
X111876965Y-131919946D01*
X112023688Y-132010447D01*
X112023699Y-132010452D01*
X112187347Y-132064679D01*
X112288351Y-132074998D01*
X112387500Y-132074997D01*
X112387500Y-131349999D01*
X111600001Y-131349999D01*
X111600001Y-131386653D01*
X100712609Y-131386653D01*
X100656294Y-131272458D01*
X100650090Y-131257479D01*
X100647834Y-131250834D01*
X100602776Y-131118097D01*
X100571243Y-131025202D01*
X100567045Y-131009536D01*
X100564725Y-130997872D01*
X100528020Y-130813344D01*
X111600000Y-130813344D01*
X111600000Y-130849999D01*
X112387500Y-130849999D01*
X112387500Y-130124998D01*
X112288360Y-130124999D01*
X112288344Y-130125000D01*
X112187347Y-130135318D01*
X112023699Y-130189545D01*
X112023688Y-130189550D01*
X111876965Y-130280051D01*
X111876961Y-130280054D01*
X111755055Y-130401960D01*
X111755052Y-130401964D01*
X111664551Y-130548687D01*
X111664546Y-130548698D01*
X111610319Y-130712346D01*
X111600000Y-130813344D01*
X100528020Y-130813344D01*
X100519190Y-130768953D01*
X100517075Y-130752895D01*
X100500765Y-130504043D01*
X100500500Y-130495933D01*
X100500500Y-129022844D01*
X109600000Y-129022844D01*
X109606401Y-129082372D01*
X109606403Y-129082379D01*
X109656645Y-129217086D01*
X109656649Y-129217093D01*
X109742809Y-129332187D01*
X109742812Y-129332190D01*
X109857906Y-129418350D01*
X109857913Y-129418354D01*
X109992620Y-129468596D01*
X109992627Y-129468598D01*
X110052155Y-129474999D01*
X110052172Y-129475000D01*
X110950000Y-129475000D01*
X111450000Y-129475000D01*
X112347828Y-129475000D01*
X112347844Y-129474999D01*
X112407372Y-129468598D01*
X112407379Y-129468596D01*
X112542086Y-129418354D01*
X112542093Y-129418350D01*
X112657187Y-129332190D01*
X112657190Y-129332187D01*
X112743350Y-129217093D01*
X112743354Y-129217086D01*
X112793596Y-129082379D01*
X112793598Y-129082372D01*
X112799999Y-129022844D01*
X112800000Y-129022827D01*
X112800000Y-128150000D01*
X111450000Y-128150000D01*
X111450000Y-129475000D01*
X110950000Y-129475000D01*
X110950000Y-128150000D01*
X109600000Y-128150000D01*
X109600000Y-129022844D01*
X100500500Y-129022844D01*
X100500500Y-126777155D01*
X109600000Y-126777155D01*
X109600000Y-127650000D01*
X110950000Y-127650000D01*
X111450000Y-127650000D01*
X112800000Y-127650000D01*
X112800000Y-126777172D01*
X112799999Y-126777155D01*
X112793598Y-126717627D01*
X112793596Y-126717620D01*
X112743354Y-126582913D01*
X112743350Y-126582906D01*
X112657190Y-126467812D01*
X112657187Y-126467809D01*
X112542093Y-126381649D01*
X112542086Y-126381645D01*
X112407379Y-126331403D01*
X112407372Y-126331401D01*
X112347844Y-126325000D01*
X111450000Y-126325000D01*
X111450000Y-127650000D01*
X110950000Y-127650000D01*
X110950000Y-126325000D01*
X110052155Y-126325000D01*
X109992627Y-126331401D01*
X109992620Y-126331403D01*
X109857913Y-126381645D01*
X109857906Y-126381649D01*
X109742812Y-126467809D01*
X109742809Y-126467812D01*
X109656649Y-126582906D01*
X109656645Y-126582913D01*
X109606403Y-126717620D01*
X109606401Y-126717627D01*
X109600000Y-126777155D01*
X100500500Y-126777155D01*
X100500500Y-121320286D01*
X104700002Y-121320286D01*
X104700002Y-121679711D01*
X104740242Y-122036850D01*
X104740244Y-122036862D01*
X104820221Y-122387267D01*
X104820222Y-122387269D01*
X104938929Y-122726516D01*
X105094872Y-123050335D01*
X105286094Y-123354663D01*
X105466083Y-123580363D01*
X106462723Y-122583723D01*
X106543787Y-122689368D01*
X106710633Y-122856214D01*
X106816275Y-122937276D01*
X105819636Y-123933915D01*
X105819636Y-123933916D01*
X106045337Y-124113906D01*
X106349665Y-124305128D01*
X106673484Y-124461071D01*
X107012731Y-124579778D01*
X107012733Y-124579779D01*
X107363138Y-124659756D01*
X107363150Y-124659758D01*
X107720289Y-124699998D01*
X107720291Y-124699999D01*
X108079713Y-124699999D01*
X108079714Y-124699998D01*
X108436853Y-124659758D01*
X108436865Y-124659756D01*
X108787270Y-124579779D01*
X108787272Y-124579778D01*
X109126519Y-124461071D01*
X109450338Y-124305128D01*
X109754666Y-124113906D01*
X109980366Y-123933915D01*
X108983727Y-122937276D01*
X109089371Y-122856214D01*
X109256217Y-122689368D01*
X109337279Y-122583724D01*
X110333918Y-123580363D01*
X110513909Y-123354663D01*
X110705131Y-123050335D01*
X110861074Y-122726516D01*
X110979781Y-122387269D01*
X110979782Y-122387267D01*
X111059759Y-122036862D01*
X111059761Y-122036850D01*
X111100001Y-121679711D01*
X111100002Y-121679709D01*
X111100002Y-121320288D01*
X111100001Y-121320286D01*
X111059761Y-120963147D01*
X111059759Y-120963135D01*
X110979782Y-120612730D01*
X110979781Y-120612728D01*
X110861074Y-120273481D01*
X110705131Y-119949662D01*
X110513909Y-119645334D01*
X110333918Y-119419633D01*
X109337279Y-120416272D01*
X109256217Y-120310630D01*
X109089371Y-120143784D01*
X108983726Y-120062719D01*
X109980366Y-119066080D01*
X109754666Y-118886091D01*
X109450338Y-118694869D01*
X109234159Y-118590763D01*
X109126519Y-118538926D01*
X108787272Y-118420219D01*
X108787270Y-118420218D01*
X108436865Y-118340241D01*
X108436853Y-118340239D01*
X108079714Y-118299999D01*
X107720289Y-118299999D01*
X107363150Y-118340239D01*
X107363138Y-118340241D01*
X107012733Y-118420218D01*
X107012731Y-118420219D01*
X106673484Y-118538926D01*
X106349665Y-118694869D01*
X106045337Y-118886091D01*
X105819636Y-119066080D01*
X106816276Y-120062720D01*
X106710633Y-120143784D01*
X106543787Y-120310630D01*
X106462723Y-120416273D01*
X105466083Y-119419633D01*
X105286094Y-119645334D01*
X105094872Y-119949662D01*
X104938929Y-120273481D01*
X104820222Y-120612728D01*
X104820221Y-120612730D01*
X104740244Y-120963135D01*
X104740242Y-120963147D01*
X104700002Y-121320286D01*
X100500500Y-121320286D01*
X100500500Y-113320286D01*
X104700000Y-113320286D01*
X104700000Y-113679711D01*
X104740240Y-114036850D01*
X104740242Y-114036862D01*
X104820219Y-114387267D01*
X104820220Y-114387269D01*
X104938927Y-114726516D01*
X105094870Y-115050335D01*
X105286092Y-115354663D01*
X105466081Y-115580363D01*
X106462721Y-114583723D01*
X106543785Y-114689368D01*
X106710631Y-114856214D01*
X106816273Y-114937276D01*
X105819634Y-115933915D01*
X105819634Y-115933916D01*
X106045335Y-116113906D01*
X106349663Y-116305128D01*
X106673482Y-116461071D01*
X107012729Y-116579778D01*
X107012731Y-116579779D01*
X107363136Y-116659756D01*
X107363148Y-116659758D01*
X107720287Y-116699998D01*
X107720289Y-116699999D01*
X108079711Y-116699999D01*
X108079712Y-116699998D01*
X108436851Y-116659758D01*
X108436863Y-116659756D01*
X108787268Y-116579779D01*
X108787270Y-116579778D01*
X109126517Y-116461071D01*
X109450336Y-116305128D01*
X109754664Y-116113906D01*
X109980364Y-115933915D01*
X108983725Y-114937276D01*
X109089369Y-114856214D01*
X109256215Y-114689368D01*
X109337277Y-114583724D01*
X110333916Y-115580363D01*
X110513907Y-115354663D01*
X110705129Y-115050335D01*
X110861072Y-114726516D01*
X110979779Y-114387269D01*
X110979780Y-114387267D01*
X111059757Y-114036862D01*
X111059759Y-114036850D01*
X111099999Y-113679711D01*
X111100000Y-113679709D01*
X111100000Y-113320288D01*
X111099999Y-113320286D01*
X111059759Y-112963147D01*
X111059757Y-112963135D01*
X110979780Y-112612730D01*
X110979779Y-112612728D01*
X110861072Y-112273481D01*
X110705129Y-111949662D01*
X110513907Y-111645334D01*
X110333916Y-111419633D01*
X109337277Y-112416272D01*
X109256215Y-112310630D01*
X109089369Y-112143784D01*
X108983724Y-112062719D01*
X109980364Y-111066080D01*
X109754664Y-110886091D01*
X109450336Y-110694869D01*
X109126517Y-110538926D01*
X108787270Y-110420219D01*
X108787268Y-110420218D01*
X108436863Y-110340241D01*
X108436851Y-110340239D01*
X108079712Y-110299999D01*
X107720287Y-110299999D01*
X107363148Y-110340239D01*
X107363136Y-110340241D01*
X107012731Y-110420218D01*
X107012729Y-110420219D01*
X106673482Y-110538926D01*
X106349663Y-110694869D01*
X106045335Y-110886091D01*
X105819634Y-111066080D01*
X106816274Y-112062720D01*
X106710631Y-112143784D01*
X106543785Y-112310630D01*
X106462721Y-112416273D01*
X105466081Y-111419633D01*
X105286092Y-111645334D01*
X105094870Y-111949662D01*
X104938927Y-112273481D01*
X104820220Y-112612728D01*
X104820219Y-112612730D01*
X104740242Y-112963135D01*
X104740240Y-112963147D01*
X104700000Y-113320286D01*
X100500500Y-113320286D01*
X100500500Y-108724154D01*
X105025001Y-108724154D01*
X105035319Y-108825152D01*
X105089546Y-108988800D01*
X105089551Y-108988811D01*
X105180052Y-109135534D01*
X105180055Y-109135538D01*
X105301961Y-109257444D01*
X105301965Y-109257447D01*
X105448688Y-109347948D01*
X105448699Y-109347953D01*
X105612347Y-109402180D01*
X105713352Y-109412499D01*
X105750000Y-109412499D01*
X106250000Y-109412499D01*
X106286640Y-109412499D01*
X106286654Y-109412498D01*
X106387652Y-109402180D01*
X106551300Y-109347953D01*
X106551311Y-109347948D01*
X106698034Y-109257447D01*
X106698038Y-109257444D01*
X106819944Y-109135538D01*
X106819947Y-109135534D01*
X106910448Y-108988811D01*
X106910453Y-108988800D01*
X106964680Y-108825152D01*
X106974999Y-108724154D01*
X106975000Y-108724141D01*
X106975000Y-108675000D01*
X106250000Y-108675000D01*
X106250000Y-109412499D01*
X105750000Y-109412499D01*
X105750000Y-108675000D01*
X105025001Y-108675000D01*
X105025001Y-108724154D01*
X100500500Y-108724154D01*
X100500500Y-104504066D01*
X100500765Y-104495956D01*
X100517075Y-104247102D01*
X100519190Y-104231048D01*
X100567045Y-103990462D01*
X100571243Y-103974797D01*
X100613776Y-103849498D01*
X100650093Y-103742512D01*
X100656291Y-103727547D01*
X100764790Y-103507533D01*
X100772897Y-103493493D01*
X100909174Y-103289539D01*
X100919039Y-103276681D01*
X101080786Y-103092244D01*
X101092244Y-103080786D01*
X101276681Y-102919039D01*
X101289534Y-102909177D01*
X101493493Y-102772897D01*
X101507533Y-102764790D01*
X101727547Y-102656291D01*
X101742512Y-102650093D01*
X101906762Y-102594337D01*
X101974797Y-102571243D01*
X101990464Y-102567045D01*
X102231048Y-102519190D01*
X102247102Y-102517075D01*
X102495957Y-102500765D01*
X102504067Y-102500500D01*
X102565892Y-102500500D01*
X106811615Y-102500500D01*
X106878654Y-102520185D01*
G37*
%TD.AperFunction*%
%TA.AperFunction,Conductor*%
G36*
X124638957Y-130120185D02*
G01*
X124684712Y-130172989D01*
X124694656Y-130242147D01*
X124682403Y-130280795D01*
X124609433Y-130424003D01*
X124536446Y-130648631D01*
X124499500Y-130881902D01*
X124499500Y-131118097D01*
X124536446Y-131351368D01*
X124609433Y-131575996D01*
X124684504Y-131723329D01*
X124716657Y-131786433D01*
X124855483Y-131977510D01*
X125022490Y-132144517D01*
X125202335Y-132275183D01*
X125245000Y-132330512D01*
X125250979Y-132400126D01*
X125218373Y-132461920D01*
X125157534Y-132496278D01*
X125129449Y-132499500D01*
X122870551Y-132499500D01*
X122803512Y-132479815D01*
X122757757Y-132427011D01*
X122747813Y-132357853D01*
X122776838Y-132294297D01*
X122797662Y-132275184D01*
X122977510Y-132144517D01*
X123144517Y-131977510D01*
X123283343Y-131786433D01*
X123390568Y-131575992D01*
X123463553Y-131351368D01*
X123470584Y-131306977D01*
X123500500Y-131118097D01*
X123500500Y-130881902D01*
X123463553Y-130648635D01*
X123463553Y-130648632D01*
X123422547Y-130522433D01*
X123420553Y-130452593D01*
X123452795Y-130396439D01*
X123712417Y-130136816D01*
X123773739Y-130103334D01*
X123800097Y-130100500D01*
X124571918Y-130100500D01*
X124638957Y-130120185D01*
G37*
%TD.AperFunction*%
%TA.AperFunction,Conductor*%
G36*
X145452612Y-109014899D02*
G01*
X145482141Y-109021323D01*
X145487829Y-109025540D01*
X145490570Y-109026369D01*
X145507550Y-109040163D01*
X145509588Y-109041674D01*
X145510028Y-109042106D01*
X145589711Y-109121789D01*
X145594321Y-109124869D01*
X145594323Y-109124871D01*
X145720814Y-109209390D01*
X145720827Y-109209397D01*
X145836832Y-109257447D01*
X145866503Y-109269737D01*
X145969020Y-109290129D01*
X146021153Y-109300499D01*
X146021156Y-109300500D01*
X146021158Y-109300500D01*
X146178843Y-109300500D01*
X146192635Y-109297756D01*
X146262278Y-109283903D01*
X146331867Y-109290129D01*
X146374149Y-109317839D01*
X146376650Y-109320340D01*
X146523484Y-109410908D01*
X146687247Y-109465174D01*
X146788323Y-109475500D01*
X147386676Y-109475499D01*
X147386684Y-109475498D01*
X147386687Y-109475498D01*
X147442030Y-109469844D01*
X147487753Y-109465174D01*
X147651516Y-109410908D01*
X147798350Y-109320340D01*
X147912319Y-109206371D01*
X147973642Y-109172886D01*
X148043334Y-109177870D01*
X148087681Y-109206371D01*
X148201650Y-109320340D01*
X148348484Y-109410908D01*
X148512247Y-109465174D01*
X148613323Y-109475500D01*
X149211676Y-109475499D01*
X149211684Y-109475498D01*
X149211687Y-109475498D01*
X149267030Y-109469844D01*
X149312753Y-109465174D01*
X149476516Y-109410908D01*
X149525701Y-109380569D01*
X149593091Y-109362128D01*
X149659756Y-109383049D01*
X149678480Y-109398426D01*
X150985325Y-110705272D01*
X150985332Y-110705278D01*
X151053018Y-110750504D01*
X151053019Y-110750504D01*
X151091866Y-110776461D01*
X151091872Y-110776464D01*
X151091873Y-110776465D01*
X151210256Y-110825501D01*
X151210260Y-110825501D01*
X151210261Y-110825502D01*
X151335928Y-110850500D01*
X151335931Y-110850500D01*
X151718059Y-110850500D01*
X151785098Y-110870185D01*
X151830853Y-110922989D01*
X151840797Y-110992147D01*
X151811772Y-111055703D01*
X151805740Y-111062181D01*
X151778213Y-111089707D01*
X151778210Y-111089711D01*
X151690609Y-111220814D01*
X151690602Y-111220827D01*
X151630264Y-111366498D01*
X151630261Y-111366510D01*
X151599500Y-111521153D01*
X151599500Y-111678846D01*
X151630261Y-111833489D01*
X151630264Y-111833501D01*
X151690602Y-111979172D01*
X151690609Y-111979184D01*
X151753602Y-112073459D01*
X151774480Y-112140136D01*
X151774500Y-112142350D01*
X151774500Y-121289547D01*
X151754815Y-121356586D01*
X151738181Y-121377228D01*
X150268775Y-122846633D01*
X150207452Y-122880118D01*
X150137760Y-122875134D01*
X150081827Y-122833262D01*
X150057410Y-122767798D01*
X150064052Y-122717997D01*
X150179779Y-122387266D01*
X150259756Y-122036863D01*
X150259758Y-122036851D01*
X150299998Y-121679712D01*
X150299999Y-121679710D01*
X150299999Y-121320289D01*
X150299998Y-121320287D01*
X150259758Y-120963148D01*
X150259756Y-120963136D01*
X150179779Y-120612731D01*
X150179778Y-120612729D01*
X150061071Y-120273482D01*
X149905128Y-119949663D01*
X149713906Y-119645335D01*
X149533915Y-119419634D01*
X148537276Y-120416274D01*
X148456214Y-120310631D01*
X148289368Y-120143785D01*
X148183723Y-120062720D01*
X149180363Y-119066081D01*
X148954663Y-118886092D01*
X148650335Y-118694870D01*
X148326516Y-118538927D01*
X147987269Y-118420220D01*
X147987267Y-118420219D01*
X147636862Y-118340242D01*
X147636850Y-118340240D01*
X147279711Y-118300000D01*
X146920286Y-118300000D01*
X146563147Y-118340240D01*
X146563135Y-118340242D01*
X146212730Y-118420219D01*
X146212728Y-118420220D01*
X145873481Y-118538927D01*
X145549662Y-118694870D01*
X145245334Y-118886092D01*
X145019633Y-119066081D01*
X146016273Y-120062721D01*
X145910630Y-120143785D01*
X145743784Y-120310631D01*
X145662720Y-120416274D01*
X144666080Y-119419634D01*
X144486091Y-119645335D01*
X144294869Y-119949663D01*
X144138926Y-120273482D01*
X144020219Y-120612729D01*
X144020218Y-120612731D01*
X143940241Y-120963136D01*
X143940239Y-120963148D01*
X143899999Y-121320287D01*
X143899999Y-121679712D01*
X143940239Y-122036851D01*
X143940241Y-122036863D01*
X144020218Y-122387268D01*
X144020219Y-122387270D01*
X144138926Y-122726517D01*
X144294869Y-123050336D01*
X144486091Y-123354664D01*
X144666080Y-123580364D01*
X145662720Y-122583724D01*
X145743784Y-122689369D01*
X145910630Y-122856215D01*
X146016273Y-122937277D01*
X145019633Y-123933916D01*
X145019633Y-123933917D01*
X145245334Y-124113907D01*
X145549662Y-124305129D01*
X145873481Y-124461072D01*
X146212728Y-124579779D01*
X146212730Y-124579780D01*
X146563135Y-124659757D01*
X146563147Y-124659759D01*
X146920286Y-124699999D01*
X146920288Y-124700000D01*
X147279710Y-124700000D01*
X147279711Y-124699999D01*
X147636850Y-124659759D01*
X147636862Y-124659757D01*
X147987265Y-124579780D01*
X148317996Y-124464053D01*
X148387775Y-124460492D01*
X148448403Y-124495221D01*
X148480630Y-124557214D01*
X148474225Y-124626789D01*
X148446632Y-124668776D01*
X147327229Y-125788181D01*
X147265906Y-125821666D01*
X147239548Y-125824500D01*
X147193386Y-125824500D01*
X147174147Y-125826248D01*
X147122809Y-125830913D01*
X146960395Y-125881522D01*
X146814813Y-125969530D01*
X146694532Y-126089811D01*
X146606524Y-126235393D01*
X146555915Y-126397807D01*
X146551885Y-126442156D01*
X146549587Y-126467455D01*
X146549502Y-126468386D01*
X146549502Y-127131613D01*
X146555915Y-127202192D01*
X146555915Y-127202194D01*
X146555916Y-127202196D01*
X146606524Y-127364606D01*
X146690388Y-127503334D01*
X146694532Y-127510188D01*
X146814813Y-127630469D01*
X146814815Y-127630470D01*
X146814817Y-127630472D01*
X146960396Y-127718478D01*
X147122806Y-127769086D01*
X147193386Y-127775500D01*
X147193389Y-127775500D01*
X147706615Y-127775500D01*
X147706618Y-127775500D01*
X147777198Y-127769086D01*
X147939608Y-127718478D01*
X148085187Y-127630472D01*
X148187321Y-127528337D01*
X148248642Y-127494854D01*
X148318334Y-127499838D01*
X148362680Y-127528337D01*
X148464815Y-127630472D01*
X148610394Y-127718478D01*
X148772804Y-127769086D01*
X148843384Y-127775500D01*
X148843387Y-127775500D01*
X149356613Y-127775500D01*
X149356616Y-127775500D01*
X149427196Y-127769086D01*
X149589606Y-127718478D01*
X149735185Y-127630472D01*
X149755114Y-127610543D01*
X149828839Y-127536819D01*
X149890162Y-127503334D01*
X149916520Y-127500500D01*
X151406535Y-127500500D01*
X151473574Y-127520185D01*
X151505800Y-127550187D01*
X151567454Y-127632546D01*
X151613643Y-127667123D01*
X151682664Y-127718793D01*
X151682671Y-127718797D01*
X151817517Y-127769091D01*
X151817516Y-127769091D01*
X151824444Y-127769835D01*
X151877127Y-127775500D01*
X152922872Y-127775499D01*
X152982483Y-127769091D01*
X153117331Y-127718796D01*
X153117336Y-127718791D01*
X153121738Y-127716389D01*
X153190010Y-127701531D01*
X153255476Y-127725943D01*
X153275707Y-127752964D01*
X153317621Y-127768597D01*
X153317625Y-127768598D01*
X153377153Y-127774999D01*
X153377170Y-127775000D01*
X154375500Y-127775000D01*
X154442539Y-127794685D01*
X154488294Y-127847489D01*
X154499500Y-127899000D01*
X154499500Y-130495933D01*
X154499235Y-130504043D01*
X154482925Y-130752883D01*
X154480807Y-130768964D01*
X154432954Y-131009535D01*
X154428756Y-131025202D01*
X154349909Y-131257479D01*
X154343702Y-131272465D01*
X154235212Y-131492460D01*
X154227102Y-131506506D01*
X154090825Y-131710460D01*
X154080951Y-131723329D01*
X153919218Y-131907749D01*
X153907749Y-131919218D01*
X153723329Y-132080951D01*
X153710460Y-132090825D01*
X153506506Y-132227102D01*
X153492460Y-132235212D01*
X153272465Y-132343702D01*
X153257479Y-132349909D01*
X153025202Y-132428756D01*
X153009535Y-132432954D01*
X152768964Y-132480807D01*
X152752883Y-132482925D01*
X152504043Y-132499235D01*
X152495933Y-132499500D01*
X126870551Y-132499500D01*
X126803512Y-132479815D01*
X126757757Y-132427011D01*
X126747813Y-132357853D01*
X126776838Y-132294297D01*
X126797662Y-132275184D01*
X126977510Y-132144517D01*
X127144517Y-131977510D01*
X127283343Y-131786433D01*
X127390568Y-131575992D01*
X127463553Y-131351368D01*
X127470584Y-131306977D01*
X127500500Y-131118097D01*
X127500500Y-130997844D01*
X128950000Y-130997844D01*
X128956401Y-131057372D01*
X128956403Y-131057379D01*
X129006645Y-131192086D01*
X129006649Y-131192093D01*
X129092809Y-131307187D01*
X129092812Y-131307190D01*
X129207906Y-131393350D01*
X129207913Y-131393354D01*
X129342620Y-131443596D01*
X129342627Y-131443598D01*
X129402155Y-131449999D01*
X129402172Y-131450000D01*
X129950000Y-131450000D01*
X130450000Y-131450000D01*
X130997828Y-131450000D01*
X130997844Y-131449999D01*
X131057372Y-131443598D01*
X131057379Y-131443596D01*
X131192086Y-131393354D01*
X131192093Y-131393350D01*
X131307187Y-131307190D01*
X131307190Y-131307187D01*
X131393350Y-131192093D01*
X131393354Y-131192086D01*
X131443596Y-131057379D01*
X131443598Y-131057372D01*
X131449999Y-130997844D01*
X131450000Y-130997827D01*
X131450000Y-130450000D01*
X130450000Y-130450000D01*
X130450000Y-131450000D01*
X129950000Y-131450000D01*
X129950000Y-130450000D01*
X128950000Y-130450000D01*
X128950000Y-130997844D01*
X127500500Y-130997844D01*
X127500500Y-130881902D01*
X127463553Y-130648635D01*
X127463553Y-130648632D01*
X127422547Y-130522433D01*
X127420553Y-130452593D01*
X127452796Y-130396437D01*
X128326383Y-129522851D01*
X128797630Y-129522851D01*
X128934420Y-129934420D01*
X128950000Y-129950000D01*
X129950000Y-129950000D01*
X130450000Y-129950000D01*
X131450000Y-129950000D01*
X131450000Y-129402172D01*
X131449999Y-129402155D01*
X131443598Y-129342627D01*
X131443596Y-129342620D01*
X131393354Y-129207913D01*
X131393350Y-129207906D01*
X131307190Y-129092812D01*
X131307187Y-129092809D01*
X131192093Y-129006649D01*
X131192086Y-129006645D01*
X131057379Y-128956403D01*
X131057372Y-128956401D01*
X130997844Y-128950000D01*
X130450000Y-128950000D01*
X130450000Y-129950000D01*
X129950000Y-129950000D01*
X129950000Y-128950000D01*
X129402155Y-128950000D01*
X129342627Y-128956401D01*
X129342620Y-128956403D01*
X129207913Y-129006645D01*
X129207906Y-129006649D01*
X129092812Y-129092809D01*
X129092809Y-129092812D01*
X129006649Y-129207906D01*
X129006645Y-129207913D01*
X128956403Y-129342620D01*
X128956401Y-129342627D01*
X128950000Y-129402155D01*
X128949823Y-129405479D01*
X128947926Y-129410855D01*
X128948738Y-129416498D01*
X128936433Y-129443440D01*
X128926583Y-129471370D01*
X128922081Y-129474867D01*
X128919713Y-129480054D01*
X128894797Y-129496066D01*
X128871409Y-129514238D01*
X128864474Y-129515553D01*
X128860935Y-129517828D01*
X128826000Y-129522851D01*
X128797630Y-129522851D01*
X128326383Y-129522851D01*
X128458506Y-129390728D01*
X128458511Y-129390724D01*
X128468714Y-129380520D01*
X128468716Y-129380520D01*
X128580520Y-129268716D01*
X128659577Y-129131784D01*
X128700500Y-128979057D01*
X128700500Y-128874900D01*
X128720185Y-128807861D01*
X128759401Y-128769363D01*
X128798350Y-128745340D01*
X128920340Y-128623350D01*
X129010908Y-128476516D01*
X129065174Y-128312753D01*
X129075500Y-128211677D01*
X129075499Y-127613324D01*
X129069185Y-127551517D01*
X129065174Y-127512247D01*
X129063030Y-127505777D01*
X129010908Y-127348484D01*
X128920340Y-127201650D01*
X128806371Y-127087681D01*
X128772886Y-127026358D01*
X128777870Y-126956666D01*
X128806371Y-126912319D01*
X128844691Y-126873999D01*
X128920340Y-126798350D01*
X129010908Y-126651516D01*
X129065174Y-126487753D01*
X129075500Y-126386677D01*
X129075499Y-125788324D01*
X129075484Y-125788181D01*
X129065174Y-125687247D01*
X129052831Y-125650000D01*
X129010908Y-125523484D01*
X129010904Y-125523477D01*
X128961767Y-125443813D01*
X128943327Y-125376421D01*
X128964250Y-125309758D01*
X129017892Y-125264988D01*
X129087223Y-125256327D01*
X129091466Y-125257093D01*
X129121158Y-125263000D01*
X129278844Y-125263000D01*
X129278845Y-125262999D01*
X129433497Y-125232237D01*
X129552548Y-125182925D01*
X129622017Y-125175456D01*
X129647447Y-125182922D01*
X129697953Y-125203843D01*
X129752355Y-125247682D01*
X129774421Y-125313976D01*
X129774500Y-125318403D01*
X129774500Y-125722870D01*
X129774501Y-125722876D01*
X129780908Y-125782483D01*
X129831202Y-125917328D01*
X129831206Y-125917335D01*
X129917452Y-126032544D01*
X129917455Y-126032547D01*
X130032664Y-126118793D01*
X130032671Y-126118797D01*
X130065446Y-126131021D01*
X130167517Y-126169091D01*
X130227127Y-126175500D01*
X130413000Y-126175499D01*
X130480039Y-126195183D01*
X130525794Y-126247987D01*
X130537000Y-126299499D01*
X130537000Y-126335728D01*
X130517315Y-126402767D01*
X130482069Y-126437367D01*
X130482316Y-126437679D01*
X130479415Y-126439972D01*
X130478100Y-126441264D01*
X130476654Y-126442155D01*
X130476653Y-126442156D01*
X130354659Y-126564151D01*
X130264093Y-126710981D01*
X130264091Y-126710986D01*
X130244641Y-126769684D01*
X130209826Y-126874747D01*
X130209826Y-126874748D01*
X130209825Y-126874748D01*
X130199500Y-126975815D01*
X130199500Y-127549169D01*
X130199501Y-127549187D01*
X130209825Y-127650252D01*
X130232538Y-127718793D01*
X130264020Y-127813800D01*
X130264092Y-127814015D01*
X130264093Y-127814018D01*
X130267992Y-127820339D01*
X130354660Y-127960850D01*
X130476650Y-128082840D01*
X130623484Y-128173408D01*
X130787247Y-128227674D01*
X130888323Y-128238000D01*
X131586676Y-128237999D01*
X131586684Y-128237998D01*
X131586687Y-128237998D01*
X131642030Y-128232344D01*
X131687753Y-128227674D01*
X131851516Y-128173408D01*
X131998350Y-128082840D01*
X132012671Y-128068518D01*
X132073989Y-128035033D01*
X132143681Y-128040014D01*
X132188034Y-128068517D01*
X132201961Y-128082444D01*
X132201965Y-128082447D01*
X132348688Y-128172948D01*
X132348699Y-128172953D01*
X132512347Y-128227180D01*
X132613351Y-128237499D01*
X133212500Y-128237499D01*
X133311640Y-128237499D01*
X133311654Y-128237498D01*
X133412652Y-128227180D01*
X133576300Y-128172953D01*
X133576311Y-128172948D01*
X133723034Y-128082447D01*
X133723038Y-128082444D01*
X133844944Y-127960538D01*
X133844947Y-127960534D01*
X133935448Y-127813811D01*
X133935453Y-127813800D01*
X133989680Y-127650152D01*
X133999999Y-127549154D01*
X134000000Y-127549141D01*
X134000000Y-127512500D01*
X133212500Y-127512500D01*
X133212500Y-128237499D01*
X132613351Y-128237499D01*
X132712500Y-128237498D01*
X132712500Y-127386500D01*
X132732185Y-127319461D01*
X132770047Y-127286653D01*
X134500001Y-127286653D01*
X134510319Y-127387651D01*
X134564546Y-127551299D01*
X134564551Y-127551310D01*
X134655052Y-127698033D01*
X134655055Y-127698037D01*
X134776961Y-127819943D01*
X134776965Y-127819946D01*
X134923688Y-127910447D01*
X134923699Y-127910452D01*
X135087347Y-127964679D01*
X135188351Y-127974998D01*
X135287500Y-127974997D01*
X135287500Y-127249999D01*
X134500001Y-127249999D01*
X134500001Y-127286653D01*
X132770047Y-127286653D01*
X132784989Y-127273706D01*
X132836500Y-127262500D01*
X132962500Y-127262500D01*
X132962500Y-127136500D01*
X132982185Y-127069461D01*
X133034989Y-127023706D01*
X133086500Y-127012500D01*
X133999999Y-127012500D01*
X133999999Y-126975860D01*
X133999998Y-126975845D01*
X133989680Y-126874847D01*
X133935453Y-126711199D01*
X133935448Y-126711188D01*
X133844947Y-126564465D01*
X133844944Y-126564461D01*
X133723038Y-126442555D01*
X133723034Y-126442552D01*
X133661404Y-126404538D01*
X133614679Y-126352590D01*
X133603458Y-126283628D01*
X133631301Y-126219546D01*
X133689370Y-126180690D01*
X133726501Y-126175000D01*
X133972828Y-126175000D01*
X133972844Y-126174999D01*
X134032372Y-126168598D01*
X134032379Y-126168596D01*
X134167086Y-126118354D01*
X134167093Y-126118350D01*
X134282187Y-126032190D01*
X134282190Y-126032187D01*
X134368350Y-125917093D01*
X134368354Y-125917086D01*
X134411444Y-125801556D01*
X134453315Y-125745622D01*
X134518779Y-125721205D01*
X134587052Y-125736056D01*
X134595459Y-125741617D01*
X134595503Y-125741548D01*
X134601648Y-125745338D01*
X134601650Y-125745340D01*
X134748484Y-125835908D01*
X134877545Y-125878674D01*
X134934989Y-125918447D01*
X134961812Y-125982963D01*
X134949497Y-126051738D01*
X134903638Y-126101918D01*
X134776962Y-126180053D01*
X134655055Y-126301960D01*
X134655052Y-126301964D01*
X134564551Y-126448687D01*
X134564546Y-126448698D01*
X134510319Y-126612346D01*
X134500000Y-126713344D01*
X134500000Y-126749999D01*
X135413500Y-126749999D01*
X135480539Y-126769684D01*
X135526294Y-126822488D01*
X135537500Y-126873999D01*
X135537500Y-126999999D01*
X135663500Y-126999999D01*
X135730539Y-127019684D01*
X135776294Y-127072488D01*
X135787500Y-127123999D01*
X135787500Y-127974998D01*
X135886640Y-127974998D01*
X135886654Y-127974997D01*
X135987652Y-127964679D01*
X136151300Y-127910452D01*
X136151311Y-127910447D01*
X136298035Y-127819946D01*
X136311959Y-127806021D01*
X136373281Y-127772533D01*
X136442972Y-127777514D01*
X136487326Y-127806017D01*
X136501650Y-127820341D01*
X136648484Y-127910909D01*
X136812247Y-127965175D01*
X136913323Y-127975501D01*
X137611676Y-127975500D01*
X137611684Y-127975499D01*
X137611687Y-127975499D01*
X137667030Y-127969845D01*
X137712753Y-127965175D01*
X137876516Y-127910909D01*
X138010405Y-127828325D01*
X138077795Y-127809886D01*
X138144459Y-127830808D01*
X138189229Y-127884450D01*
X138199500Y-127933865D01*
X138199500Y-128825500D01*
X138179815Y-128892539D01*
X138127011Y-128938294D01*
X138075500Y-128949500D01*
X137202129Y-128949500D01*
X137202123Y-128949501D01*
X137142516Y-128955908D01*
X137007671Y-129006202D01*
X137007664Y-129006206D01*
X136892455Y-129092452D01*
X136892452Y-129092455D01*
X136806206Y-129207664D01*
X136806202Y-129207671D01*
X136755908Y-129342517D01*
X136751823Y-129380520D01*
X136749501Y-129402123D01*
X136749500Y-129402135D01*
X136749500Y-130997870D01*
X136749501Y-130997876D01*
X136755908Y-131057483D01*
X136806202Y-131192328D01*
X136806206Y-131192335D01*
X136892452Y-131307544D01*
X136892455Y-131307547D01*
X137007664Y-131393793D01*
X137007671Y-131393797D01*
X137142517Y-131444091D01*
X137142516Y-131444091D01*
X137149444Y-131444835D01*
X137202127Y-131450500D01*
X138797872Y-131450499D01*
X138857483Y-131444091D01*
X138992331Y-131393796D01*
X139075689Y-131331393D01*
X139141153Y-131306977D01*
X139209426Y-131321828D01*
X139224311Y-131331394D01*
X139307669Y-131393796D01*
X139307671Y-131393797D01*
X139442517Y-131444091D01*
X139442516Y-131444091D01*
X139449444Y-131444835D01*
X139502127Y-131450500D01*
X141097872Y-131450499D01*
X141157483Y-131444091D01*
X141292331Y-131393796D01*
X141407546Y-131307546D01*
X141493796Y-131192331D01*
X141544091Y-131057483D01*
X141550500Y-130997873D01*
X141550500Y-130997844D01*
X146850000Y-130997844D01*
X146856401Y-131057372D01*
X146856403Y-131057379D01*
X146906645Y-131192086D01*
X146906649Y-131192093D01*
X146992809Y-131307187D01*
X146992812Y-131307190D01*
X147107906Y-131393350D01*
X147107913Y-131393354D01*
X147242620Y-131443596D01*
X147242627Y-131443598D01*
X147302155Y-131449999D01*
X147302172Y-131450000D01*
X147850000Y-131450000D01*
X148350000Y-131450000D01*
X148897828Y-131450000D01*
X148897844Y-131449999D01*
X148957372Y-131443598D01*
X148957379Y-131443596D01*
X149092086Y-131393354D01*
X149092093Y-131393350D01*
X149207187Y-131307190D01*
X149207190Y-131307187D01*
X149293350Y-131192093D01*
X149293354Y-131192086D01*
X149343596Y-131057379D01*
X149343598Y-131057372D01*
X149349999Y-130997844D01*
X149350000Y-130997827D01*
X149350000Y-130450000D01*
X148350000Y-130450000D01*
X148350000Y-131450000D01*
X147850000Y-131450000D01*
X147850000Y-130450000D01*
X146850000Y-130450000D01*
X146850000Y-130997844D01*
X141550500Y-130997844D01*
X141550499Y-130194312D01*
X141550499Y-129402155D01*
X146850000Y-129402155D01*
X146850000Y-129950000D01*
X147850000Y-129950000D01*
X148350000Y-129950000D01*
X149350000Y-129950000D01*
X149350000Y-129402172D01*
X149349999Y-129402155D01*
X149343598Y-129342627D01*
X149343596Y-129342620D01*
X149293354Y-129207913D01*
X149293350Y-129207906D01*
X149207190Y-129092812D01*
X149207187Y-129092809D01*
X149092093Y-129006649D01*
X149092086Y-129006645D01*
X148957379Y-128956403D01*
X148957372Y-128956401D01*
X148897844Y-128950000D01*
X148350000Y-128950000D01*
X148350000Y-129950000D01*
X147850000Y-129950000D01*
X147850000Y-128950000D01*
X147302155Y-128950000D01*
X147242627Y-128956401D01*
X147242620Y-128956403D01*
X147107913Y-129006645D01*
X147107906Y-129006649D01*
X146992812Y-129092809D01*
X146992809Y-129092812D01*
X146906649Y-129207906D01*
X146906645Y-129207913D01*
X146856403Y-129342620D01*
X146856401Y-129342627D01*
X146850000Y-129402155D01*
X141550499Y-129402155D01*
X141550499Y-129402129D01*
X141550498Y-129402123D01*
X141550497Y-129402116D01*
X141544091Y-129342517D01*
X141540372Y-129332547D01*
X141493797Y-129207671D01*
X141493793Y-129207664D01*
X141407547Y-129092455D01*
X141407544Y-129092452D01*
X141292335Y-129006206D01*
X141292328Y-129006202D01*
X141157482Y-128955908D01*
X141157483Y-128955908D01*
X141097883Y-128949501D01*
X141097881Y-128949500D01*
X141097873Y-128949500D01*
X141097865Y-128949500D01*
X140124500Y-128949500D01*
X140057461Y-128929815D01*
X140011706Y-128877011D01*
X140000500Y-128825500D01*
X140000500Y-122141002D01*
X140020185Y-122073963D01*
X140072989Y-122028208D01*
X140142147Y-122018264D01*
X140197385Y-122040684D01*
X140210554Y-122050252D01*
X140226667Y-122061959D01*
X140433599Y-122167397D01*
X140433601Y-122167397D01*
X140433604Y-122167399D01*
X140654486Y-122239168D01*
X140772668Y-122257885D01*
X140883871Y-122275499D01*
X140883876Y-122275499D01*
X141116129Y-122275499D01*
X141217502Y-122259442D01*
X141345514Y-122239168D01*
X141566396Y-122167399D01*
X141773331Y-122061960D01*
X141961224Y-121925448D01*
X142125449Y-121761223D01*
X142261961Y-121573330D01*
X142367400Y-121366395D01*
X142389643Y-121297937D01*
X142395961Y-121278494D01*
X142395961Y-121278493D01*
X142439168Y-121145517D01*
X142439168Y-121145516D01*
X142439169Y-121145513D01*
X142464435Y-120985986D01*
X142475500Y-120916128D01*
X142475500Y-120683869D01*
X142453102Y-120542455D01*
X142439169Y-120454485D01*
X142367400Y-120233603D01*
X142367398Y-120233600D01*
X142367398Y-120233598D01*
X142305772Y-120112652D01*
X142261961Y-120026668D01*
X142125449Y-119838775D01*
X141961224Y-119674550D01*
X141773331Y-119538038D01*
X141669217Y-119484989D01*
X141566399Y-119432600D01*
X141465314Y-119399755D01*
X141415952Y-119369505D01*
X141247488Y-119201041D01*
X141307890Y-119176022D01*
X141414351Y-119104888D01*
X141504888Y-119014351D01*
X141576022Y-118907890D01*
X141601041Y-118847488D01*
X142204760Y-119451208D01*
X142204762Y-119451207D01*
X142261530Y-119373071D01*
X142366934Y-119166205D01*
X142396176Y-119076210D01*
X142396176Y-119076209D01*
X142438681Y-118945391D01*
X142475000Y-118716090D01*
X142475000Y-118483909D01*
X142438681Y-118254606D01*
X142366934Y-118033794D01*
X142261534Y-117826935D01*
X142204760Y-117748791D01*
X142204759Y-117748791D01*
X141601041Y-118352510D01*
X141576022Y-118292110D01*
X141504888Y-118185649D01*
X141414351Y-118095112D01*
X141307890Y-118023978D01*
X141247486Y-117998957D01*
X141415953Y-117830491D01*
X141465310Y-117800244D01*
X141566396Y-117767400D01*
X141773331Y-117661961D01*
X141961224Y-117525449D01*
X142125449Y-117361224D01*
X142261961Y-117173331D01*
X142367400Y-116966396D01*
X142439169Y-116745514D01*
X142463640Y-116591006D01*
X142475500Y-116516129D01*
X142475500Y-116283870D01*
X142448580Y-116113906D01*
X142439169Y-116054486D01*
X142437391Y-116049013D01*
X142435396Y-115979172D01*
X142467639Y-115923016D01*
X143544116Y-114846541D01*
X143620777Y-114731809D01*
X143622970Y-114726516D01*
X143659724Y-114637782D01*
X143673582Y-114604326D01*
X143686145Y-114541168D01*
X143700502Y-114468994D01*
X143700502Y-114087025D01*
X143720187Y-114019986D01*
X143772991Y-113974231D01*
X143842149Y-113964287D01*
X143905705Y-113993312D01*
X143943479Y-114052090D01*
X143945393Y-114059432D01*
X144020218Y-114387265D01*
X144020219Y-114387267D01*
X144138926Y-114726514D01*
X144294869Y-115050333D01*
X144486091Y-115354661D01*
X144666080Y-115580361D01*
X145662720Y-114583721D01*
X145743784Y-114689366D01*
X145910630Y-114856212D01*
X146016272Y-114937274D01*
X145019633Y-115933913D01*
X145019633Y-115933914D01*
X145245334Y-116113904D01*
X145549662Y-116305126D01*
X145873481Y-116461069D01*
X146212728Y-116579776D01*
X146212730Y-116579777D01*
X146563135Y-116659754D01*
X146563147Y-116659756D01*
X146920286Y-116699996D01*
X146920288Y-116699997D01*
X147279710Y-116699997D01*
X147279711Y-116699996D01*
X147636850Y-116659756D01*
X147636862Y-116659754D01*
X147987267Y-116579777D01*
X147987269Y-116579776D01*
X148326516Y-116461069D01*
X148650335Y-116305126D01*
X148954663Y-116113904D01*
X149180363Y-115933913D01*
X148183724Y-114937274D01*
X148289368Y-114856212D01*
X148456214Y-114689366D01*
X148537276Y-114583722D01*
X149533915Y-115580361D01*
X149713906Y-115354661D01*
X149905128Y-115050333D01*
X150061071Y-114726514D01*
X150179778Y-114387267D01*
X150179779Y-114387265D01*
X150259756Y-114036860D01*
X150259758Y-114036848D01*
X150299998Y-113679709D01*
X150299999Y-113679707D01*
X150299999Y-113320286D01*
X150299998Y-113320284D01*
X150259758Y-112963145D01*
X150259756Y-112963133D01*
X150179779Y-112612728D01*
X150179778Y-112612726D01*
X150061071Y-112273479D01*
X149905128Y-111949660D01*
X149713906Y-111645332D01*
X149533915Y-111419631D01*
X148537276Y-112416270D01*
X148456214Y-112310628D01*
X148289368Y-112143782D01*
X148183723Y-112062717D01*
X149180363Y-111066078D01*
X148954663Y-110886089D01*
X148650335Y-110694867D01*
X148326516Y-110538924D01*
X147987269Y-110420217D01*
X147987267Y-110420216D01*
X147636862Y-110340239D01*
X147636850Y-110340237D01*
X147279711Y-110299997D01*
X146920286Y-110299997D01*
X146563147Y-110340237D01*
X146563135Y-110340239D01*
X146212730Y-110420216D01*
X146212728Y-110420217D01*
X145873481Y-110538924D01*
X145549662Y-110694867D01*
X145245334Y-110886089D01*
X145019633Y-111066078D01*
X146016273Y-112062718D01*
X145910630Y-112143782D01*
X145743784Y-112310628D01*
X145662720Y-112416271D01*
X144666080Y-111419631D01*
X144486091Y-111645332D01*
X144294869Y-111949660D01*
X144138926Y-112273479D01*
X144020219Y-112612726D01*
X144020218Y-112612728D01*
X143945393Y-112940561D01*
X143911284Y-113001539D01*
X143849623Y-113034397D01*
X143779986Y-113028702D01*
X143724482Y-112986262D01*
X143700734Y-112920552D01*
X143700502Y-112912968D01*
X143700502Y-109558591D01*
X143720187Y-109491552D01*
X143772991Y-109445797D01*
X143842149Y-109435853D01*
X143863497Y-109440882D01*
X144012247Y-109490174D01*
X144113323Y-109500500D01*
X144686676Y-109500499D01*
X144686684Y-109500498D01*
X144686687Y-109500498D01*
X144742030Y-109494844D01*
X144787753Y-109490174D01*
X144951516Y-109435908D01*
X145098350Y-109345340D01*
X145220340Y-109223350D01*
X145310908Y-109076516D01*
X145310908Y-109076514D01*
X145314699Y-109070369D01*
X145316082Y-109071222D01*
X145330295Y-109055077D01*
X145348404Y-109030888D01*
X145353148Y-109029118D01*
X145356495Y-109025317D01*
X145385554Y-109017031D01*
X145413868Y-109006471D01*
X145418816Y-109007547D01*
X145423687Y-109006159D01*
X145452612Y-109014899D01*
G37*
%TD.AperFunction*%
%TA.AperFunction,Conductor*%
G36*
X153564296Y-126113532D02*
G01*
X153581257Y-126127707D01*
X153863679Y-126410128D01*
X153897164Y-126471451D01*
X153899998Y-126497809D01*
X153899998Y-127102190D01*
X153880313Y-127169229D01*
X153863679Y-127189871D01*
X153581257Y-127472292D01*
X153519934Y-127505777D01*
X153450242Y-127500793D01*
X153394309Y-127458921D01*
X153369892Y-127393457D01*
X153370287Y-127371355D01*
X153372747Y-127348481D01*
X153375500Y-127322873D01*
X153375499Y-127022304D01*
X153395183Y-126955268D01*
X153411818Y-126934625D01*
X153546444Y-126799999D01*
X153411818Y-126665373D01*
X153378333Y-126604050D01*
X153375499Y-126577692D01*
X153375499Y-126277129D01*
X153375497Y-126277110D01*
X153370287Y-126228643D01*
X153382692Y-126159884D01*
X153430302Y-126108746D01*
X153498001Y-126091467D01*
X153564296Y-126113532D01*
G37*
%TD.AperFunction*%
%TA.AperFunction,Conductor*%
G36*
X131976028Y-124596837D02*
G01*
X131985794Y-124596949D01*
X132007287Y-124611112D01*
X132030700Y-124621804D01*
X132037180Y-124627837D01*
X132318386Y-124909042D01*
X132343875Y-124934531D01*
X132377360Y-124995854D01*
X132373075Y-125055763D01*
X132375178Y-125073847D01*
X132375000Y-125077172D01*
X132375000Y-125150000D01*
X132566597Y-125150000D01*
X132626025Y-125165168D01*
X132632671Y-125168797D01*
X132640975Y-125171894D01*
X132767517Y-125219091D01*
X132827127Y-125225500D01*
X133276002Y-125225499D01*
X133343039Y-125245183D01*
X133388794Y-125297987D01*
X133400000Y-125349499D01*
X133400000Y-125526000D01*
X133380315Y-125593039D01*
X133327511Y-125638794D01*
X133276000Y-125650000D01*
X132375000Y-125650000D01*
X132375000Y-125722844D01*
X132381401Y-125782372D01*
X132381403Y-125782379D01*
X132431645Y-125917086D01*
X132431649Y-125917093D01*
X132517809Y-126032187D01*
X132575115Y-126075087D01*
X132616985Y-126131021D01*
X132621969Y-126200713D01*
X132588483Y-126262035D01*
X132527160Y-126295520D01*
X132513406Y-126297711D01*
X132512347Y-126297819D01*
X132348699Y-126352046D01*
X132348688Y-126352051D01*
X132201965Y-126442552D01*
X132201963Y-126442553D01*
X132188030Y-126456486D01*
X132126705Y-126489968D01*
X132057013Y-126484979D01*
X132019376Y-126462708D01*
X132015904Y-126459714D01*
X131998350Y-126442160D01*
X131988503Y-126436086D01*
X131981023Y-126429636D01*
X131967203Y-126408245D01*
X131950177Y-126389315D01*
X131947575Y-126377864D01*
X131943107Y-126370949D01*
X131943076Y-126358065D01*
X131938000Y-126335728D01*
X131938000Y-125781004D01*
X131911081Y-125645676D01*
X131911078Y-125645667D01*
X131901834Y-125623351D01*
X131899132Y-125616828D01*
X131876836Y-125562999D01*
X131864063Y-125532162D01*
X131858277Y-125518193D01*
X131858274Y-125518188D01*
X131846396Y-125500410D01*
X131825519Y-125433732D01*
X131825499Y-125431521D01*
X131825499Y-125077129D01*
X131825498Y-125077123D01*
X131825146Y-125073847D01*
X131819091Y-125017517D01*
X131819090Y-125017514D01*
X131800747Y-124968334D01*
X131794400Y-124905949D01*
X131796337Y-124893487D01*
X131819091Y-124832483D01*
X131825500Y-124772873D01*
X131825499Y-124705929D01*
X131826971Y-124696467D01*
X131837930Y-124673179D01*
X131845182Y-124648480D01*
X131852564Y-124642083D01*
X131856722Y-124633248D01*
X131878529Y-124619583D01*
X131897986Y-124602724D01*
X131907654Y-124601333D01*
X131915929Y-124596149D01*
X131941664Y-124596443D01*
X131967144Y-124592780D01*
X131976028Y-124596837D01*
G37*
%TD.AperFunction*%
%TA.AperFunction,Conductor*%
G36*
X120767539Y-123820184D02*
G01*
X120813294Y-123872988D01*
X120824500Y-123924499D01*
X120824500Y-124395293D01*
X120804815Y-124462332D01*
X120752011Y-124508087D01*
X120739505Y-124512999D01*
X120698484Y-124526592D01*
X120551648Y-124617161D01*
X120429660Y-124739149D01*
X120426881Y-124742664D01*
X120369856Y-124783036D01*
X120300057Y-124786170D01*
X120246224Y-124757513D01*
X120244042Y-124755530D01*
X120153044Y-124664532D01*
X120124613Y-124646995D01*
X120116104Y-124639262D01*
X120103659Y-124618852D01*
X120087677Y-124601082D01*
X120084619Y-124587625D01*
X120079730Y-124579607D01*
X120080019Y-124567382D01*
X120075500Y-124547495D01*
X120075500Y-124385452D01*
X120095185Y-124318413D01*
X120111819Y-124297771D01*
X120572772Y-123836818D01*
X120634095Y-123803333D01*
X120660453Y-123800499D01*
X120700500Y-123800499D01*
X120767539Y-123820184D01*
G37*
%TD.AperFunction*%
%TA.AperFunction,Conductor*%
G36*
X135985154Y-102520185D02*
G01*
X136030909Y-102572989D01*
X136040853Y-102642147D01*
X136034297Y-102667834D01*
X136006402Y-102742621D01*
X136006401Y-102742625D01*
X136000000Y-102802153D01*
X136000000Y-103049998D01*
X138500000Y-103049998D01*
X138500000Y-102802170D01*
X138499999Y-102802153D01*
X138493598Y-102742625D01*
X138493597Y-102742621D01*
X138465703Y-102667834D01*
X138460719Y-102598142D01*
X138494203Y-102536819D01*
X138555526Y-102503334D01*
X138581885Y-102500500D01*
X152434108Y-102500500D01*
X152495933Y-102500500D01*
X152504043Y-102500765D01*
X152752895Y-102517075D01*
X152768953Y-102519190D01*
X152976105Y-102560395D01*
X153009535Y-102567045D01*
X153025202Y-102571243D01*
X153194947Y-102628863D01*
X153257481Y-102650091D01*
X153272458Y-102656294D01*
X153447295Y-102742514D01*
X153492460Y-102764787D01*
X153506506Y-102772897D01*
X153710460Y-102909174D01*
X153723325Y-102919045D01*
X153835844Y-103017722D01*
X153907749Y-103080781D01*
X153919218Y-103092250D01*
X153963515Y-103142761D01*
X154062433Y-103255555D01*
X154080951Y-103276670D01*
X154090825Y-103289539D01*
X154227102Y-103493493D01*
X154235212Y-103507539D01*
X154343702Y-103727534D01*
X154349909Y-103742520D01*
X154428756Y-103974797D01*
X154432954Y-103990464D01*
X154480807Y-104231035D01*
X154482925Y-104247116D01*
X154486531Y-104302125D01*
X154498113Y-104478846D01*
X154499235Y-104495956D01*
X154499500Y-104504066D01*
X154499500Y-106772999D01*
X154479815Y-106840038D01*
X154427011Y-106885793D01*
X154375500Y-106896999D01*
X154124328Y-106896999D01*
X154124321Y-106897000D01*
X154064716Y-106903407D01*
X154046266Y-106910289D01*
X154043333Y-106911383D01*
X154043330Y-106911384D01*
X153973639Y-106916367D01*
X153956670Y-106911384D01*
X153948654Y-106908394D01*
X153935286Y-106903408D01*
X153925349Y-106902339D01*
X153875674Y-106896999D01*
X153875664Y-106896999D01*
X153424330Y-106896999D01*
X153424324Y-106897000D01*
X153364717Y-106903407D01*
X153229873Y-106953701D01*
X153222092Y-106957951D01*
X153220835Y-106955649D01*
X153168194Y-106975283D01*
X153159350Y-106975599D01*
X151984407Y-106975599D01*
X151917368Y-106955914D01*
X151896726Y-106939280D01*
X149908173Y-104950727D01*
X149874688Y-104889404D01*
X149878149Y-104824040D01*
X149890174Y-104787753D01*
X149900500Y-104686677D01*
X149900499Y-104113324D01*
X149899072Y-104099358D01*
X149890174Y-104012247D01*
X149862086Y-103927484D01*
X149835908Y-103848484D01*
X149745340Y-103701650D01*
X149623350Y-103579660D01*
X149532129Y-103523395D01*
X149476518Y-103489093D01*
X149476513Y-103489091D01*
X149475069Y-103488612D01*
X149312753Y-103434826D01*
X149312751Y-103434825D01*
X149211678Y-103424500D01*
X148613330Y-103424500D01*
X148613312Y-103424501D01*
X148512247Y-103434825D01*
X148348484Y-103489092D01*
X148348481Y-103489093D01*
X148201648Y-103579661D01*
X148087681Y-103693629D01*
X148026358Y-103727114D01*
X147956666Y-103722130D01*
X147912319Y-103693629D01*
X147798351Y-103579661D01*
X147798350Y-103579660D01*
X147707129Y-103523395D01*
X147651518Y-103489093D01*
X147651513Y-103489091D01*
X147650069Y-103488612D01*
X147487753Y-103434826D01*
X147487751Y-103434825D01*
X147386678Y-103424500D01*
X146788330Y-103424500D01*
X146788312Y-103424501D01*
X146687247Y-103434825D01*
X146523484Y-103489092D01*
X146523481Y-103489093D01*
X146376644Y-103579663D01*
X146376643Y-103579664D01*
X146374143Y-103582165D01*
X146372004Y-103583332D01*
X146370982Y-103584141D01*
X146370843Y-103583966D01*
X146312818Y-103615646D01*
X146262278Y-103616096D01*
X146260015Y-103615646D01*
X146251243Y-103613901D01*
X146178842Y-103599500D01*
X146021158Y-103599500D01*
X146021155Y-103599500D01*
X145866510Y-103630261D01*
X145866498Y-103630264D01*
X145720827Y-103690602D01*
X145720814Y-103690609D01*
X145589711Y-103778210D01*
X145589707Y-103778213D01*
X145478213Y-103889707D01*
X145478210Y-103889711D01*
X145390609Y-104020814D01*
X145390602Y-104020827D01*
X145330264Y-104166498D01*
X145330261Y-104166510D01*
X145299500Y-104321153D01*
X145299500Y-104478846D01*
X145330261Y-104633489D01*
X145330264Y-104633501D01*
X145390602Y-104779172D01*
X145390609Y-104779185D01*
X145478210Y-104910288D01*
X145478213Y-104910292D01*
X145589707Y-105021786D01*
X145589711Y-105021789D01*
X145720814Y-105109390D01*
X145720827Y-105109397D01*
X145855487Y-105165174D01*
X145866503Y-105169737D01*
X145969020Y-105190129D01*
X146021153Y-105200499D01*
X146021156Y-105200500D01*
X146021158Y-105200500D01*
X146178843Y-105200500D01*
X146194009Y-105197483D01*
X146262278Y-105183903D01*
X146331867Y-105190129D01*
X146354079Y-105201574D01*
X146364964Y-105208654D01*
X146376650Y-105220340D01*
X146498070Y-105295232D01*
X146499333Y-105296054D01*
X146521132Y-105321493D01*
X146543544Y-105346410D01*
X146543792Y-105347936D01*
X146544797Y-105349109D01*
X146549381Y-105382288D01*
X146554765Y-105415372D01*
X146554149Y-105416789D01*
X146554361Y-105418321D01*
X146540267Y-105448737D01*
X146526922Y-105479454D01*
X146525441Y-105480736D01*
X146524988Y-105481716D01*
X146522456Y-105483323D01*
X146496819Y-105505538D01*
X146376650Y-105579658D01*
X146376643Y-105579664D01*
X146374143Y-105582165D01*
X146372004Y-105583332D01*
X146370982Y-105584141D01*
X146370843Y-105583966D01*
X146312818Y-105615646D01*
X146262278Y-105616096D01*
X146260015Y-105615646D01*
X146219896Y-105607666D01*
X146178842Y-105599500D01*
X146021158Y-105599500D01*
X146021155Y-105599500D01*
X145866510Y-105630261D01*
X145866498Y-105630264D01*
X145720827Y-105690602D01*
X145720814Y-105690609D01*
X145589711Y-105778210D01*
X145589707Y-105778213D01*
X145478213Y-105889707D01*
X145478208Y-105889713D01*
X145423292Y-105971900D01*
X145369680Y-106016704D01*
X145300355Y-106025411D01*
X145237327Y-105995256D01*
X145222926Y-105979920D01*
X145220341Y-105976651D01*
X145098351Y-105854661D01*
X145098350Y-105854660D01*
X145001175Y-105794722D01*
X144951518Y-105764093D01*
X144951513Y-105764091D01*
X144886401Y-105742515D01*
X144787753Y-105709826D01*
X144787751Y-105709825D01*
X144686678Y-105699500D01*
X144113330Y-105699500D01*
X144113312Y-105699501D01*
X144012247Y-105709825D01*
X143848484Y-105764092D01*
X143848481Y-105764093D01*
X143701648Y-105854661D01*
X143579659Y-105976650D01*
X143564270Y-106001601D01*
X143543063Y-106035984D01*
X143540218Y-106040596D01*
X143488270Y-106087321D01*
X143434679Y-106099500D01*
X142825316Y-106099500D01*
X142777864Y-106090061D01*
X142633501Y-106030264D01*
X142633489Y-106030261D01*
X142478845Y-105999500D01*
X142478842Y-105999500D01*
X142321158Y-105999500D01*
X142295805Y-106004542D01*
X142279279Y-106007830D01*
X142209687Y-106001601D01*
X142178176Y-105983477D01*
X142173351Y-105979661D01*
X142173350Y-105979660D01*
X142026516Y-105889092D01*
X141862753Y-105834826D01*
X141862751Y-105834825D01*
X141761678Y-105824500D01*
X141163330Y-105824500D01*
X141163312Y-105824501D01*
X141062247Y-105834825D01*
X140898484Y-105889092D01*
X140898481Y-105889093D01*
X140751648Y-105979661D01*
X140637681Y-106093629D01*
X140576358Y-106127114D01*
X140506666Y-106122130D01*
X140462319Y-106093629D01*
X140348351Y-105979661D01*
X140348350Y-105979660D01*
X140201516Y-105889092D01*
X140037753Y-105834826D01*
X140037751Y-105834825D01*
X139936684Y-105824500D01*
X139936677Y-105824500D01*
X139475102Y-105824500D01*
X139408063Y-105804815D01*
X139387421Y-105788181D01*
X138536820Y-104937580D01*
X138503335Y-104876257D01*
X138500501Y-104849899D01*
X138500501Y-104302126D01*
X138500501Y-104302124D01*
X138494093Y-104242514D01*
X138494093Y-104242513D01*
X138440699Y-104099356D01*
X138442268Y-104098770D01*
X138429616Y-104040632D01*
X138441314Y-104000791D01*
X138440253Y-104000396D01*
X138493597Y-103857374D01*
X138493598Y-103857370D01*
X138499999Y-103797842D01*
X138500000Y-103797825D01*
X138500000Y-103549998D01*
X136000000Y-103549998D01*
X136000000Y-103797842D01*
X136006401Y-103857370D01*
X136006403Y-103857377D01*
X136059746Y-104000397D01*
X136057931Y-104001073D01*
X136070384Y-104058318D01*
X136058430Y-104099030D01*
X136059305Y-104099357D01*
X136005910Y-104242514D01*
X135999503Y-104302113D01*
X135999503Y-104302122D01*
X135999502Y-104302132D01*
X135999502Y-105297867D01*
X135999503Y-105297873D01*
X136005910Y-105357480D01*
X136059305Y-105500638D01*
X136057575Y-105501283D01*
X136070097Y-105558840D01*
X136058309Y-105598985D01*
X136059304Y-105599356D01*
X136005909Y-105742514D01*
X135999502Y-105802113D01*
X135999502Y-105802122D01*
X135999501Y-105802132D01*
X135999501Y-106797867D01*
X135999502Y-106797873D01*
X136005909Y-106857480D01*
X136032353Y-106928378D01*
X136037337Y-106998070D01*
X136003852Y-107059393D01*
X135942529Y-107092877D01*
X135872837Y-107087893D01*
X135868719Y-107086273D01*
X135830320Y-107070368D01*
X135733497Y-107030263D01*
X135733492Y-107030262D01*
X135733489Y-107030261D01*
X135578845Y-106999500D01*
X135578842Y-106999500D01*
X135421158Y-106999500D01*
X135421155Y-106999500D01*
X135266510Y-107030261D01*
X135266498Y-107030264D01*
X135120827Y-107090602D01*
X135120814Y-107090609D01*
X134989711Y-107178210D01*
X134989707Y-107178213D01*
X134878213Y-107289707D01*
X134878210Y-107289711D01*
X134790609Y-107420814D01*
X134790602Y-107420827D01*
X134730264Y-107566498D01*
X134730261Y-107566510D01*
X134699500Y-107721153D01*
X134699500Y-107878846D01*
X134730261Y-108033489D01*
X134730264Y-108033501D01*
X134790602Y-108179172D01*
X134790609Y-108179185D01*
X134878210Y-108310288D01*
X134878213Y-108310292D01*
X134989707Y-108421786D01*
X134989710Y-108421788D01*
X134989711Y-108421789D01*
X134995265Y-108425500D01*
X135027289Y-108446898D01*
X135072093Y-108500511D01*
X135080800Y-108569836D01*
X135050645Y-108632863D01*
X135027289Y-108653102D01*
X134989707Y-108678213D01*
X134878213Y-108789707D01*
X134878210Y-108789711D01*
X134790609Y-108920814D01*
X134790602Y-108920827D01*
X134730264Y-109066498D01*
X134730261Y-109066510D01*
X134699500Y-109221153D01*
X134699500Y-109378846D01*
X134730261Y-109533489D01*
X134730264Y-109533501D01*
X134790602Y-109679172D01*
X134790609Y-109679185D01*
X134878210Y-109810288D01*
X134878213Y-109810292D01*
X134989707Y-109921786D01*
X135027289Y-109946898D01*
X135072093Y-110000511D01*
X135080800Y-110069836D01*
X135050645Y-110132863D01*
X135027289Y-110153102D01*
X134989707Y-110178213D01*
X134878213Y-110289707D01*
X134878210Y-110289711D01*
X134790609Y-110420814D01*
X134790602Y-110420827D01*
X134730264Y-110566498D01*
X134730261Y-110566510D01*
X134699500Y-110721153D01*
X134699500Y-110878846D01*
X134730261Y-111033489D01*
X134730264Y-111033501D01*
X134790602Y-111179172D01*
X134790609Y-111179185D01*
X134878210Y-111310288D01*
X134878213Y-111310292D01*
X134989707Y-111421786D01*
X134989711Y-111421789D01*
X135120814Y-111509390D01*
X135120827Y-111509397D01*
X135250040Y-111562918D01*
X135266503Y-111569737D01*
X135412169Y-111598712D01*
X135421153Y-111600499D01*
X135421156Y-111600500D01*
X135421158Y-111600500D01*
X135578844Y-111600500D01*
X135578845Y-111600499D01*
X135733497Y-111569737D01*
X135868716Y-111513727D01*
X135938184Y-111506259D01*
X136000663Y-111537534D01*
X136036315Y-111597623D01*
X136033821Y-111667448D01*
X136032350Y-111671621D01*
X136005908Y-111742517D01*
X136000603Y-111791866D01*
X135999501Y-111802121D01*
X135999500Y-111802133D01*
X135999500Y-112797868D01*
X135999501Y-112797874D01*
X136005908Y-112857481D01*
X136059303Y-113000639D01*
X136057575Y-113001283D01*
X136070095Y-113058851D01*
X136058310Y-113098986D01*
X136059303Y-113099357D01*
X136005908Y-113242515D01*
X135999501Y-113302114D01*
X135999501Y-113302121D01*
X135999500Y-113302133D01*
X135999500Y-114297868D01*
X135999501Y-114297874D01*
X136005908Y-114357481D01*
X136033764Y-114432165D01*
X136038748Y-114501857D01*
X136005263Y-114563180D01*
X135943939Y-114596664D01*
X135917582Y-114599498D01*
X135031006Y-114599498D01*
X134895679Y-114626416D01*
X134895669Y-114626419D01*
X134768194Y-114679220D01*
X134653456Y-114755885D01*
X131741168Y-117668173D01*
X131679845Y-117701658D01*
X131610153Y-117696674D01*
X131554220Y-117654803D01*
X131550844Y-117650293D01*
X131507546Y-117592454D01*
X131484709Y-117575358D01*
X131392335Y-117506206D01*
X131392328Y-117506202D01*
X131257482Y-117455908D01*
X131257483Y-117455908D01*
X131197883Y-117449501D01*
X131197881Y-117449500D01*
X131197873Y-117449500D01*
X131197864Y-117449500D01*
X130002129Y-117449500D01*
X130002123Y-117449501D01*
X129942516Y-117455908D01*
X129807671Y-117506202D01*
X129807664Y-117506206D01*
X129692455Y-117592452D01*
X129692452Y-117592455D01*
X129606206Y-117707664D01*
X129606202Y-117707671D01*
X129555908Y-117842517D01*
X129549592Y-117901267D01*
X129549501Y-117902123D01*
X129549500Y-117902135D01*
X129549500Y-118838000D01*
X129529815Y-118905039D01*
X129477011Y-118950794D01*
X129425500Y-118962000D01*
X128326770Y-118962000D01*
X128259731Y-118942315D01*
X128232862Y-118918977D01*
X128226414Y-118911499D01*
X128220339Y-118901650D01*
X128202777Y-118884088D01*
X128199790Y-118880624D01*
X128187167Y-118852807D01*
X128172532Y-118826005D01*
X128172868Y-118821297D01*
X128170918Y-118816999D01*
X128175337Y-118786779D01*
X128177516Y-118756313D01*
X128180463Y-118751727D01*
X128181028Y-118747865D01*
X128188350Y-118739455D01*
X128206021Y-118711961D01*
X128219948Y-118698035D01*
X128310449Y-118551311D01*
X128310454Y-118551300D01*
X128364681Y-118387652D01*
X128375000Y-118286654D01*
X128375001Y-118286641D01*
X128375001Y-118187500D01*
X126425002Y-118187500D01*
X126425002Y-118286654D01*
X126435320Y-118387652D01*
X126489547Y-118551300D01*
X126489552Y-118551311D01*
X126580053Y-118698034D01*
X126580056Y-118698038D01*
X126593982Y-118711964D01*
X126627467Y-118773287D01*
X126622483Y-118842979D01*
X126593984Y-118887324D01*
X126579660Y-118901648D01*
X126489092Y-119048481D01*
X126489090Y-119048486D01*
X126483260Y-119066080D01*
X126434825Y-119212247D01*
X126434825Y-119212248D01*
X126434824Y-119212248D01*
X126424499Y-119313315D01*
X126424499Y-120011669D01*
X126424500Y-120011687D01*
X126434824Y-120112752D01*
X126445108Y-120143785D01*
X126489091Y-120276516D01*
X126573804Y-120413858D01*
X126579660Y-120423351D01*
X126699878Y-120543569D01*
X126733363Y-120604892D01*
X126728379Y-120674584D01*
X126699879Y-120718931D01*
X126579659Y-120839151D01*
X126489093Y-120985981D01*
X126489091Y-120985986D01*
X126475497Y-121027011D01*
X126434826Y-121149747D01*
X126434826Y-121149748D01*
X126434825Y-121149748D01*
X126424500Y-121250815D01*
X126424500Y-121949169D01*
X126424501Y-121949187D01*
X126434825Y-122050252D01*
X126471109Y-122159749D01*
X126480079Y-122186818D01*
X126489092Y-122214015D01*
X126489093Y-122214018D01*
X126522168Y-122267640D01*
X126575097Y-122353453D01*
X126579661Y-122360851D01*
X126593981Y-122375171D01*
X126627466Y-122436494D01*
X126622482Y-122506186D01*
X126593984Y-122550531D01*
X126580050Y-122564465D01*
X126489549Y-122711188D01*
X126489544Y-122711199D01*
X126435317Y-122874847D01*
X126424998Y-122975845D01*
X126424998Y-123075000D01*
X128374997Y-123075000D01*
X128374997Y-122975860D01*
X128374996Y-122975845D01*
X128364678Y-122874847D01*
X128310451Y-122711199D01*
X128310446Y-122711188D01*
X128219945Y-122564465D01*
X128219942Y-122564461D01*
X128206016Y-122550535D01*
X128172531Y-122489212D01*
X128177515Y-122419520D01*
X128199791Y-122381875D01*
X128202772Y-122378417D01*
X128220340Y-122360850D01*
X128226415Y-122351000D01*
X128232865Y-122343521D01*
X128254249Y-122329705D01*
X128273180Y-122312679D01*
X128284634Y-122310075D01*
X128291552Y-122305607D01*
X128304434Y-122305576D01*
X128326771Y-122300500D01*
X128868996Y-122300500D01*
X128960040Y-122282389D01*
X129004328Y-122273580D01*
X129087409Y-122239167D01*
X129131807Y-122220777D01*
X129131808Y-122220776D01*
X129131811Y-122220775D01*
X129246543Y-122144114D01*
X129458834Y-121931822D01*
X129520152Y-121898340D01*
X129589844Y-121903324D01*
X129645777Y-121945194D01*
X129692455Y-122007547D01*
X129807665Y-122093794D01*
X129807667Y-122093794D01*
X129807669Y-122093796D01*
X129818830Y-122097958D01*
X129874764Y-122139826D01*
X129899184Y-122205289D01*
X129899500Y-122214141D01*
X129899500Y-122850165D01*
X129879815Y-122917204D01*
X129874767Y-122924476D01*
X129831204Y-122982668D01*
X129831202Y-122982671D01*
X129780908Y-123117517D01*
X129774501Y-123177116D01*
X129774500Y-123177135D01*
X129774500Y-123606596D01*
X129754815Y-123673635D01*
X129702011Y-123719390D01*
X129697950Y-123721158D01*
X129647449Y-123742075D01*
X129577980Y-123749542D01*
X129552547Y-123742074D01*
X129433501Y-123692764D01*
X129433489Y-123692761D01*
X129278845Y-123662000D01*
X129278842Y-123662000D01*
X129121158Y-123662000D01*
X129121155Y-123662000D01*
X128966510Y-123692761D01*
X128966498Y-123692764D01*
X128822136Y-123752561D01*
X128774684Y-123762000D01*
X128498998Y-123762000D01*
X128431959Y-123742315D01*
X128386204Y-123689511D01*
X128374998Y-123638000D01*
X128374998Y-123575000D01*
X126379521Y-123575000D01*
X126312482Y-123555315D01*
X126291840Y-123538681D01*
X125711820Y-122958661D01*
X125678335Y-122897338D01*
X125675501Y-122870980D01*
X125675501Y-122588330D01*
X125675500Y-122588313D01*
X125665176Y-122487247D01*
X125657445Y-122463918D01*
X125610910Y-122323484D01*
X125520342Y-122176650D01*
X125520341Y-122176649D01*
X125520340Y-122176647D01*
X125515864Y-122170987D01*
X125518347Y-122169023D01*
X125491637Y-122120107D01*
X125496621Y-122050415D01*
X125517550Y-122017848D01*
X125515862Y-122016513D01*
X125520338Y-122010852D01*
X125520340Y-122010850D01*
X125610908Y-121864016D01*
X125665174Y-121700253D01*
X125675500Y-121599177D01*
X125675499Y-121000824D01*
X125671650Y-120963148D01*
X125665174Y-120899747D01*
X125653359Y-120864092D01*
X125610908Y-120735984D01*
X125520340Y-120589150D01*
X125406371Y-120475181D01*
X125372886Y-120413858D01*
X125377870Y-120344166D01*
X125406371Y-120299819D01*
X125432709Y-120273481D01*
X125520340Y-120185850D01*
X125610908Y-120039016D01*
X125665174Y-119875253D01*
X125675500Y-119774177D01*
X125675499Y-119175824D01*
X125674516Y-119166205D01*
X125665174Y-119074747D01*
X125648469Y-119024336D01*
X125610908Y-118910984D01*
X125520340Y-118764150D01*
X125398350Y-118642160D01*
X125251516Y-118551592D01*
X125087753Y-118497326D01*
X125087751Y-118497325D01*
X124986684Y-118487000D01*
X124986677Y-118487000D01*
X124647952Y-118487000D01*
X124580913Y-118467315D01*
X124560271Y-118450681D01*
X124015197Y-117905607D01*
X124010859Y-117901269D01*
X124010858Y-117901267D01*
X123948760Y-117839169D01*
X123920481Y-117810889D01*
X123920478Y-117810883D01*
X123890456Y-117762208D01*
X123885910Y-117748488D01*
X123874999Y-117730799D01*
X123825342Y-117650292D01*
X123825342Y-117650290D01*
X123795342Y-117601653D01*
X123795341Y-117601651D01*
X123795340Y-117601650D01*
X123782035Y-117588345D01*
X126425001Y-117588345D01*
X126425001Y-117687500D01*
X127150001Y-117687500D01*
X127650001Y-117687500D01*
X128375000Y-117687500D01*
X128375000Y-117588360D01*
X128374999Y-117588345D01*
X128364681Y-117487347D01*
X128310454Y-117323699D01*
X128310449Y-117323688D01*
X128219948Y-117176965D01*
X128219945Y-117176961D01*
X128098039Y-117055055D01*
X128098035Y-117055052D01*
X127951312Y-116964551D01*
X127951301Y-116964546D01*
X127787653Y-116910319D01*
X127686655Y-116900000D01*
X127650001Y-116900000D01*
X127650001Y-117687500D01*
X127150001Y-117687500D01*
X127150001Y-116900000D01*
X127113362Y-116900000D01*
X127113344Y-116900001D01*
X127012348Y-116910319D01*
X126848700Y-116964546D01*
X126848689Y-116964551D01*
X126701966Y-117055052D01*
X126701962Y-117055055D01*
X126580056Y-117176961D01*
X126580053Y-117176965D01*
X126489552Y-117323688D01*
X126489547Y-117323699D01*
X126435320Y-117487347D01*
X126425001Y-117588345D01*
X123782035Y-117588345D01*
X123673350Y-117479660D01*
X123582129Y-117423395D01*
X123526518Y-117389093D01*
X123526513Y-117389091D01*
X123525069Y-117388612D01*
X123362753Y-117334826D01*
X123362751Y-117334825D01*
X123261678Y-117324500D01*
X122663330Y-117324500D01*
X122663312Y-117324501D01*
X122562247Y-117334825D01*
X122398484Y-117389092D01*
X122398481Y-117389093D01*
X122251648Y-117479661D01*
X122137681Y-117593629D01*
X122076358Y-117627114D01*
X122006666Y-117622130D01*
X121962319Y-117593629D01*
X121848351Y-117479661D01*
X121848350Y-117479660D01*
X121757129Y-117423395D01*
X121701518Y-117389093D01*
X121701513Y-117389091D01*
X121700069Y-117388612D01*
X121537753Y-117334826D01*
X121537751Y-117334825D01*
X121436678Y-117324500D01*
X120838330Y-117324500D01*
X120838312Y-117324501D01*
X120737247Y-117334825D01*
X120573484Y-117389092D01*
X120573481Y-117389093D01*
X120426648Y-117479661D01*
X120304660Y-117601649D01*
X120304659Y-117601651D01*
X120296058Y-117615596D01*
X120244110Y-117662321D01*
X120190519Y-117674500D01*
X119959481Y-117674500D01*
X119892442Y-117654815D01*
X119853942Y-117615596D01*
X119845534Y-117601965D01*
X119845340Y-117601650D01*
X119723350Y-117479660D01*
X119632129Y-117423395D01*
X119576518Y-117389093D01*
X119576513Y-117389091D01*
X119575069Y-117388612D01*
X119412753Y-117334826D01*
X119412751Y-117334825D01*
X119311678Y-117324500D01*
X118713330Y-117324500D01*
X118713312Y-117324501D01*
X118612247Y-117334825D01*
X118448484Y-117389092D01*
X118448481Y-117389093D01*
X118301651Y-117479659D01*
X118187327Y-117593983D01*
X118126004Y-117627467D01*
X118056312Y-117622483D01*
X118011965Y-117593982D01*
X117898038Y-117480055D01*
X117898034Y-117480052D01*
X117810140Y-117425838D01*
X117763415Y-117373890D01*
X117752194Y-117304928D01*
X117780037Y-117240846D01*
X117827783Y-117205739D01*
X117873914Y-117186632D01*
X118037782Y-117077139D01*
X118177139Y-116937782D01*
X118286632Y-116773914D01*
X118362051Y-116591835D01*
X118389136Y-116455671D01*
X118400500Y-116398543D01*
X118400500Y-116270806D01*
X118420185Y-116203767D01*
X118436814Y-116183130D01*
X118492104Y-116127840D01*
X118553424Y-116094356D01*
X118623116Y-116099340D01*
X118654094Y-116116256D01*
X118757664Y-116193789D01*
X118757671Y-116193793D01*
X118892517Y-116244087D01*
X118892516Y-116244087D01*
X118899444Y-116244831D01*
X118952127Y-116250496D01*
X120547872Y-116250495D01*
X120607483Y-116244087D01*
X120742331Y-116193792D01*
X120857546Y-116107542D01*
X120943796Y-115992327D01*
X120994091Y-115857479D01*
X121000500Y-115797869D01*
X121000499Y-114802124D01*
X120994091Y-114742513D01*
X120990099Y-114731809D01*
X120940697Y-114599355D01*
X120942428Y-114598709D01*
X120929903Y-114541168D01*
X120941693Y-114501010D01*
X120940697Y-114500639D01*
X120982981Y-114387269D01*
X120994091Y-114357481D01*
X121000500Y-114297871D01*
X121000499Y-113302126D01*
X120994091Y-113242515D01*
X120943796Y-113107667D01*
X120943794Y-113107664D01*
X120940696Y-113099358D01*
X120942426Y-113098712D01*
X120929902Y-113041161D01*
X120941691Y-113001009D01*
X120940696Y-113000638D01*
X120943794Y-112992331D01*
X120943796Y-112992329D01*
X120994091Y-112857481D01*
X121000500Y-112797871D01*
X121000499Y-111802126D01*
X120994091Y-111742515D01*
X120943796Y-111607667D01*
X120943794Y-111607664D01*
X120940696Y-111599358D01*
X120942426Y-111598712D01*
X120929902Y-111541161D01*
X120941691Y-111501009D01*
X120940696Y-111500638D01*
X120943794Y-111492331D01*
X120943796Y-111492329D01*
X120994091Y-111357481D01*
X121000500Y-111297871D01*
X121000499Y-110597843D01*
X125590000Y-110597843D01*
X125596401Y-110657371D01*
X125596403Y-110657378D01*
X125646645Y-110792085D01*
X125646649Y-110792092D01*
X125732809Y-110907186D01*
X125732812Y-110907189D01*
X125847906Y-110993349D01*
X125847913Y-110993353D01*
X125982620Y-111043595D01*
X125982627Y-111043597D01*
X126042155Y-111049998D01*
X126042172Y-111049999D01*
X126190000Y-111049999D01*
X126690000Y-111049999D01*
X126837828Y-111049999D01*
X126837844Y-111049998D01*
X126897372Y-111043597D01*
X126897375Y-111043596D01*
X126946663Y-111025213D01*
X127016355Y-111020228D01*
X127033333Y-111025213D01*
X127082620Y-111043596D01*
X127142154Y-111049998D01*
X127142171Y-111049999D01*
X127289999Y-111049999D01*
X127789999Y-111049999D01*
X127937827Y-111049999D01*
X127937843Y-111049998D01*
X127997371Y-111043597D01*
X128046667Y-111025211D01*
X128116359Y-111020227D01*
X128133335Y-111025211D01*
X128182622Y-111043594D01*
X128182626Y-111043595D01*
X128242154Y-111049996D01*
X128242171Y-111049997D01*
X128389999Y-111049997D01*
X128889999Y-111049997D01*
X129037827Y-111049997D01*
X129037843Y-111049996D01*
X129097371Y-111043595D01*
X129097378Y-111043593D01*
X129232085Y-110993351D01*
X129232092Y-110993347D01*
X129347186Y-110907187D01*
X129347189Y-110907184D01*
X129433349Y-110792090D01*
X129433353Y-110792083D01*
X129483595Y-110657376D01*
X129483597Y-110657369D01*
X129489998Y-110597841D01*
X129489999Y-110597824D01*
X129489999Y-110449997D01*
X128889999Y-110449997D01*
X128889999Y-111049997D01*
X128389999Y-111049997D01*
X128389999Y-110449999D01*
X127789999Y-110449999D01*
X127789999Y-111049999D01*
X127289999Y-111049999D01*
X127289999Y-110449999D01*
X126690000Y-110449999D01*
X126690000Y-111049999D01*
X126190000Y-111049999D01*
X126190000Y-110449999D01*
X125590000Y-110449999D01*
X125590000Y-110597843D01*
X121000499Y-110597843D01*
X121000499Y-110302126D01*
X120994091Y-110242515D01*
X120993466Y-110240839D01*
X120992988Y-110229928D01*
X121000451Y-110199667D01*
X121005986Y-110168994D01*
X121008748Y-110166027D01*
X121009719Y-110162091D01*
X121032362Y-110140664D01*
X121053597Y-110117858D01*
X121057635Y-110116750D01*
X121060469Y-110114069D01*
X121095196Y-110106445D01*
X121116869Y-110100500D01*
X121178844Y-110100500D01*
X121178845Y-110100499D01*
X121333497Y-110069737D01*
X121479179Y-110009394D01*
X121610289Y-109921789D01*
X121721789Y-109810289D01*
X121809394Y-109679179D01*
X121869737Y-109533497D01*
X121876829Y-109497842D01*
X125590000Y-109497842D01*
X125596401Y-109557370D01*
X125596403Y-109557378D01*
X125614786Y-109606665D01*
X125619770Y-109676357D01*
X125614787Y-109693329D01*
X125596401Y-109742624D01*
X125590000Y-109802154D01*
X125590000Y-109949999D01*
X126190000Y-109949999D01*
X126690000Y-109949999D01*
X127289999Y-109949999D01*
X127289999Y-109949997D01*
X127790000Y-109949997D01*
X128389999Y-109949997D01*
X128890000Y-109949997D01*
X129489999Y-109949997D01*
X129489999Y-109802169D01*
X129489998Y-109802152D01*
X129483597Y-109742625D01*
X129465212Y-109693332D01*
X129460228Y-109623641D01*
X129465213Y-109606662D01*
X129483598Y-109557371D01*
X129489999Y-109497842D01*
X129490000Y-109497825D01*
X129490000Y-109349998D01*
X128890000Y-109349998D01*
X128890000Y-109949997D01*
X128389999Y-109949997D01*
X128389999Y-109349998D01*
X127790000Y-109349998D01*
X127790000Y-109949997D01*
X127289999Y-109949997D01*
X127289999Y-109349998D01*
X126690000Y-109349998D01*
X126690000Y-109949999D01*
X126190000Y-109949999D01*
X126190000Y-109349998D01*
X125590000Y-109349998D01*
X125590000Y-109497842D01*
X121876829Y-109497842D01*
X121900500Y-109378842D01*
X121900500Y-109221158D01*
X121900500Y-109221155D01*
X121900499Y-109221153D01*
X121875136Y-109093647D01*
X121869737Y-109066503D01*
X121853113Y-109026369D01*
X121809397Y-108920827D01*
X121809390Y-108920814D01*
X121721789Y-108789711D01*
X121721786Y-108789707D01*
X121610292Y-108678213D01*
X121610284Y-108678207D01*
X121572712Y-108653102D01*
X121527906Y-108599490D01*
X121519199Y-108530165D01*
X121549353Y-108467138D01*
X121572712Y-108446898D01*
X121604735Y-108425500D01*
X121610289Y-108421789D01*
X121634234Y-108397844D01*
X125589999Y-108397844D01*
X125596400Y-108457372D01*
X125596402Y-108457380D01*
X125614785Y-108506667D01*
X125619769Y-108576359D01*
X125614785Y-108593332D01*
X125596403Y-108642615D01*
X125596401Y-108642625D01*
X125590000Y-108702153D01*
X125590000Y-108849998D01*
X126189999Y-108849998D01*
X126690000Y-108849998D01*
X127290000Y-108849998D01*
X127790000Y-108849998D01*
X128390000Y-108849998D01*
X128890002Y-108849998D01*
X129490000Y-108849998D01*
X129490000Y-108702170D01*
X129489999Y-108702153D01*
X129483597Y-108642620D01*
X129483597Y-108642618D01*
X129465215Y-108593335D01*
X129460230Y-108523643D01*
X129465215Y-108506665D01*
X129483599Y-108457374D01*
X129483600Y-108457371D01*
X129490001Y-108397843D01*
X129490002Y-108397826D01*
X129490002Y-108249999D01*
X128890002Y-108249999D01*
X128890002Y-108849998D01*
X128390000Y-108849998D01*
X128390000Y-108249999D01*
X127790000Y-108249999D01*
X127790000Y-108849998D01*
X127290000Y-108849998D01*
X127290000Y-108250000D01*
X126690000Y-108250000D01*
X126690000Y-108849998D01*
X126189999Y-108849998D01*
X126189999Y-108250000D01*
X125589999Y-108250000D01*
X125589999Y-108397844D01*
X121634234Y-108397844D01*
X121721789Y-108310289D01*
X121809394Y-108179179D01*
X121869737Y-108033497D01*
X121900500Y-107878842D01*
X121900500Y-107721158D01*
X121900500Y-107721155D01*
X121900499Y-107721153D01*
X121880984Y-107623042D01*
X121876829Y-107602155D01*
X125589999Y-107602155D01*
X125589999Y-107750000D01*
X126189999Y-107750000D01*
X126189999Y-107749999D01*
X128890002Y-107749999D01*
X129490002Y-107749999D01*
X129490002Y-107602171D01*
X129490001Y-107602154D01*
X129483600Y-107542626D01*
X129483598Y-107542619D01*
X129433356Y-107407912D01*
X129433352Y-107407905D01*
X129347192Y-107292811D01*
X129347189Y-107292808D01*
X129232095Y-107206648D01*
X129232088Y-107206644D01*
X129097381Y-107156402D01*
X129097374Y-107156400D01*
X129037846Y-107149999D01*
X128890002Y-107149999D01*
X128890002Y-107749999D01*
X126189999Y-107749999D01*
X126189999Y-107150000D01*
X126689999Y-107150000D01*
X126689999Y-107749998D01*
X127290000Y-107749998D01*
X127790000Y-107749998D01*
X128390002Y-107749998D01*
X128390002Y-107149999D01*
X128242157Y-107149999D01*
X128182629Y-107156400D01*
X128182621Y-107156402D01*
X128133335Y-107174785D01*
X128063643Y-107179769D01*
X128046669Y-107174785D01*
X127997379Y-107156401D01*
X127997372Y-107156399D01*
X127937844Y-107149998D01*
X127790000Y-107149998D01*
X127790000Y-107749998D01*
X127290000Y-107749998D01*
X127290000Y-107149998D01*
X127142155Y-107149998D01*
X127082625Y-107156399D01*
X127033327Y-107174786D01*
X126963635Y-107179769D01*
X126946663Y-107174785D01*
X126897378Y-107156403D01*
X126897371Y-107156401D01*
X126837843Y-107150000D01*
X126689999Y-107150000D01*
X126189999Y-107150000D01*
X126042154Y-107150000D01*
X125982626Y-107156401D01*
X125982619Y-107156403D01*
X125847912Y-107206645D01*
X125847905Y-107206649D01*
X125732811Y-107292809D01*
X125732808Y-107292812D01*
X125646648Y-107407906D01*
X125646644Y-107407913D01*
X125596402Y-107542620D01*
X125596400Y-107542627D01*
X125589999Y-107602155D01*
X121876829Y-107602155D01*
X121869738Y-107566508D01*
X121869737Y-107566507D01*
X121869737Y-107566503D01*
X121869735Y-107566498D01*
X121809397Y-107420827D01*
X121809390Y-107420814D01*
X121721789Y-107289711D01*
X121721786Y-107289707D01*
X121610292Y-107178213D01*
X121610288Y-107178210D01*
X121479185Y-107090609D01*
X121479172Y-107090602D01*
X121333501Y-107030264D01*
X121333489Y-107030261D01*
X121178845Y-106999500D01*
X121178842Y-106999500D01*
X121116868Y-106999500D01*
X121049829Y-106979815D01*
X121004074Y-106927011D01*
X120993579Y-106862244D01*
X120995564Y-106843778D01*
X121000500Y-106797872D01*
X121000499Y-105802127D01*
X120994091Y-105742516D01*
X120994091Y-105742515D01*
X120940697Y-105599358D01*
X120942426Y-105598712D01*
X120929903Y-105541162D01*
X120941692Y-105501010D01*
X120940697Y-105500639D01*
X120943795Y-105492332D01*
X120943797Y-105492330D01*
X120994092Y-105357482D01*
X121000501Y-105297872D01*
X121000500Y-104302127D01*
X120995300Y-104253756D01*
X120994092Y-104242515D01*
X120940698Y-104099358D01*
X120942427Y-104098712D01*
X120929904Y-104041162D01*
X120941694Y-104001010D01*
X120940699Y-104000639D01*
X120982073Y-103889707D01*
X120994093Y-103857481D01*
X121000502Y-103797871D01*
X121000501Y-102802126D01*
X120994105Y-102742625D01*
X120994093Y-102742514D01*
X120966239Y-102667833D01*
X120961255Y-102598141D01*
X120994740Y-102536818D01*
X121056064Y-102503334D01*
X121082421Y-102500500D01*
X135918115Y-102500500D01*
X135985154Y-102520185D01*
G37*
%TD.AperFunction*%
%TA.AperFunction,Conductor*%
G36*
X135092370Y-116362333D02*
G01*
X135126187Y-116364146D01*
X135127120Y-116364818D01*
X135128269Y-116364901D01*
X135155381Y-116385197D01*
X135182860Y-116405012D01*
X135183281Y-116406084D01*
X135184202Y-116406773D01*
X135196035Y-116438498D01*
X135208441Y-116470030D01*
X135208367Y-116471562D01*
X135208619Y-116472237D01*
X135207406Y-116491615D01*
X135206818Y-116503897D01*
X135206671Y-116504679D01*
X135189500Y-116591006D01*
X135189500Y-116596417D01*
X135189500Y-117005448D01*
X135169815Y-117072487D01*
X135153181Y-117093129D01*
X135069661Y-117176648D01*
X134979093Y-117323481D01*
X134979091Y-117323486D01*
X134957351Y-117389093D01*
X134924826Y-117487247D01*
X134924826Y-117487248D01*
X134924825Y-117487248D01*
X134914500Y-117588315D01*
X134914500Y-118286669D01*
X134914501Y-118286687D01*
X134924825Y-118387752D01*
X134945678Y-118450681D01*
X134979092Y-118551516D01*
X135063061Y-118687652D01*
X135069661Y-118698351D01*
X135083981Y-118712671D01*
X135117466Y-118773994D01*
X135112482Y-118843686D01*
X135083984Y-118888031D01*
X135070050Y-118901965D01*
X134979549Y-119048688D01*
X134979544Y-119048699D01*
X134925317Y-119212347D01*
X134914998Y-119313345D01*
X134914998Y-119412500D01*
X136300499Y-119412500D01*
X136367538Y-119432185D01*
X136413293Y-119484989D01*
X136424499Y-119536500D01*
X136424499Y-119788500D01*
X136404814Y-119855539D01*
X136352010Y-119901294D01*
X136300499Y-119912500D01*
X136139998Y-119912500D01*
X136139998Y-120699999D01*
X136176638Y-120699999D01*
X136176652Y-120699998D01*
X136284384Y-120688993D01*
X136284599Y-120691098D01*
X136344218Y-120695562D01*
X136400012Y-120737619D01*
X136424212Y-120803164D01*
X136424499Y-120811599D01*
X136424499Y-122432528D01*
X136404814Y-122499567D01*
X136352010Y-122545322D01*
X136282852Y-122555266D01*
X136219296Y-122526241D01*
X136194961Y-122497625D01*
X136120344Y-122376653D01*
X136120341Y-122376649D01*
X135998353Y-122254661D01*
X135998352Y-122254660D01*
X135862697Y-122170987D01*
X135851520Y-122164093D01*
X135851515Y-122164091D01*
X135850071Y-122163612D01*
X135687755Y-122109826D01*
X135687753Y-122109825D01*
X135586680Y-122099500D01*
X135013332Y-122099500D01*
X135013314Y-122099501D01*
X134912249Y-122109825D01*
X134748486Y-122164092D01*
X134748483Y-122164093D01*
X134601650Y-122254661D01*
X134479662Y-122376649D01*
X134479658Y-122376654D01*
X134477636Y-122379933D01*
X134475663Y-122381707D01*
X134475181Y-122382317D01*
X134475076Y-122382234D01*
X134425685Y-122426653D01*
X134396295Y-122436444D01*
X134258177Y-122463918D01*
X134258167Y-122463921D01*
X134130691Y-122516723D01*
X134015958Y-122593385D01*
X134015957Y-122593386D01*
X133921159Y-122688182D01*
X133859837Y-122721666D01*
X133833480Y-122724500D01*
X133565518Y-122724500D01*
X133498479Y-122704815D01*
X133452724Y-122652011D01*
X133442780Y-122582853D01*
X133471805Y-122519297D01*
X133477837Y-122512819D01*
X133803838Y-122186818D01*
X133865161Y-122153333D01*
X133891519Y-122150499D01*
X134197871Y-122150499D01*
X134197872Y-122150499D01*
X134257483Y-122144091D01*
X134392331Y-122093796D01*
X134507546Y-122007546D01*
X134593796Y-121892331D01*
X134644091Y-121757483D01*
X134650500Y-121697873D01*
X134650499Y-120011654D01*
X134914999Y-120011654D01*
X134925317Y-120112652D01*
X134979544Y-120276300D01*
X134979549Y-120276311D01*
X135070050Y-120423034D01*
X135070053Y-120423038D01*
X135191959Y-120544944D01*
X135191963Y-120544947D01*
X135338686Y-120635448D01*
X135338697Y-120635453D01*
X135502345Y-120689680D01*
X135603350Y-120699999D01*
X135639998Y-120699999D01*
X135639998Y-119912500D01*
X134914999Y-119912500D01*
X134914999Y-120011654D01*
X134650499Y-120011654D01*
X134650499Y-119791869D01*
X134650499Y-117902129D01*
X134650498Y-117902123D01*
X134650497Y-117902116D01*
X134644091Y-117842517D01*
X134642842Y-117839169D01*
X134593797Y-117707671D01*
X134593793Y-117707664D01*
X134507547Y-117592455D01*
X134507544Y-117592452D01*
X134392335Y-117506206D01*
X134392328Y-117506202D01*
X134257483Y-117455908D01*
X134223765Y-117452283D01*
X134159214Y-117425544D01*
X134119368Y-117368150D01*
X134116876Y-117298325D01*
X134149340Y-117241315D01*
X134997255Y-116393401D01*
X135026971Y-116377175D01*
X135056418Y-116360407D01*
X135057566Y-116360468D01*
X135058577Y-116359917D01*
X135092370Y-116362333D01*
G37*
%TD.AperFunction*%
%TA.AperFunction,Conductor*%
G36*
X137993038Y-119682185D02*
G01*
X138038793Y-119734989D01*
X138049999Y-119786500D01*
X138049999Y-120673747D01*
X138129690Y-120712467D01*
X138135284Y-120717553D01*
X138142539Y-120719684D01*
X138160777Y-120740732D01*
X138181386Y-120759470D01*
X138183342Y-120766773D01*
X138188294Y-120772488D01*
X138199500Y-120823999D01*
X138199500Y-122107375D01*
X138179815Y-122174414D01*
X138127011Y-122220169D01*
X138057853Y-122230113D01*
X138010404Y-122212914D01*
X137951522Y-122176595D01*
X137951517Y-122176593D01*
X137951516Y-122176592D01*
X137787753Y-122122326D01*
X137787750Y-122122325D01*
X137736896Y-122117130D01*
X137672204Y-122090733D01*
X137632053Y-122033552D01*
X137625499Y-121993772D01*
X137625499Y-119786500D01*
X137645184Y-119719461D01*
X137697988Y-119673706D01*
X137749499Y-119662500D01*
X137925999Y-119662500D01*
X137993038Y-119682185D01*
G37*
%TD.AperFunction*%
%TA.AperFunction,Conductor*%
G36*
X118458362Y-112171858D02*
G01*
X118495082Y-112231301D01*
X118499500Y-112264107D01*
X118499500Y-112797868D01*
X118499501Y-112797874D01*
X118505908Y-112857481D01*
X118552413Y-112982165D01*
X118557397Y-113051857D01*
X118523912Y-113113180D01*
X118462589Y-113146664D01*
X118436231Y-113149498D01*
X117965602Y-113149498D01*
X117898563Y-113129813D01*
X117896711Y-113128600D01*
X117873919Y-113113371D01*
X117873907Y-113113364D01*
X117691839Y-113037950D01*
X117691829Y-113037947D01*
X117498543Y-112999500D01*
X117498541Y-112999500D01*
X117301459Y-112999500D01*
X117301457Y-112999500D01*
X117108170Y-113037947D01*
X117108160Y-113037950D01*
X116926092Y-113113364D01*
X116926079Y-113113371D01*
X116762218Y-113222860D01*
X116762214Y-113222863D01*
X116622863Y-113362214D01*
X116622860Y-113362218D01*
X116513371Y-113526079D01*
X116513364Y-113526092D01*
X116437950Y-113708160D01*
X116437947Y-113708170D01*
X116399500Y-113901456D01*
X116399500Y-113901459D01*
X116399500Y-114098541D01*
X116399500Y-114098543D01*
X116399499Y-114098543D01*
X116437947Y-114291829D01*
X116437950Y-114291839D01*
X116513364Y-114473907D01*
X116513371Y-114473920D01*
X116622860Y-114637781D01*
X116622863Y-114637785D01*
X116762214Y-114777136D01*
X116762218Y-114777139D01*
X116926079Y-114886628D01*
X116926092Y-114886635D01*
X117108160Y-114962049D01*
X117108165Y-114962051D01*
X117108169Y-114962051D01*
X117108170Y-114962052D01*
X117301456Y-115000500D01*
X117480193Y-115000500D01*
X117547232Y-115020185D01*
X117592987Y-115072989D01*
X117602931Y-115142147D01*
X117573906Y-115205703D01*
X117567874Y-115212181D01*
X117516874Y-115263181D01*
X117455551Y-115296666D01*
X117429193Y-115299500D01*
X117301457Y-115299500D01*
X117108170Y-115337947D01*
X117108160Y-115337950D01*
X116926092Y-115413364D01*
X116926079Y-115413371D01*
X116762218Y-115522860D01*
X116762214Y-115522863D01*
X116622863Y-115662214D01*
X116622860Y-115662218D01*
X116513371Y-115826079D01*
X116513364Y-115826092D01*
X116437950Y-116008160D01*
X116437947Y-116008170D01*
X116399500Y-116201456D01*
X116399500Y-116201459D01*
X116399500Y-116398541D01*
X116399500Y-116398543D01*
X116399499Y-116398543D01*
X116437947Y-116591829D01*
X116437950Y-116591839D01*
X116513364Y-116773907D01*
X116513371Y-116773920D01*
X116622860Y-116937781D01*
X116622863Y-116937785D01*
X116762217Y-117077139D01*
X116817845Y-117114308D01*
X116862650Y-117167920D01*
X116871357Y-117237245D01*
X116841203Y-117300272D01*
X116787958Y-117335116D01*
X116623699Y-117389546D01*
X116623688Y-117389551D01*
X116476965Y-117480052D01*
X116476961Y-117480055D01*
X116355055Y-117601961D01*
X116355052Y-117601965D01*
X116264551Y-117748688D01*
X116264546Y-117748699D01*
X116210319Y-117912347D01*
X116200000Y-118013345D01*
X116200000Y-118050000D01*
X117063500Y-118050000D01*
X117130539Y-118069685D01*
X117176294Y-118122489D01*
X117187500Y-118174000D01*
X117187500Y-118300000D01*
X117313500Y-118300000D01*
X117380539Y-118319685D01*
X117426294Y-118372489D01*
X117437500Y-118424000D01*
X117437500Y-119274999D01*
X117486640Y-119274999D01*
X117486654Y-119274998D01*
X117587652Y-119264680D01*
X117751300Y-119210453D01*
X117751311Y-119210448D01*
X117898033Y-119119948D01*
X118011964Y-119006017D01*
X118073287Y-118972532D01*
X118142979Y-118977516D01*
X118187327Y-119006017D01*
X118301650Y-119120340D01*
X118448484Y-119210908D01*
X118612247Y-119265174D01*
X118713323Y-119275500D01*
X119311676Y-119275499D01*
X119311684Y-119275498D01*
X119311687Y-119275498D01*
X119405430Y-119265922D01*
X119412753Y-119265174D01*
X119576516Y-119210908D01*
X119723350Y-119120340D01*
X119845340Y-118998350D01*
X119853942Y-118984404D01*
X119905890Y-118937679D01*
X119959481Y-118925500D01*
X120190519Y-118925500D01*
X120257558Y-118945185D01*
X120296058Y-118984404D01*
X120304660Y-118998350D01*
X120426650Y-119120340D01*
X120573484Y-119210908D01*
X120717754Y-119258714D01*
X120739504Y-119265922D01*
X120796949Y-119305695D01*
X120823772Y-119370211D01*
X120824500Y-119383628D01*
X120824500Y-120275500D01*
X120804815Y-120342539D01*
X120752011Y-120388294D01*
X120700500Y-120399500D01*
X120327130Y-120399500D01*
X120327123Y-120399501D01*
X120267516Y-120405908D01*
X120132671Y-120456202D01*
X120132664Y-120456206D01*
X120017455Y-120542452D01*
X120017452Y-120542455D01*
X119931207Y-120657663D01*
X119931203Y-120657671D01*
X119910642Y-120712796D01*
X119868771Y-120768729D01*
X119837796Y-120785642D01*
X119782671Y-120806203D01*
X119782663Y-120806207D01*
X119667455Y-120892452D01*
X119667452Y-120892455D01*
X119581206Y-121007664D01*
X119581202Y-121007671D01*
X119539742Y-121118833D01*
X119497871Y-121174767D01*
X119432407Y-121199184D01*
X119423560Y-121199500D01*
X118565321Y-121199500D01*
X118498282Y-121179815D01*
X118459782Y-121140596D01*
X118420340Y-121076650D01*
X118298351Y-120954661D01*
X118298350Y-120954660D01*
X118151516Y-120864092D01*
X117987753Y-120809826D01*
X117987751Y-120809825D01*
X117886678Y-120799500D01*
X117313330Y-120799500D01*
X117313312Y-120799501D01*
X117212247Y-120809825D01*
X117048484Y-120864092D01*
X117048481Y-120864093D01*
X116901648Y-120954661D01*
X116793129Y-121063181D01*
X116731806Y-121096666D01*
X116705448Y-121099500D01*
X115591642Y-121099500D01*
X115524603Y-121079815D01*
X115478848Y-121027011D01*
X115468904Y-120957853D01*
X115469168Y-120956103D01*
X115474859Y-120920168D01*
X115475500Y-120916123D01*
X115475500Y-120683875D01*
X115475500Y-120683869D01*
X115453102Y-120542455D01*
X115439169Y-120454485D01*
X115367400Y-120233603D01*
X115367398Y-120233600D01*
X115367398Y-120233598D01*
X115305772Y-120112652D01*
X115261961Y-120026668D01*
X115125449Y-119838775D01*
X114961224Y-119674550D01*
X114773331Y-119538038D01*
X114669217Y-119484989D01*
X114566399Y-119432600D01*
X114465314Y-119399755D01*
X114415952Y-119369505D01*
X114247488Y-119201041D01*
X114307890Y-119176022D01*
X114414351Y-119104888D01*
X114504888Y-119014351D01*
X114576022Y-118907890D01*
X114601041Y-118847489D01*
X115204760Y-119451208D01*
X115204762Y-119451207D01*
X115261530Y-119373071D01*
X115366934Y-119166205D01*
X115438681Y-118945393D01*
X115475000Y-118716090D01*
X115475000Y-118586654D01*
X116200001Y-118586654D01*
X116210319Y-118687652D01*
X116264546Y-118851300D01*
X116264551Y-118851311D01*
X116355052Y-118998034D01*
X116355055Y-118998038D01*
X116476961Y-119119944D01*
X116476965Y-119119947D01*
X116623688Y-119210448D01*
X116623699Y-119210453D01*
X116787347Y-119264680D01*
X116888351Y-119274999D01*
X116937499Y-119274998D01*
X116937500Y-119274998D01*
X116937500Y-118550000D01*
X116200001Y-118550000D01*
X116200001Y-118586654D01*
X115475000Y-118586654D01*
X115475000Y-118483909D01*
X115438681Y-118254606D01*
X115366934Y-118033794D01*
X115261534Y-117826935D01*
X115204760Y-117748791D01*
X115204759Y-117748791D01*
X114601041Y-118352510D01*
X114576022Y-118292110D01*
X114504888Y-118185649D01*
X114414351Y-118095112D01*
X114307890Y-118023978D01*
X114247485Y-117998957D01*
X114415952Y-117830491D01*
X114465310Y-117800244D01*
X114566396Y-117767400D01*
X114773331Y-117661961D01*
X114961224Y-117525449D01*
X115125449Y-117361224D01*
X115261961Y-117173331D01*
X115367400Y-116966396D01*
X115439169Y-116745514D01*
X115463640Y-116591006D01*
X115475500Y-116516129D01*
X115475500Y-116283870D01*
X115448580Y-116113906D01*
X115439169Y-116054486D01*
X115367400Y-115833604D01*
X115367398Y-115833601D01*
X115367398Y-115833599D01*
X115261960Y-115626668D01*
X115246595Y-115605520D01*
X115125449Y-115438776D01*
X115074354Y-115387681D01*
X115040869Y-115326358D01*
X115045853Y-115256666D01*
X115074353Y-115212319D01*
X115125449Y-115161225D01*
X115261961Y-114973332D01*
X115367400Y-114766397D01*
X115439169Y-114545515D01*
X115464232Y-114387269D01*
X115475500Y-114316130D01*
X115475500Y-114125096D01*
X115495185Y-114058057D01*
X115511819Y-114037415D01*
X115763584Y-113785650D01*
X116158506Y-113390728D01*
X116158511Y-113390724D01*
X116168714Y-113380520D01*
X116168716Y-113380520D01*
X116280520Y-113268716D01*
X116358411Y-113133803D01*
X116358421Y-113133793D01*
X116358419Y-113133792D01*
X116359575Y-113131789D01*
X116359575Y-113131787D01*
X116359577Y-113131785D01*
X116400501Y-112979057D01*
X116400501Y-112820943D01*
X116400501Y-112813348D01*
X116400500Y-112813330D01*
X116400500Y-112413391D01*
X116420185Y-112346352D01*
X116472989Y-112300597D01*
X116542147Y-112290653D01*
X116605703Y-112319678D01*
X116620357Y-112334730D01*
X116622868Y-112337790D01*
X116762214Y-112477136D01*
X116762218Y-112477139D01*
X116926079Y-112586628D01*
X116926092Y-112586635D01*
X117082125Y-112651265D01*
X117108165Y-112662051D01*
X117108169Y-112662051D01*
X117108170Y-112662052D01*
X117301456Y-112700500D01*
X117301459Y-112700500D01*
X117498543Y-112700500D01*
X117628582Y-112674632D01*
X117691835Y-112662051D01*
X117873914Y-112586632D01*
X118037782Y-112477139D01*
X118177139Y-112337782D01*
X118272398Y-112195215D01*
X118326010Y-112150411D01*
X118395334Y-112141704D01*
X118458362Y-112171858D01*
G37*
%TD.AperFunction*%
%TA.AperFunction,Conductor*%
G36*
X142244460Y-109492486D02*
G01*
X142289230Y-109546127D01*
X142299502Y-109595543D01*
X142299502Y-113222105D01*
X142279817Y-113289144D01*
X142227013Y-113334899D01*
X142216858Y-113336694D01*
X141601041Y-113952511D01*
X141576022Y-113892111D01*
X141504888Y-113785650D01*
X141414351Y-113695113D01*
X141307890Y-113623979D01*
X141247487Y-113598959D01*
X141851207Y-112995239D01*
X141773064Y-112938466D01*
X141566205Y-112833066D01*
X141345393Y-112761319D01*
X141116090Y-112725001D01*
X140883910Y-112725001D01*
X140654606Y-112761319D01*
X140433794Y-112833066D01*
X140226929Y-112938469D01*
X140197384Y-112959935D01*
X140131578Y-112983414D01*
X140063524Y-112967588D01*
X140014830Y-112917482D01*
X140000500Y-112859616D01*
X140000500Y-112307202D01*
X140020185Y-112240163D01*
X140036819Y-112219521D01*
X140464474Y-111791866D01*
X140955520Y-111300821D01*
X141034577Y-111163889D01*
X141075501Y-111011162D01*
X141075501Y-110853047D01*
X141075501Y-110845452D01*
X141075500Y-110845434D01*
X141075500Y-109698733D01*
X141095185Y-109631694D01*
X141147989Y-109585939D01*
X141210147Y-109575700D01*
X141210166Y-109575339D01*
X141211827Y-109575423D01*
X141212113Y-109575376D01*
X141213323Y-109575500D01*
X141811676Y-109575499D01*
X141811684Y-109575498D01*
X141811687Y-109575498D01*
X141867030Y-109569844D01*
X141912753Y-109565174D01*
X142076516Y-109510908D01*
X142110406Y-109490004D01*
X142177796Y-109471564D01*
X142244460Y-109492486D01*
G37*
%TD.AperFunction*%
%TA.AperFunction,Conductor*%
G36*
X118418833Y-107603624D02*
G01*
X118474767Y-107645495D01*
X118499184Y-107710959D01*
X118499500Y-107719806D01*
X118499500Y-108297868D01*
X118499501Y-108297874D01*
X118505908Y-108357481D01*
X118559303Y-108500639D01*
X118557575Y-108501283D01*
X118570095Y-108558851D01*
X118558310Y-108598986D01*
X118559303Y-108599357D01*
X118505908Y-108742515D01*
X118499501Y-108802114D01*
X118499500Y-108802133D01*
X118499500Y-109797868D01*
X118499501Y-109797874D01*
X118505908Y-109857481D01*
X118552413Y-109982165D01*
X118557397Y-110051857D01*
X118523912Y-110113180D01*
X118462589Y-110146664D01*
X118436231Y-110149498D01*
X118235931Y-110149498D01*
X118104284Y-110175685D01*
X118104019Y-110174355D01*
X118041057Y-110174912D01*
X117981947Y-110137659D01*
X117952361Y-110074363D01*
X117961692Y-110005119D01*
X117966108Y-109996200D01*
X117968354Y-109992086D01*
X118018596Y-109857379D01*
X118018598Y-109857372D01*
X118024999Y-109797844D01*
X118025000Y-109797827D01*
X118025000Y-109750000D01*
X117250000Y-109750000D01*
X117250000Y-110250000D01*
X117572828Y-110250000D01*
X117572841Y-110249999D01*
X117623604Y-110244541D01*
X117692364Y-110256945D01*
X117743502Y-110304555D01*
X117760782Y-110372254D01*
X117738718Y-110438549D01*
X117724542Y-110455511D01*
X117516873Y-110663181D01*
X117455550Y-110696666D01*
X117429192Y-110699500D01*
X117301457Y-110699500D01*
X117108170Y-110737947D01*
X117108160Y-110737950D01*
X116926092Y-110813364D01*
X116926079Y-110813371D01*
X116762218Y-110922860D01*
X116762214Y-110922863D01*
X116622865Y-111062212D01*
X116620352Y-111065275D01*
X116618630Y-111066447D01*
X116618553Y-111066525D01*
X116618538Y-111066510D01*
X116562605Y-111104608D01*
X116492761Y-111106477D01*
X116432993Y-111070289D01*
X116402278Y-111007532D01*
X116400500Y-110986608D01*
X116400500Y-110374000D01*
X116420185Y-110306961D01*
X116472989Y-110261206D01*
X116524500Y-110250000D01*
X116750000Y-110250000D01*
X116750000Y-109250000D01*
X117250000Y-109250000D01*
X118025000Y-109250000D01*
X118025000Y-109202172D01*
X118024999Y-109202155D01*
X118018598Y-109142627D01*
X118018596Y-109142620D01*
X117968354Y-109007913D01*
X117968350Y-109007906D01*
X117882190Y-108892812D01*
X117882187Y-108892809D01*
X117767093Y-108806649D01*
X117767086Y-108806645D01*
X117632379Y-108756403D01*
X117632372Y-108756401D01*
X117572844Y-108750000D01*
X117250000Y-108750000D01*
X117250000Y-109250000D01*
X116750000Y-109250000D01*
X116750000Y-108750000D01*
X116427155Y-108750000D01*
X116367627Y-108756401D01*
X116367620Y-108756403D01*
X116232913Y-108806645D01*
X116232911Y-108806646D01*
X116123809Y-108888321D01*
X116058345Y-108912738D01*
X115990072Y-108897887D01*
X115940666Y-108848482D01*
X115925498Y-108789054D01*
X115925498Y-108552131D01*
X115925497Y-108552125D01*
X115925268Y-108549998D01*
X115919090Y-108492519D01*
X115919019Y-108492329D01*
X115868796Y-108357673D01*
X115868792Y-108357666D01*
X115788192Y-108250000D01*
X115782545Y-108242456D01*
X115697466Y-108178766D01*
X115655596Y-108122833D01*
X115650612Y-108053141D01*
X115684097Y-107991818D01*
X115745421Y-107958334D01*
X115771778Y-107955500D01*
X117759070Y-107955500D01*
X117843614Y-107938682D01*
X117884743Y-107930501D01*
X118003126Y-107881465D01*
X118013550Y-107874500D01*
X118109668Y-107810277D01*
X118287821Y-107632123D01*
X118349141Y-107598640D01*
X118418833Y-107603624D01*
G37*
%TD.AperFunction*%
%TA.AperFunction,Conductor*%
G36*
X112300653Y-102520185D02*
G01*
X112346408Y-102572989D01*
X112356352Y-102642147D01*
X112327327Y-102705703D01*
X112307925Y-102723766D01*
X112189454Y-102812453D01*
X112189451Y-102812456D01*
X112103205Y-102927665D01*
X112103201Y-102927672D01*
X112052909Y-103062514D01*
X112052908Y-103062518D01*
X112046499Y-103122128D01*
X112046499Y-103122135D01*
X112046499Y-103122136D01*
X112046499Y-103867871D01*
X112046500Y-103867877D01*
X112052907Y-103927484D01*
X112103201Y-104062329D01*
X112107453Y-104070115D01*
X112104279Y-104071847D01*
X112122658Y-104121303D01*
X112107724Y-104189558D01*
X112107118Y-104190501D01*
X112103202Y-104197671D01*
X112052910Y-104332513D01*
X112052909Y-104332517D01*
X112046500Y-104392127D01*
X112046500Y-104392134D01*
X112046500Y-104392135D01*
X112046500Y-105137870D01*
X112046501Y-105137876D01*
X112052908Y-105197483D01*
X112103202Y-105332328D01*
X112107454Y-105340114D01*
X112104397Y-105341783D01*
X112122962Y-105391616D01*
X112108085Y-105459883D01*
X112107705Y-105460474D01*
X112103643Y-105467912D01*
X112053401Y-105602619D01*
X112053399Y-105602626D01*
X112046998Y-105662154D01*
X112046998Y-105784999D01*
X114294999Y-105784999D01*
X114294999Y-105736500D01*
X114314684Y-105669461D01*
X114367488Y-105623706D01*
X114418999Y-105612500D01*
X117874998Y-105612500D01*
X117874998Y-105513360D01*
X117874997Y-105513345D01*
X117864679Y-105412347D01*
X117810452Y-105248699D01*
X117810447Y-105248688D01*
X117719946Y-105101965D01*
X117719943Y-105101961D01*
X117706017Y-105088035D01*
X117672532Y-105026712D01*
X117677516Y-104957020D01*
X117691179Y-104930599D01*
X117697751Y-104920939D01*
X117720341Y-104898350D01*
X117790354Y-104784839D01*
X117791912Y-104782551D01*
X117816847Y-104762065D01*
X117840840Y-104740485D01*
X117843677Y-104740023D01*
X117845899Y-104738198D01*
X117877946Y-104734446D01*
X117909802Y-104729262D01*
X117912439Y-104730408D01*
X117915294Y-104730074D01*
X117944279Y-104744242D01*
X117973884Y-104757105D01*
X117977665Y-104760561D01*
X117978066Y-104760757D01*
X117978297Y-104761138D01*
X117982112Y-104764625D01*
X118466659Y-105249172D01*
X118500144Y-105310495D01*
X118502268Y-105323601D01*
X118505909Y-105357482D01*
X118559304Y-105500640D01*
X118557574Y-105501285D01*
X118570096Y-105558842D01*
X118560558Y-105598440D01*
X118557214Y-105606317D01*
X118556204Y-105607668D01*
X118553027Y-105616183D01*
X118551945Y-105618735D01*
X118531462Y-105643707D01*
X118512104Y-105669564D01*
X118508632Y-105671540D01*
X118507635Y-105672757D01*
X118505002Y-105673608D01*
X118485253Y-105684854D01*
X118391873Y-105723533D01*
X118285329Y-105794723D01*
X118003871Y-106076181D01*
X117942548Y-106109666D01*
X117916190Y-106112500D01*
X114704998Y-106112500D01*
X114704998Y-106160999D01*
X114685313Y-106228038D01*
X114632509Y-106273793D01*
X114580998Y-106284999D01*
X112046998Y-106284999D01*
X112046998Y-106407843D01*
X112053399Y-106467371D01*
X112053400Y-106467375D01*
X112103648Y-106602094D01*
X112107897Y-106609876D01*
X112104671Y-106611637D01*
X112106118Y-106615532D01*
X112114815Y-106627157D01*
X112115854Y-106641744D01*
X112122971Y-106660905D01*
X112118631Y-106680725D01*
X112119780Y-106696850D01*
X112108462Y-106727167D01*
X112108027Y-106729157D01*
X112105524Y-106733513D01*
X112103610Y-106736694D01*
X112079724Y-106758659D01*
X112056758Y-106781613D01*
X112054146Y-106782180D01*
X112052181Y-106783988D01*
X112020216Y-106789551D01*
X111988481Y-106796446D01*
X111985976Y-106795511D01*
X111983346Y-106795969D01*
X111953446Y-106783367D01*
X111923023Y-106772011D01*
X111919733Y-106769159D01*
X111918961Y-106768834D01*
X111918380Y-106767986D01*
X111909680Y-106760445D01*
X109552591Y-104403356D01*
X109552589Y-104403353D01*
X109433718Y-104284482D01*
X109433710Y-104284476D01*
X109326380Y-104222510D01*
X109326378Y-104222509D01*
X109315696Y-104216342D01*
X109296786Y-104205424D01*
X109194400Y-104177989D01*
X109190661Y-104176728D01*
X109165144Y-104158858D01*
X109138541Y-104142642D01*
X109136762Y-104138981D01*
X109133431Y-104136648D01*
X109121627Y-104107821D01*
X109108013Y-104079795D01*
X109108417Y-104075562D01*
X109106954Y-104071989D01*
X109110691Y-104051740D01*
X109114113Y-104015902D01*
X109147092Y-103927483D01*
X109153501Y-103867873D01*
X109153500Y-103122128D01*
X109147092Y-103062517D01*
X109096797Y-102927669D01*
X109096796Y-102927668D01*
X109096794Y-102927664D01*
X109010548Y-102812456D01*
X109010549Y-102812456D01*
X109010547Y-102812454D01*
X108895332Y-102726204D01*
X108895330Y-102726203D01*
X108892076Y-102723767D01*
X108850205Y-102667833D01*
X108845221Y-102598141D01*
X108878706Y-102536818D01*
X108940030Y-102503334D01*
X108966387Y-102500500D01*
X112233614Y-102500500D01*
X112300653Y-102520185D01*
G37*
%TD.AperFunction*%
%TD*%
M02*
