M48
; DRILL file KiCad 10.0.0 date 2026-09-07T11:09:45
; FORMAT={-:-/ absolute / metric / decimal}
; #@! TF.CreationDate,2026-09-07T11:09:45-07:00
; #@! TF.GenerationSoftware,Kicad,Pcbnew,10.0.0
; #@! TF.FileFunction,Plated,1,2,PTH
FMAT,2
METRIC
; #@! TA.AperFunction,Plated,PTH,ViaDrill
T1C0.300
; #@! TA.AperFunction,Plated,PTH,ComponentDrill
T2C0.400
; #@! TA.AperFunction,Plated,PTH,ComponentDrill
T3C1.300
; #@! TA.AperFunction,Plated,PTH,ComponentDrill
T4C2.200
; #@! TA.AperFunction,Plated,PTH,ComponentDrill
T5C3.600
%
G90
G05
T1
X101.7Y-108.5
X102.3Y-109.3
X102.4Y-125.9
X102.8Y-108.5
X102.9Y-126.6
X103.4Y-125.9
X106.5Y-128.1
X107.0Y-128.8
X107.5Y-128.1
X109.7Y-127.9
X111.2Y-129.5
X111.7Y-131.1
X114.5Y-105.635
X116.1Y-105.862
X116.1Y-117.0
X116.2Y-104.137
X116.7Y-112.8
X116.8Y-115.2
X117.0Y-108.6
X117.0Y-110.4
X117.188Y-118.3
X117.9Y-105.8
X118.2Y-109.5
X118.2Y-112.8
X118.6Y-116.8
X120.725Y-124.0
X121.1Y-107.8
X121.1Y-109.3
X121.7Y-111.5
X122.3Y-112.1
X122.4Y-108.9
X122.4Y-114.5
X122.7Y-129.1
X122.9Y-109.4
X122.9Y-115.4
X123.0Y-112.8
X123.5Y-114.5
X123.5Y-128.7
X123.6Y-110.1
X123.8Y-113.5
X124.0Y-130.3
X124.1Y-115.4
X124.3Y-110.8
X124.3Y-128.7
X124.4Y-114.2
X125.0Y-114.9
X125.1Y-111.6
X125.1Y-115.9
X125.1Y-117.0
X125.2Y-117.9
X125.2Y-128.7
X125.9Y-112.4
X126.3Y-125.3
X126.7Y-113.2
X127.0Y-108.0
X127.0Y-109.1
X127.0Y-110.2
X127.3Y-113.9
X127.5Y-114.7
X127.5Y-115.6
X127.5Y-116.4
X127.5Y-117.3
X127.8Y-130.2
X128.1Y-108.0
X128.1Y-109.1
X128.1Y-110.2
X128.1Y-125.3
X128.3Y-115.2
X128.3Y-116.1
X128.3Y-117.0
X128.4Y-129.6
X128.5Y-123.4
X128.9Y-129.0
X129.2Y-124.462
X129.3Y-128.2
X130.0Y-124.462
X130.6Y-119.8
X130.8Y-124.462
X134.9Y-119.6
X135.5Y-107.8
X135.5Y-109.3
X135.5Y-110.8
X135.9Y-120.7
X137.9Y-120.5
X137.9Y-121.2
X140.7Y-112.2
X141.6Y-112.2
X142.4Y-106.8
X146.1Y-104.4
X146.1Y-106.4
X146.1Y-108.5
X152.4Y-108.276
X152.4Y-111.6
X153.9Y-126.8
T2
X100.85Y-104.5
X100.85Y-130.5
X101.333Y-103.333
X101.333Y-105.667
X101.333Y-129.333
X101.333Y-131.667
X102.5Y-102.85
X102.5Y-106.15
X102.5Y-128.85
X102.5Y-132.15
X103.667Y-103.333
X103.667Y-105.667
X103.667Y-129.333
X103.667Y-131.667
X104.15Y-104.5
X104.15Y-130.5
X150.85Y-104.5
X150.85Y-130.5
X151.333Y-103.333
X151.333Y-105.667
X151.333Y-129.333
X151.333Y-131.667
X152.5Y-102.85
X152.5Y-106.15
X152.5Y-128.85
X152.5Y-132.15
X153.667Y-103.333
X153.667Y-105.667
X153.667Y-129.333
X153.667Y-131.667
X154.15Y-104.5
X154.15Y-130.5
T3
X114.0Y-114.2
X114.0Y-116.4
X114.0Y-118.6
X114.0Y-120.8
X141.0Y-114.2
X141.0Y-116.4
X141.0Y-118.6
X141.0Y-120.8
T4
X102.5Y-104.5
X102.5Y-130.5
X152.5Y-104.5
X152.5Y-130.5
T5
X107.9Y-113.5
X107.9Y-121.5
X147.1Y-113.5
X147.1Y-121.5
M30
